# Blender 4.3.2
# www.blender.org
mtllib sample.mtl
o Cube
v 100.000000 1.000000 -100.000000
v 100.000000 -1.000000 -100.000000
v 100.000000 1.000000 100.000000
v 100.000000 -1.000000 100.000000
v -100.000000 1.000000 -100.000000
v -100.000000 -1.000000 -100.000000
v -100.000000 1.000000 100.000000
v -100.000000 -1.000000 100.000000
vn -0.0000 1.0000 -0.0000
vn -0.0000 -0.0000 1.0000
vn -1.0000 -0.0000 -0.0000
vn -0.0000 -1.0000 -0.0000
vn 1.0000 -0.0000 -0.0000
vn -0.0000 -0.0000 -1.0000
vt 0.625000 0.500000
vt 0.875000 0.500000
vt 0.875000 0.750000
vt 0.625000 0.750000
vt 0.375000 0.750000
vt 0.625000 1.000000
vt 0.375000 1.000000
vt 0.375000 0.000000
vt 0.625000 0.000000
vt 0.625000 0.250000
vt 0.375000 0.250000
vt 0.125000 0.500000
vt 0.375000 0.500000
vt 0.125000 0.750000
s 0
usemtl Material
f 1/1/1 5/2/1 7/3/1 3/4/1
f 4/5/2 3/4/2 7/6/2 8/7/2
f 8/8/3 7/9/3 5/10/3 6/11/3
f 6/12/4 2/13/4 4/5/4 8/14/4
f 2/13/5 1/1/5 3/4/5 4/5/5
f 6/11/6 5/10/6 1/1/6 2/13/6
o 立方体
v -20.000000 1.000000 1.000000
v -20.000000 23.000000 1.000000
v -20.000000 1.000000 -1.000000
v -20.000000 23.000000 -1.000000
v 20.000000 1.000000 1.000000
v 20.000000 23.000000 1.000000
v 20.000000 1.000000 -1.000000
v 20.000000 23.000000 -1.000000
v 10.000000 20.000000 -1.000000
v -10.000000 20.000000 -1.000000
v -10.000000 4.000000 -1.000000
v 10.000000 4.000000 -1.000000
v -10.000000 20.000000 1.000000
v 10.000000 20.000000 1.000000
v -10.000000 4.000000 1.000000
v 10.000000 4.000000 1.000000
vn -1.0000 -0.0000 -0.0000
vn -0.0000 -0.0000 -1.0000
vn 1.0000 -0.0000 -0.0000
vn -0.0000 -0.0000 1.0000
vn -0.0000 -1.0000 -0.0000
vn -0.0000 1.0000 -0.0000
vt 0.375000 0.000000
vt 0.625000 0.000000
vt 0.625000 0.250000
vt 0.375000 0.250000
vt 0.590909 0.437500
vt 0.625000 0.500000
vt 0.375000 0.500000
vt 0.590909 0.312500
vt 0.409091 0.312500
vt 0.409091 0.437500
vt 0.625000 0.750000
vt 0.375000 0.750000
vt 0.625000 1.000000
vt 0.375000 1.000000
vt 0.590909 0.812500
vt 0.409091 0.812500
vt 0.409091 0.937500
vt 0.590909 0.937500
vt 0.125000 0.500000
vt 0.125000 0.750000
vt 0.875000 0.500000
vt 0.875000 0.750000
vt 0.625000 0.100000
vt 0.625000 0.150000
vt 0.375000 0.150000
vt 0.375000 0.100000
vt 0.625000 0.600000
vt 0.625000 0.650000
vt 0.375000 0.650000
vt 0.375000 0.600000
vt 0.125000 0.600000
vt 0.125000 0.650000
vt 0.875000 0.600000
vt 0.875000 0.650000
s 0
f 9/15/7 10/16/7 12/17/7 11/18/7
f 17/19/8 16/20/8 15/21/8 11/18/8 12/17/8 18/22/8 19/23/8 20/24/8
f 18/22/8 12/17/8 16/20/8 17/19/8
f 15/21/9 16/20/9 14/25/9 13/26/9
f 10/27/10 9/28/10 13/26/10 14/25/10 22/29/10 24/30/10 23/31/10 21/32/10
f 22/29/10 14/25/10 10/27/10 21/32/10
f 11/33/11 15/21/11 13/26/11 9/34/11
f 16/20/12 12/35/12 10/36/12 14/25/12
f 23/37/9 19/38/9 18/39/9 21/40/9
f 20/41/7 24/42/7 22/43/7 17/44/7
f 18/45/11 17/44/11 22/43/11 21/46/11
f 24/42/12 20/41/12 19/47/12 23/48/12
o 立方体.002
v 19.828541 1.000000 1.000000
v 19.828541 23.000000 1.000000
v 19.828541 1.000000 -1.000000
v 19.828541 23.000000 -1.000000
v 59.828541 1.000000 1.000000
v 59.828541 23.000000 1.000000
v 59.828541 1.000000 -1.000000
v 59.828541 23.000000 -1.000000
v 49.828541 20.000000 -1.000000
v 29.828541 20.000000 -1.000000
v 29.828541 4.000000 -1.000000
v 49.828541 4.000000 -1.000000
v 29.828541 20.000000 1.000000
v 49.828541 20.000000 1.000000
v 29.828541 4.000000 1.000000
v 49.828541 4.000000 1.000000
vn -1.0000 -0.0000 -0.0000
vn -0.0000 -0.0000 -1.0000
vn 1.0000 -0.0000 -0.0000
vn -0.0000 -0.0000 1.0000
vn -0.0000 -1.0000 -0.0000
vn -0.0000 1.0000 -0.0000
vt 0.375000 0.000000
vt 0.625000 0.000000
vt 0.625000 0.250000
vt 0.375000 0.250000
vt 0.590909 0.437500
vt 0.625000 0.500000
vt 0.375000 0.500000
vt 0.590909 0.312500
vt 0.409091 0.312500
vt 0.409091 0.437500
vt 0.625000 0.750000
vt 0.375000 0.750000
vt 0.625000 1.000000
vt 0.375000 1.000000
vt 0.590909 0.812500
vt 0.409091 0.812500
vt 0.409091 0.937500
vt 0.590909 0.937500
vt 0.125000 0.500000
vt 0.125000 0.750000
vt 0.875000 0.500000
vt 0.875000 0.750000
vt 0.625000 0.100000
vt 0.625000 0.150000
vt 0.375000 0.150000
vt 0.375000 0.100000
vt 0.625000 0.600000
vt 0.625000 0.650000
vt 0.375000 0.650000
vt 0.375000 0.600000
vt 0.125000 0.600000
vt 0.125000 0.650000
vt 0.875000 0.600000
vt 0.875000 0.650000
s 0
f 25/49/13 26/50/13 28/51/13 27/52/13
f 33/53/14 32/54/14 31/55/14 27/52/14 28/51/14 34/56/14 35/57/14 36/58/14
f 34/56/14 28/51/14 32/54/14 33/53/14
f 31/55/15 32/54/15 30/59/15 29/60/15
f 26/61/16 25/62/16 29/60/16 30/59/16 38/63/16 40/64/16 39/65/16 37/66/16
f 38/63/16 30/59/16 26/61/16 37/66/16
f 27/67/17 31/55/17 29/60/17 25/68/17
f 32/54/18 28/69/18 26/70/18 30/59/18
f 39/71/15 35/72/15 34/73/15 37/74/15
f 36/75/13 40/76/13 38/77/13 33/78/13
f 34/79/17 33/78/17 38/77/17 37/80/17
f 40/76/18 36/75/18 35/81/18 39/82/18
o 立方体.003
v -2.001427 1.000000 -34.648514
v -2.001427 23.000000 -34.648514
v -2.001427 1.000000 -36.648514
v -2.001427 23.000000 -36.648514
v 37.998573 1.000000 -34.648514
v 37.998573 23.000000 -34.648514
v 37.998573 1.000000 -36.648514
v 37.998573 23.000000 -36.648514
v 27.998573 20.000000 -36.648514
v 7.998573 20.000000 -36.648514
v 7.998573 4.000000 -36.648514
v 27.998573 4.000000 -36.648514
v 7.998573 20.000000 -34.648514
v 27.998573 20.000000 -34.648514
v 7.998573 4.000000 -34.648514
v 27.998573 4.000000 -34.648514
vn -1.0000 -0.0000 -0.0000
vn -0.0000 -0.0000 -1.0000
vn 1.0000 -0.0000 -0.0000
vn -0.0000 -0.0000 1.0000
vn -0.0000 -1.0000 -0.0000
vn -0.0000 1.0000 -0.0000
vt 0.375000 0.000000
vt 0.625000 0.000000
vt 0.625000 0.250000
vt 0.375000 0.250000
vt 0.590909 0.437500
vt 0.625000 0.500000
vt 0.375000 0.500000
vt 0.590909 0.312500
vt 0.409091 0.312500
vt 0.409091 0.437500
vt 0.625000 0.750000
vt 0.375000 0.750000
vt 0.625000 1.000000
vt 0.375000 1.000000
vt 0.590909 0.812500
vt 0.409091 0.812500
vt 0.409091 0.937500
vt 0.590909 0.937500
vt 0.125000 0.500000
vt 0.125000 0.750000
vt 0.875000 0.500000
vt 0.875000 0.750000
vt 0.625000 0.100000
vt 0.625000 0.150000
vt 0.375000 0.150000
vt 0.375000 0.100000
vt 0.625000 0.600000
vt 0.625000 0.650000
vt 0.375000 0.650000
vt 0.375000 0.600000
vt 0.125000 0.600000
vt 0.125000 0.650000
vt 0.875000 0.600000
vt 0.875000 0.650000
s 0
f 41/83/19 42/84/19 44/85/19 43/86/19
f 49/87/20 48/88/20 47/89/20 43/86/20 44/85/20 50/90/20 51/91/20 52/92/20
f 50/90/20 44/85/20 48/88/20 49/87/20
f 47/89/21 48/88/21 46/93/21 45/94/21
f 42/95/22 41/96/22 45/94/22 46/93/22 54/97/22 56/98/22 55/99/22 53/100/22
f 54/97/22 46/93/22 42/95/22 53/100/22
f 43/101/23 47/89/23 45/94/23 41/102/23
f 48/88/24 44/103/24 42/104/24 46/93/24
f 55/105/21 51/106/21 50/107/21 53/108/21
f 52/109/19 56/110/19 54/111/19 49/112/19
f 50/113/23 49/112/23 54/111/23 53/114/23
f 56/110/24 52/109/24 51/115/24 55/116/24
o 立方体.004
v -42.129036 1.000000 -34.648514
v -42.129036 23.000000 -34.648514
v -42.129036 1.000000 -36.648514
v -42.129036 23.000000 -36.648514
v -2.129036 1.000000 -34.648514
v -2.129036 23.000000 -34.648514
v -2.129036 1.000000 -36.648514
v -2.129036 23.000000 -36.648514
v -12.129036 20.000000 -36.648514
v -32.129036 20.000000 -36.648514
v -32.129036 4.000000 -36.648514
v -12.129036 4.000000 -36.648514
v -32.129036 20.000000 -34.648514
v -12.129036 20.000000 -34.648514
v -32.129036 4.000000 -34.648514
v -12.129036 4.000000 -34.648514
vn -1.0000 -0.0000 -0.0000
vn -0.0000 -0.0000 -1.0000
vn 1.0000 -0.0000 -0.0000
vn -0.0000 -0.0000 1.0000
vn -0.0000 -1.0000 -0.0000
vn -0.0000 1.0000 -0.0000
vt 0.375000 0.000000
vt 0.625000 0.000000
vt 0.625000 0.250000
vt 0.375000 0.250000
vt 0.590909 0.437500
vt 0.625000 0.500000
vt 0.375000 0.500000
vt 0.590909 0.312500
vt 0.409091 0.312500
vt 0.409091 0.437500
vt 0.625000 0.750000
vt 0.375000 0.750000
vt 0.625000 1.000000
vt 0.375000 1.000000
vt 0.590909 0.812500
vt 0.409091 0.812500
vt 0.409091 0.937500
vt 0.590909 0.937500
vt 0.125000 0.500000
vt 0.125000 0.750000
vt 0.875000 0.500000
vt 0.875000 0.750000
vt 0.625000 0.100000
vt 0.625000 0.150000
vt 0.375000 0.150000
vt 0.375000 0.100000
vt 0.625000 0.600000
vt 0.625000 0.650000
vt 0.375000 0.650000
vt 0.375000 0.600000
vt 0.125000 0.600000
vt 0.125000 0.650000
vt 0.875000 0.600000
vt 0.875000 0.650000
s 0
f 57/117/25 58/118/25 60/119/25 59/120/25
f 65/121/26 64/122/26 63/123/26 59/120/26 60/119/26 66/124/26 67/125/26 68/126/26
f 66/124/26 60/119/26 64/122/26 65/121/26
f 63/123/27 64/122/27 62/127/27 61/128/27
f 58/129/28 57/130/28 61/128/28 62/127/28 70/131/28 72/132/28 71/133/28 69/134/28
f 70/131/28 62/127/28 58/129/28 69/134/28
f 59/135/29 63/123/29 61/128/29 57/136/29
f 64/122/30 60/137/30 58/138/30 62/127/30
f 71/139/27 67/140/27 66/141/27 69/142/27
f 68/143/25 72/144/25 70/145/25 65/146/25
f 66/147/29 65/146/29 70/145/29 69/148/29
f 72/144/30 68/143/30 67/149/30 71/150/30
o 立方体.005
v -20.093708 23.036865 1.000000
v -20.093708 45.036865 1.000000
v -20.093708 23.036865 -1.000000
v -20.093708 45.036865 -1.000000
v 19.906292 23.036865 1.000000
v 19.906292 45.036865 1.000000
v 19.906292 23.036865 -1.000000
v 19.906292 45.036865 -1.000000
v 9.906292 42.036865 -1.000000
v -10.093708 42.036865 -1.000000
v -10.093708 26.036865 -1.000000
v 9.906292 26.036865 -1.000000
v -10.093708 42.036865 1.000000
v 9.906292 42.036865 1.000000
v -10.093708 26.036865 1.000000
v 9.906292 26.036865 1.000000
vn -1.0000 -0.0000 -0.0000
vn -0.0000 -0.0000 -1.0000
vn 1.0000 -0.0000 -0.0000
vn -0.0000 -0.0000 1.0000
vn -0.0000 -1.0000 -0.0000
vn -0.0000 1.0000 -0.0000
vt 0.375000 0.000000
vt 0.625000 0.000000
vt 0.625000 0.250000
vt 0.375000 0.250000
vt 0.590909 0.437500
vt 0.625000 0.500000
vt 0.375000 0.500000
vt 0.590909 0.312500
vt 0.409091 0.312500
vt 0.409091 0.437500
vt 0.625000 0.750000
vt 0.375000 0.750000
vt 0.625000 1.000000
vt 0.375000 1.000000
vt 0.590909 0.812500
vt 0.409091 0.812500
vt 0.409091 0.937500
vt 0.590909 0.937500
vt 0.125000 0.500000
vt 0.125000 0.750000
vt 0.875000 0.500000
vt 0.875000 0.750000
vt 0.625000 0.100000
vt 0.625000 0.150000
vt 0.375000 0.150000
vt 0.375000 0.100000
vt 0.625000 0.600000
vt 0.625000 0.650000
vt 0.375000 0.650000
vt 0.375000 0.600000
vt 0.125000 0.600000
vt 0.125000 0.650000
vt 0.875000 0.600000
vt 0.875000 0.650000
s 0
f 73/151/31 74/152/31 76/153/31 75/154/31
f 81/155/32 80/156/32 79/157/32 75/154/32 76/153/32 82/158/32 83/159/32 84/160/32
f 82/158/32 76/153/32 80/156/32 81/155/32
f 79/157/33 80/156/33 78/161/33 77/162/33
f 74/163/34 73/164/34 77/162/34 78/161/34 86/165/34 88/166/34 87/167/34 85/168/34
f 86/165/34 78/161/34 74/163/34 85/168/34
f 75/169/35 79/157/35 77/162/35 73/170/35
f 80/156/36 76/171/36 74/172/36 78/161/36
f 87/173/33 83/174/33 82/175/33 85/176/33
f 84/177/31 88/178/31 86/179/31 81/180/31
f 82/181/35 81/180/35 86/179/35 85/182/35
f 88/178/36 84/177/36 83/183/36 87/184/36
o 柱体
v -28.000000 1.000000 10.000000
v -28.000000 51.000000 10.000000
v -27.024548 1.000000 10.096073
v -27.024548 51.000000 10.096073
v -26.086582 1.000000 10.380602
v -26.086582 51.000000 10.380602
v -25.222149 1.000000 10.842651
v -25.222149 51.000000 10.842651
v -24.464466 1.000000 11.464466
v -24.464466 51.000000 11.464466
v -23.842651 1.000000 12.222149
v -23.842651 51.000000 12.222149
v -23.380602 1.000000 13.086582
v -23.380602 51.000000 13.086582
v -23.096073 1.000000 14.024549
v -23.096073 51.000000 14.024549
v -23.000000 1.000000 15.000000
v -23.000000 51.000000 15.000000
v -23.096073 1.000000 15.975451
v -23.096073 51.000000 15.975451
v -23.380602 1.000000 16.913418
v -23.380602 51.000000 16.913418
v -23.842651 1.000000 17.777851
v -23.842651 51.000000 17.777851
v -24.464466 1.000000 18.535534
v -24.464466 51.000000 18.535534
v -25.222149 1.000000 19.157349
v -25.222149 51.000000 19.157349
v -26.086582 1.000000 19.619398
v -26.086582 51.000000 19.619398
v -27.024548 1.000000 19.903927
v -27.024548 51.000000 19.903927
v -28.000000 1.000000 20.000000
v -28.000000 51.000000 20.000000
v -28.975452 1.000000 19.903927
v -28.975452 51.000000 19.903927
v -29.913418 1.000000 19.619398
v -29.913418 51.000000 19.619398
v -30.777851 1.000000 19.157349
v -30.777851 51.000000 19.157349
v -31.535534 1.000000 18.535534
v -31.535534 51.000000 18.535534
v -32.157349 1.000000 17.777851
v -32.157349 51.000000 17.777851
v -32.619396 1.000000 16.913418
v -32.619396 51.000000 16.913418
v -32.903927 1.000000 15.975451
v -32.903927 51.000000 15.975451
v -33.000000 1.000000 15.000000
v -33.000000 51.000000 15.000000
v -32.903927 1.000000 14.024549
v -32.903927 51.000000 14.024549
v -32.619396 1.000000 13.086582
v -32.619396 51.000000 13.086582
v -32.157349 1.000000 12.222149
v -32.157349 51.000000 12.222149
v -31.535534 1.000000 11.464466
v -31.535534 51.000000 11.464466
v -30.777851 1.000000 10.842651
v -30.777851 51.000000 10.842651
v -29.913418 1.000000 10.380602
v -29.913418 51.000000 10.380602
v -28.975452 1.000000 10.096073
v -28.975452 51.000000 10.096073
vn 0.0980 -0.0000 -0.9952
vn 0.2903 -0.0000 -0.9569
vn 0.4714 -0.0000 -0.8819
vn 0.6344 -0.0000 -0.7730
vn 0.7730 -0.0000 -0.6344
vn 0.8819 -0.0000 -0.4714
vn 0.9569 -0.0000 -0.2903
vn 0.9952 -0.0000 -0.0980
vn 0.9952 -0.0000 0.0980
vn 0.9569 -0.0000 0.2903
vn 0.8819 -0.0000 0.4714
vn 0.7730 -0.0000 0.6344
vn 0.6344 -0.0000 0.7730
vn 0.4714 -0.0000 0.8819
vn 0.2903 -0.0000 0.9569
vn 0.0980 -0.0000 0.9952
vn -0.0980 -0.0000 0.9952
vn -0.2903 -0.0000 0.9569
vn -0.4714 -0.0000 0.8819
vn -0.6344 -0.0000 0.7730
vn -0.7730 -0.0000 0.6344
vn -0.8819 -0.0000 0.4714
vn -0.9569 -0.0000 0.2903
vn -0.9952 -0.0000 0.0980
vn -0.9952 -0.0000 -0.0980
vn -0.9569 -0.0000 -0.2903
vn -0.8819 -0.0000 -0.4714
vn -0.7730 -0.0000 -0.6344
vn -0.6344 -0.0000 -0.7730
vn -0.4714 -0.0000 -0.8819
vn -0.0000 1.0000 -0.0000
vn -0.2903 -0.0000 -0.9569
vn -0.0980 -0.0000 -0.9952
vn -0.0000 -1.0000 -0.0000
vt 1.000000 0.500000
vt 1.000000 1.000000
vt 0.968750 1.000000
vt 0.968750 0.500000
vt 0.937500 1.000000
vt 0.937500 0.500000
vt 0.906250 1.000000
vt 0.906250 0.500000
vt 0.875000 1.000000
vt 0.875000 0.500000
vt 0.843750 1.000000
vt 0.843750 0.500000
vt 0.812500 1.000000
vt 0.812500 0.500000
vt 0.781250 1.000000
vt 0.781250 0.500000
vt 0.750000 1.000000
vt 0.750000 0.500000
vt 0.718750 1.000000
vt 0.718750 0.500000
vt 0.687500 1.000000
vt 0.687500 0.500000
vt 0.656250 1.000000
vt 0.656250 0.500000
vt 0.625000 1.000000
vt 0.625000 0.500000
vt 0.593750 1.000000
vt 0.593750 0.500000
vt 0.562500 1.000000
vt 0.562500 0.500000
vt 0.531250 1.000000
vt 0.531250 0.500000
vt 0.500000 1.000000
vt 0.500000 0.500000
vt 0.468750 1.000000
vt 0.468750 0.500000
vt 0.437500 1.000000
vt 0.437500 0.500000
vt 0.406250 1.000000
vt 0.406250 0.500000
vt 0.375000 1.000000
vt 0.375000 0.500000
vt 0.343750 1.000000
vt 0.343750 0.500000
vt 0.312500 1.000000
vt 0.312500 0.500000
vt 0.281250 1.000000
vt 0.281250 0.500000
vt 0.250000 1.000000
vt 0.250000 0.500000
vt 0.218750 1.000000
vt 0.218750 0.500000
vt 0.187500 1.000000
vt 0.187500 0.500000
vt 0.156250 1.000000
vt 0.156250 0.500000
vt 0.125000 1.000000
vt 0.125000 0.500000
vt 0.093750 1.000000
vt 0.093750 0.500000
vt 0.062500 1.000000
vt 0.062500 0.500000
vt 0.296822 0.485388
vt 0.250000 0.490000
vt 0.203178 0.485388
vt 0.158156 0.471731
vt 0.116663 0.449553
vt 0.080294 0.419706
vt 0.050447 0.383337
vt 0.028269 0.341844
vt 0.014612 0.296822
vt 0.010000 0.250000
vt 0.014612 0.203178
vt 0.028269 0.158156
vt 0.050447 0.116663
vt 0.080294 0.080294
vt 0.116663 0.050447
vt 0.158156 0.028269
vt 0.203178 0.014612
vt 0.250000 0.010000
vt 0.296822 0.014612
vt 0.341844 0.028269
vt 0.383337 0.050447
vt 0.419706 0.080294
vt 0.449553 0.116663
vt 0.471731 0.158156
vt 0.485388 0.203178
vt 0.490000 0.250000
vt 0.485388 0.296822
vt 0.471731 0.341844
vt 0.449553 0.383337
vt 0.419706 0.419706
vt 0.383337 0.449553
vt 0.341844 0.471731
vt 0.031250 1.000000
vt 0.031250 0.500000
vt 0.000000 1.000000
vt 0.000000 0.500000
vt 0.750000 0.490000
vt 0.796822 0.485388
vt 0.841844 0.471731
vt 0.883337 0.449553
vt 0.919706 0.419706
vt 0.949553 0.383337
vt 0.971731 0.341844
vt 0.985388 0.296822
vt 0.990000 0.250000
vt 0.985388 0.203178
vt 0.971731 0.158156
vt 0.949553 0.116663
vt 0.919706 0.080294
vt 0.883337 0.050447
vt 0.841844 0.028269
vt 0.796822 0.014612
vt 0.750000 0.010000
vt 0.703178 0.014612
vt 0.658156 0.028269
vt 0.616663 0.050447
vt 0.580294 0.080294
vt 0.550447 0.116663
vt 0.528269 0.158156
vt 0.514612 0.203178
vt 0.510000 0.250000
vt 0.514612 0.296822
vt 0.528269 0.341844
vt 0.550447 0.383337
vt 0.580294 0.419706
vt 0.616663 0.449553
vt 0.658156 0.471731
vt 0.703178 0.485388
s 0
f 89/185/37 90/186/37 92/187/37 91/188/37
f 91/188/38 92/187/38 94/189/38 93/190/38
f 93/190/39 94/189/39 96/191/39 95/192/39
f 95/192/40 96/191/40 98/193/40 97/194/40
f 97/194/41 98/193/41 100/195/41 99/196/41
f 99/196/42 100/195/42 102/197/42 101/198/42
f 101/198/43 102/197/43 104/199/43 103/200/43
f 103/200/44 104/199/44 106/201/44 105/202/44
f 105/202/45 106/201/45 108/203/45 107/204/45
f 107/204/46 108/203/46 110/205/46 109/206/46
f 109/206/47 110/205/47 112/207/47 111/208/47
f 111/208/48 112/207/48 114/209/48 113/210/48
f 113/210/49 114/209/49 116/211/49 115/212/49
f 115/212/50 116/211/50 118/213/50 117/214/50
f 117/214/51 118/213/51 120/215/51 119/216/51
f 119/216/52 120/215/52 122/217/52 121/218/52
f 121/218/53 122/217/53 124/219/53 123/220/53
f 123/220/54 124/219/54 126/221/54 125/222/54
f 125/222/55 126/221/55 128/223/55 127/224/55
f 127/224/56 128/223/56 130/225/56 129/226/56
f 129/226/57 130/225/57 132/227/57 131/228/57
f 131/228/58 132/227/58 134/229/58 133/230/58
f 133/230/59 134/229/59 136/231/59 135/232/59
f 135/232/60 136/231/60 138/233/60 137/234/60
f 137/234/61 138/233/61 140/235/61 139/236/61
f 139/236/62 140/235/62 142/237/62 141/238/62
f 141/238/63 142/237/63 144/239/63 143/240/63
f 143/240/64 144/239/64 146/241/64 145/242/64
f 145/242/65 146/241/65 148/243/65 147/244/65
f 147/244/66 148/243/66 150/245/66 149/246/66
f 92/247/67 90/248/67 152/249/67 150/250/67 148/251/67 146/252/67 144/253/67 142/254/67 140/255/67 138/256/67 136/257/67 134/258/67 132/259/67 130/260/67 128/261/67 126/262/67 124/263/67 122/264/67 120/265/67 118/266/67 116/267/67 114/268/67 112/269/67 110/270/67 108/271/67 106/272/67 104/273/67 102/274/67 100/275/67 98/276/67 96/277/67 94/278/67
f 149/246/68 150/245/68 152/279/68 151/280/68
f 151/280/69 152/279/69 90/281/69 89/282/69
f 89/283/70 91/284/70 93/285/70 95/286/70 97/287/70 99/288/70 101/289/70 103/290/70 105/291/70 107/292/70 109/293/70 111/294/70 113/295/70 115/296/70 117/297/70 119/298/70 121/299/70 123/300/70 125/301/70 127/302/70 129/303/70 131/304/70 133/305/70 135/306/70 137/307/70 139/308/70 141/309/70 143/310/70 145/311/70 147/312/70 149/313/70 151/314/70
o 柱体.001
v 73.000000 1.000000 10.000000
v 73.000000 51.000000 10.000000
v 73.975449 1.000000 10.096073
v 73.975449 51.000000 10.096073
v 74.913414 1.000000 10.380602
v 74.913414 51.000000 10.380602
v 75.777847 1.000000 10.842651
v 75.777847 51.000000 10.842651
v 76.535538 1.000000 11.464466
v 76.535538 51.000000 11.464466
v 77.157349 1.000000 12.222149
v 77.157349 51.000000 12.222149
v 77.619400 1.000000 13.086582
v 77.619400 51.000000 13.086582
v 77.903923 1.000000 14.024549
v 77.903923 51.000000 14.024549
v 78.000000 1.000000 15.000000
v 78.000000 51.000000 15.000000
v 77.903923 1.000000 15.975451
v 77.903923 51.000000 15.975451
v 77.619400 1.000000 16.913418
v 77.619400 51.000000 16.913418
v 77.157349 1.000000 17.777851
v 77.157349 51.000000 17.777851
v 76.535538 1.000000 18.535534
v 76.535538 51.000000 18.535534
v 75.777847 1.000000 19.157349
v 75.777847 51.000000 19.157349
v 74.913414 1.000000 19.619398
v 74.913414 51.000000 19.619398
v 73.975449 1.000000 19.903927
v 73.975449 51.000000 19.903927
v 73.000000 1.000000 20.000000
v 73.000000 51.000000 20.000000
v 72.024551 1.000000 19.903927
v 72.024551 51.000000 19.903927
v 71.086586 1.000000 19.619398
v 71.086586 51.000000 19.619398
v 70.222153 1.000000 19.157349
v 70.222153 51.000000 19.157349
v 69.464462 1.000000 18.535534
v 69.464462 51.000000 18.535534
v 68.842651 1.000000 17.777851
v 68.842651 51.000000 17.777851
v 68.380600 1.000000 16.913418
v 68.380600 51.000000 16.913418
v 68.096077 1.000000 15.975451
v 68.096077 51.000000 15.975451
v 68.000000 1.000000 15.000000
v 68.000000 51.000000 15.000000
v 68.096077 1.000000 14.024549
v 68.096077 51.000000 14.024549
v 68.380600 1.000000 13.086582
v 68.380600 51.000000 13.086582
v 68.842651 1.000000 12.222149
v 68.842651 51.000000 12.222149
v 69.464462 1.000000 11.464466
v 69.464462 51.000000 11.464466
v 70.222153 1.000000 10.842651
v 70.222153 51.000000 10.842651
v 71.086586 1.000000 10.380602
v 71.086586 51.000000 10.380602
v 72.024551 1.000000 10.096073
v 72.024551 51.000000 10.096073
vn 0.0980 -0.0000 -0.9952
vn 0.2903 -0.0000 -0.9569
vn 0.4714 -0.0000 -0.8819
vn 0.6344 -0.0000 -0.7730
vn 0.7730 -0.0000 -0.6344
vn 0.8819 -0.0000 -0.4714
vn 0.9569 -0.0000 -0.2903
vn 0.9952 -0.0000 -0.0980
vn 0.9952 -0.0000 0.0980
vn 0.9569 -0.0000 0.2903
vn 0.8819 -0.0000 0.4714
vn 0.7730 -0.0000 0.6344
vn 0.6344 -0.0000 0.7730
vn 0.4714 -0.0000 0.8819
vn 0.2903 -0.0000 0.9569
vn 0.0980 -0.0000 0.9952
vn -0.0980 -0.0000 0.9952
vn -0.2903 -0.0000 0.9569
vn -0.4714 -0.0000 0.8819
vn -0.6344 -0.0000 0.7730
vn -0.7730 -0.0000 0.6344
vn -0.8819 -0.0000 0.4714
vn -0.9569 -0.0000 0.2903
vn -0.9952 -0.0000 0.0980
vn -0.9952 -0.0000 -0.0980
vn -0.9569 -0.0000 -0.2903
vn -0.8819 -0.0000 -0.4714
vn -0.7730 -0.0000 -0.6344
vn -0.6344 -0.0000 -0.7730
vn -0.4714 -0.0000 -0.8819
vn -0.0000 1.0000 -0.0000
vn -0.2903 -0.0000 -0.9569
vn -0.0980 -0.0000 -0.9952
vn -0.0000 -1.0000 -0.0000
vt 1.000000 0.500000
vt 1.000000 1.000000
vt 0.968750 1.000000
vt 0.968750 0.500000
vt 0.937500 1.000000
vt 0.937500 0.500000
vt 0.906250 1.000000
vt 0.906250 0.500000
vt 0.875000 1.000000
vt 0.875000 0.500000
vt 0.843750 1.000000
vt 0.843750 0.500000
vt 0.812500 1.000000
vt 0.812500 0.500000
vt 0.781250 1.000000
vt 0.781250 0.500000
vt 0.750000 1.000000
vt 0.750000 0.500000
vt 0.718750 1.000000
vt 0.718750 0.500000
vt 0.687500 1.000000
vt 0.687500 0.500000
vt 0.656250 1.000000
vt 0.656250 0.500000
vt 0.625000 1.000000
vt 0.625000 0.500000
vt 0.593750 1.000000
vt 0.593750 0.500000
vt 0.562500 1.000000
vt 0.562500 0.500000
vt 0.531250 1.000000
vt 0.531250 0.500000
vt 0.500000 1.000000
vt 0.500000 0.500000
vt 0.468750 1.000000
vt 0.468750 0.500000
vt 0.437500 1.000000
vt 0.437500 0.500000
vt 0.406250 1.000000
vt 0.406250 0.500000
vt 0.375000 1.000000
vt 0.375000 0.500000
vt 0.343750 1.000000
vt 0.343750 0.500000
vt 0.312500 1.000000
vt 0.312500 0.500000
vt 0.281250 1.000000
vt 0.281250 0.500000
vt 0.250000 1.000000
vt 0.250000 0.500000
vt 0.218750 1.000000
vt 0.218750 0.500000
vt 0.187500 1.000000
vt 0.187500 0.500000
vt 0.156250 1.000000
vt 0.156250 0.500000
vt 0.125000 1.000000
vt 0.125000 0.500000
vt 0.093750 1.000000
vt 0.093750 0.500000
vt 0.062500 1.000000
vt 0.062500 0.500000
vt 0.296822 0.485388
vt 0.250000 0.490000
vt 0.203178 0.485388
vt 0.158156 0.471731
vt 0.116663 0.449553
vt 0.080294 0.419706
vt 0.050447 0.383337
vt 0.028269 0.341844
vt 0.014612 0.296822
vt 0.010000 0.250000
vt 0.014612 0.203178
vt 0.028269 0.158156
vt 0.050447 0.116663
vt 0.080294 0.080294
vt 0.116663 0.050447
vt 0.158156 0.028269
vt 0.203178 0.014612
vt 0.250000 0.010000
vt 0.296822 0.014612
vt 0.341844 0.028269
vt 0.383337 0.050447
vt 0.419706 0.080294
vt 0.449553 0.116663
vt 0.471731 0.158156
vt 0.485388 0.203178
vt 0.490000 0.250000
vt 0.485388 0.296822
vt 0.471731 0.341844
vt 0.449553 0.383337
vt 0.419706 0.419706
vt 0.383337 0.449553
vt 0.341844 0.471731
vt 0.031250 1.000000
vt 0.031250 0.500000
vt 0.000000 1.000000
vt 0.000000 0.500000
vt 0.750000 0.490000
vt 0.796822 0.485388
vt 0.841844 0.471731
vt 0.883337 0.449553
vt 0.919706 0.419706
vt 0.949553 0.383337
vt 0.971731 0.341844
vt 0.985388 0.296822
vt 0.990000 0.250000
vt 0.985388 0.203178
vt 0.971731 0.158156
vt 0.949553 0.116663
vt 0.919706 0.080294
vt 0.883337 0.050447
vt 0.841844 0.028269
vt 0.796822 0.014612
vt 0.750000 0.010000
vt 0.703178 0.014612
vt 0.658156 0.028269
vt 0.616663 0.050447
vt 0.580294 0.080294
vt 0.550447 0.116663
vt 0.528269 0.158156
vt 0.514612 0.203178
vt 0.510000 0.250000
vt 0.514612 0.296822
vt 0.528269 0.341844
vt 0.550447 0.383337
vt 0.580294 0.419706
vt 0.616663 0.449553
vt 0.658156 0.471731
vt 0.703178 0.485388
s 0
f 153/315/71 154/316/71 156/317/71 155/318/71
f 155/318/72 156/317/72 158/319/72 157/320/72
f 157/320/73 158/319/73 160/321/73 159/322/73
f 159/322/74 160/321/74 162/323/74 161/324/74
f 161/324/75 162/323/75 164/325/75 163/326/75
f 163/326/76 164/325/76 166/327/76 165/328/76
f 165/328/77 166/327/77 168/329/77 167/330/77
f 167/330/78 168/329/78 170/331/78 169/332/78
f 169/332/79 170/331/79 172/333/79 171/334/79
f 171/334/80 172/333/80 174/335/80 173/336/80
f 173/336/81 174/335/81 176/337/81 175/338/81
f 175/338/82 176/337/82 178/339/82 177/340/82
f 177/340/83 178/339/83 180/341/83 179/342/83
f 179/342/84 180/341/84 182/343/84 181/344/84
f 181/344/85 182/343/85 184/345/85 183/346/85
f 183/346/86 184/345/86 186/347/86 185/348/86
f 185/348/87 186/347/87 188/349/87 187/350/87
f 187/350/88 188/349/88 190/351/88 189/352/88
f 189/352/89 190/351/89 192/353/89 191/354/89
f 191/354/90 192/353/90 194/355/90 193/356/90
f 193/356/91 194/355/91 196/357/91 195/358/91
f 195/358/92 196/357/92 198/359/92 197/360/92
f 197/360/93 198/359/93 200/361/93 199/362/93
f 199/362/94 200/361/94 202/363/94 201/364/94
f 201/364/95 202/363/95 204/365/95 203/366/95
f 203/366/96 204/365/96 206/367/96 205/368/96
f 205/368/97 206/367/97 208/369/97 207/370/97
f 207/370/98 208/369/98 210/371/98 209/372/98
f 209/372/99 210/371/99 212/373/99 211/374/99
f 211/374/100 212/373/100 214/375/100 213/376/100
f 156/377/101 154/378/101 216/379/101 214/380/101 212/381/101 210/382/101 208/383/101 206/384/101 204/385/101 202/386/101 200/387/101 198/388/101 196/389/101 194/390/101 192/391/101 190/392/101 188/393/101 186/394/101 184/395/101 182/396/101 180/397/101 178/398/101 176/399/101 174/400/101 172/401/101 170/402/101 168/403/101 166/404/101 164/405/101 162/406/101 160/407/101 158/408/101
f 213/376/102 214/375/102 216/409/102 215/410/102
f 215/410/103 216/409/103 154/411/103 153/412/103
f 153/413/104 155/414/104 157/415/104 159/416/104 161/417/104 163/418/104 165/419/104 167/420/104 169/421/104 171/422/104 173/423/104 175/424/104 177/425/104 179/426/104 181/427/104 183/428/104 185/429/104 187/430/104 189/431/104 191/432/104 193/433/104 195/434/104 197/435/104 199/436/104 201/437/104 203/438/104 205/439/104 207/440/104 209/441/104 211/442/104 213/443/104 215/444/104
o 柱体.002
v 34.000000 1.000000 47.000000
v 34.000000 51.000000 47.000000
v 34.975452 1.000000 47.096073
v 34.975452 51.000000 47.096073
v 35.913418 1.000000 47.380604
v 35.913418 51.000000 47.380604
v 36.777851 1.000000 47.842651
v 36.777851 51.000000 47.842651
v 37.535534 1.000000 48.464466
v 37.535534 51.000000 48.464466
v 38.157349 1.000000 49.222149
v 38.157349 51.000000 49.222149
v 38.619396 1.000000 50.086582
v 38.619396 51.000000 50.086582
v 38.903927 1.000000 51.024548
v 38.903927 51.000000 51.024548
v 39.000000 1.000000 52.000000
v 39.000000 51.000000 52.000000
v 38.903927 1.000000 52.975452
v 38.903927 51.000000 52.975452
v 38.619396 1.000000 53.913418
v 38.619396 51.000000 53.913418
v 38.157349 1.000000 54.777851
v 38.157349 51.000000 54.777851
v 37.535534 1.000000 55.535534
v 37.535534 51.000000 55.535534
v 36.777851 1.000000 56.157349
v 36.777851 51.000000 56.157349
v 35.913418 1.000000 56.619396
v 35.913418 51.000000 56.619396
v 34.975452 1.000000 56.903927
v 34.975452 51.000000 56.903927
v 34.000000 1.000000 57.000000
v 34.000000 51.000000 57.000000
v 33.024548 1.000000 56.903927
v 33.024548 51.000000 56.903927
v 32.086582 1.000000 56.619396
v 32.086582 51.000000 56.619396
v 31.222149 1.000000 56.157349
v 31.222149 51.000000 56.157349
v 30.464466 1.000000 55.535534
v 30.464466 51.000000 55.535534
v 29.842651 1.000000 54.777851
v 29.842651 51.000000 54.777851
v 29.380602 1.000000 53.913418
v 29.380602 51.000000 53.913418
v 29.096073 1.000000 52.975452
v 29.096073 51.000000 52.975452
v 29.000000 1.000000 52.000000
v 29.000000 51.000000 52.000000
v 29.096073 1.000000 51.024548
v 29.096073 51.000000 51.024548
v 29.380602 1.000000 50.086582
v 29.380602 51.000000 50.086582
v 29.842651 1.000000 49.222149
v 29.842651 51.000000 49.222149
v 30.464466 1.000000 48.464466
v 30.464466 51.000000 48.464466
v 31.222149 1.000000 47.842651
v 31.222149 51.000000 47.842651
v 32.086582 1.000000 47.380604
v 32.086582 51.000000 47.380604
v 33.024548 1.000000 47.096073
v 33.024548 51.000000 47.096073
vn 0.0980 -0.0000 -0.9952
vn 0.2903 -0.0000 -0.9569
vn 0.4714 -0.0000 -0.8819
vn 0.6344 -0.0000 -0.7730
vn 0.7730 -0.0000 -0.6344
vn 0.8819 -0.0000 -0.4714
vn 0.9569 -0.0000 -0.2903
vn 0.9952 -0.0000 -0.0980
vn 0.9952 -0.0000 0.0980
vn 0.9569 -0.0000 0.2903
vn 0.8819 -0.0000 0.4714
vn 0.7730 -0.0000 0.6344
vn 0.6344 -0.0000 0.7730
vn 0.4714 -0.0000 0.8819
vn 0.2903 -0.0000 0.9569
vn 0.0980 -0.0000 0.9952
vn -0.0980 -0.0000 0.9952
vn -0.2903 -0.0000 0.9569
vn -0.4714 -0.0000 0.8819
vn -0.6344 -0.0000 0.7730
vn -0.7730 -0.0000 0.6344
vn -0.8819 -0.0000 0.4714
vn -0.9569 -0.0000 0.2903
vn -0.9952 -0.0000 0.0980
vn -0.9952 -0.0000 -0.0980
vn -0.9569 -0.0000 -0.2903
vn -0.8819 -0.0000 -0.4714
vn -0.7730 -0.0000 -0.6344
vn -0.6344 -0.0000 -0.7730
vn -0.4714 -0.0000 -0.8819
vn -0.0000 1.0000 -0.0000
vn -0.2903 -0.0000 -0.9569
vn -0.0980 -0.0000 -0.9952
vn -0.0000 -1.0000 -0.0000
vt 1.000000 0.500000
vt 1.000000 1.000000
vt 0.968750 1.000000
vt 0.968750 0.500000
vt 0.937500 1.000000
vt 0.937500 0.500000
vt 0.906250 1.000000
vt 0.906250 0.500000
vt 0.875000 1.000000
vt 0.875000 0.500000
vt 0.843750 1.000000
vt 0.843750 0.500000
vt 0.812500 1.000000
vt 0.812500 0.500000
vt 0.781250 1.000000
vt 0.781250 0.500000
vt 0.750000 1.000000
vt 0.750000 0.500000
vt 0.718750 1.000000
vt 0.718750 0.500000
vt 0.687500 1.000000
vt 0.687500 0.500000
vt 0.656250 1.000000
vt 0.656250 0.500000
vt 0.625000 1.000000
vt 0.625000 0.500000
vt 0.593750 1.000000
vt 0.593750 0.500000
vt 0.562500 1.000000
vt 0.562500 0.500000
vt 0.531250 1.000000
vt 0.531250 0.500000
vt 0.500000 1.000000
vt 0.500000 0.500000
vt 0.468750 1.000000
vt 0.468750 0.500000
vt 0.437500 1.000000
vt 0.437500 0.500000
vt 0.406250 1.000000
vt 0.406250 0.500000
vt 0.375000 1.000000
vt 0.375000 0.500000
vt 0.343750 1.000000
vt 0.343750 0.500000
vt 0.312500 1.000000
vt 0.312500 0.500000
vt 0.281250 1.000000
vt 0.281250 0.500000
vt 0.250000 1.000000
vt 0.250000 0.500000
vt 0.218750 1.000000
vt 0.218750 0.500000
vt 0.187500 1.000000
vt 0.187500 0.500000
vt 0.156250 1.000000
vt 0.156250 0.500000
vt 0.125000 1.000000
vt 0.125000 0.500000
vt 0.093750 1.000000
vt 0.093750 0.500000
vt 0.062500 1.000000
vt 0.062500 0.500000
vt 0.296822 0.485388
vt 0.250000 0.490000
vt 0.203178 0.485388
vt 0.158156 0.471731
vt 0.116663 0.449553
vt 0.080294 0.419706
vt 0.050447 0.383337
vt 0.028269 0.341844
vt 0.014612 0.296822
vt 0.010000 0.250000
vt 0.014612 0.203178
vt 0.028269 0.158156
vt 0.050447 0.116663
vt 0.080294 0.080294
vt 0.116663 0.050447
vt 0.158156 0.028269
vt 0.203178 0.014612
vt 0.250000 0.010000
vt 0.296822 0.014612
vt 0.341844 0.028269
vt 0.383337 0.050447
vt 0.419706 0.080294
vt 0.449553 0.116663
vt 0.471731 0.158156
vt 0.485388 0.203178
vt 0.490000 0.250000
vt 0.485388 0.296822
vt 0.471731 0.341844
vt 0.449553 0.383337
vt 0.419706 0.419706
vt 0.383337 0.449553
vt 0.341844 0.471731
vt 0.031250 1.000000
vt 0.031250 0.500000
vt 0.000000 1.000000
vt 0.000000 0.500000
vt 0.750000 0.490000
vt 0.796822 0.485388
vt 0.841844 0.471731
vt 0.883337 0.449553
vt 0.919706 0.419706
vt 0.949553 0.383337
vt 0.971731 0.341844
vt 0.985388 0.296822
vt 0.990000 0.250000
vt 0.985388 0.203178
vt 0.971731 0.158156
vt 0.949553 0.116663
vt 0.919706 0.080294
vt 0.883337 0.050447
vt 0.841844 0.028269
vt 0.796822 0.014612
vt 0.750000 0.010000
vt 0.703178 0.014612
vt 0.658156 0.028269
vt 0.616663 0.050447
vt 0.580294 0.080294
vt 0.550447 0.116663
vt 0.528269 0.158156
vt 0.514612 0.203178
vt 0.510000 0.250000
vt 0.514612 0.296822
vt 0.528269 0.341844
vt 0.550447 0.383337
vt 0.580294 0.419706
vt 0.616663 0.449553
vt 0.658156 0.471731
vt 0.703178 0.485388
s 0
f 217/445/105 218/446/105 220/447/105 219/448/105
f 219/448/106 220/447/106 222/449/106 221/450/106
f 221/450/107 222/449/107 224/451/107 223/452/107
f 223/452/108 224/451/108 226/453/108 225/454/108
f 225/454/109 226/453/109 228/455/109 227/456/109
f 227/456/110 228/455/110 230/457/110 229/458/110
f 229/458/111 230/457/111 232/459/111 231/460/111
f 231/460/112 232/459/112 234/461/112 233/462/112
f 233/462/113 234/461/113 236/463/113 235/464/113
f 235/464/114 236/463/114 238/465/114 237/466/114
f 237/466/115 238/465/115 240/467/115 239/468/115
f 239/468/116 240/467/116 242/469/116 241/470/116
f 241/470/117 242/469/117 244/471/117 243/472/117
f 243/472/118 244/471/118 246/473/118 245/474/118
f 245/474/119 246/473/119 248/475/119 247/476/119
f 247/476/120 248/475/120 250/477/120 249/478/120
f 249/478/121 250/477/121 252/479/121 251/480/121
f 251/480/122 252/479/122 254/481/122 253/482/122
f 253/482/123 254/481/123 256/483/123 255/484/123
f 255/484/124 256/483/124 258/485/124 257/486/124
f 257/486/125 258/485/125 260/487/125 259/488/125
f 259/488/126 260/487/126 262/489/126 261/490/126
f 261/490/127 262/489/127 264/491/127 263/492/127
f 263/492/128 264/491/128 266/493/128 265/494/128
f 265/494/129 266/493/129 268/495/129 267/496/129
f 267/496/130 268/495/130 270/497/130 269/498/130
f 269/498/131 270/497/131 272/499/131 271/500/131
f 271/500/132 272/499/132 274/501/132 273/502/132
f 273/502/133 274/501/133 276/503/133 275/504/133
f 275/504/134 276/503/134 278/505/134 277/506/134
f 220/507/135 218/508/135 280/509/135 278/510/135 276/511/135 274/512/135 272/513/135 270/514/135 268/515/135 266/516/135 264/517/135 262/518/135 260/519/135 258/520/135 256/521/135 254/522/135 252/523/135 250/524/135 248/525/135 246/526/135 244/527/135 242/528/135 240/529/135 238/530/135 236/531/135 234/532/135 232/533/135 230/534/135 228/535/135 226/536/135 224/537/135 222/538/135
f 277/506/136 278/505/136 280/539/136 279/540/136
f 279/540/137 280/539/137 218/541/137 217/542/137
f 217/543/138 219/544/138 221/545/138 223/546/138 225/547/138 227/548/138 229/549/138 231/550/138 233/551/138 235/552/138 237/553/138 239/554/138 241/555/138 243/556/138 245/557/138 247/558/138 249/559/138 251/560/138 253/561/138 255/562/138 257/563/138 259/564/138 261/565/138 263/566/138 265/567/138 267/568/138 269/569/138 271/570/138 273/571/138 275/572/138 277/573/138 279/574/138
o 柱体.003
v 25.000000 1.000000 -61.000000
v 25.000000 51.000000 -61.000000
v 25.975452 1.000000 -60.903927
v 25.975452 51.000000 -60.903927
v 26.913418 1.000000 -60.619396
v 26.913418 51.000000 -60.619396
v 27.777851 1.000000 -60.157349
v 27.777851 51.000000 -60.157349
v 28.535534 1.000000 -59.535534
v 28.535534 51.000000 -59.535534
v 29.157349 1.000000 -58.777851
v 29.157349 51.000000 -58.777851
v 29.619398 1.000000 -57.913418
v 29.619398 51.000000 -57.913418
v 29.903927 1.000000 -56.975452
v 29.903927 51.000000 -56.975452
v 30.000000 1.000000 -56.000000
v 30.000000 51.000000 -56.000000
v 29.903927 1.000000 -55.024548
v 29.903927 51.000000 -55.024548
v 29.619398 1.000000 -54.086582
v 29.619398 51.000000 -54.086582
v 29.157349 1.000000 -53.222149
v 29.157349 51.000000 -53.222149
v 28.535534 1.000000 -52.464466
v 28.535534 51.000000 -52.464466
v 27.777851 1.000000 -51.842651
v 27.777851 51.000000 -51.842651
v 26.913418 1.000000 -51.380604
v 26.913418 51.000000 -51.380604
v 25.975452 1.000000 -51.096073
v 25.975452 51.000000 -51.096073
v 25.000000 1.000000 -51.000000
v 25.000000 51.000000 -51.000000
v 24.024548 1.000000 -51.096073
v 24.024548 51.000000 -51.096073
v 23.086582 1.000000 -51.380604
v 23.086582 51.000000 -51.380604
v 22.222149 1.000000 -51.842651
v 22.222149 51.000000 -51.842651
v 21.464466 1.000000 -52.464466
v 21.464466 51.000000 -52.464466
v 20.842651 1.000000 -53.222149
v 20.842651 51.000000 -53.222149
v 20.380602 1.000000 -54.086582
v 20.380602 51.000000 -54.086582
v 20.096073 1.000000 -55.024548
v 20.096073 51.000000 -55.024548
v 20.000000 1.000000 -56.000000
v 20.000000 51.000000 -56.000000
v 20.096073 1.000000 -56.975452
v 20.096073 51.000000 -56.975452
v 20.380602 1.000000 -57.913418
v 20.380602 51.000000 -57.913418
v 20.842651 1.000000 -58.777851
v 20.842651 51.000000 -58.777851
v 21.464466 1.000000 -59.535534
v 21.464466 51.000000 -59.535534
v 22.222149 1.000000 -60.157349
v 22.222149 51.000000 -60.157349
v 23.086582 1.000000 -60.619396
v 23.086582 51.000000 -60.619396
v 24.024548 1.000000 -60.903927
v 24.024548 51.000000 -60.903927
vn 0.0980 -0.0000 -0.9952
vn 0.2903 -0.0000 -0.9569
vn 0.4714 -0.0000 -0.8819
vn 0.6344 -0.0000 -0.7730
vn 0.7730 -0.0000 -0.6344
vn 0.8819 -0.0000 -0.4714
vn 0.9569 -0.0000 -0.2903
vn 0.9952 -0.0000 -0.0980
vn 0.9952 -0.0000 0.0980
vn 0.9569 -0.0000 0.2903
vn 0.8819 -0.0000 0.4714
vn 0.7730 -0.0000 0.6344
vn 0.6344 -0.0000 0.7730
vn 0.4714 -0.0000 0.8819
vn 0.2903 -0.0000 0.9569
vn 0.0980 -0.0000 0.9952
vn -0.0980 -0.0000 0.9952
vn -0.2903 -0.0000 0.9569
vn -0.4714 -0.0000 0.8819
vn -0.6344 -0.0000 0.7730
vn -0.7730 -0.0000 0.6344
vn -0.8819 -0.0000 0.4714
vn -0.9569 -0.0000 0.2903
vn -0.9952 -0.0000 0.0980
vn -0.9952 -0.0000 -0.0980
vn -0.9569 -0.0000 -0.2903
vn -0.8819 -0.0000 -0.4714
vn -0.7730 -0.0000 -0.6344
vn -0.6344 -0.0000 -0.7730
vn -0.4714 -0.0000 -0.8819
vn -0.0000 1.0000 -0.0000
vn -0.2903 -0.0000 -0.9569
vn -0.0980 -0.0000 -0.9952
vn -0.0000 -1.0000 -0.0000
vt 1.000000 0.500000
vt 1.000000 1.000000
vt 0.968750 1.000000
vt 0.968750 0.500000
vt 0.937500 1.000000
vt 0.937500 0.500000
vt 0.906250 1.000000
vt 0.906250 0.500000
vt 0.875000 1.000000
vt 0.875000 0.500000
vt 0.843750 1.000000
vt 0.843750 0.500000
vt 0.812500 1.000000
vt 0.812500 0.500000
vt 0.781250 1.000000
vt 0.781250 0.500000
vt 0.750000 1.000000
vt 0.750000 0.500000
vt 0.718750 1.000000
vt 0.718750 0.500000
vt 0.687500 1.000000
vt 0.687500 0.500000
vt 0.656250 1.000000
vt 0.656250 0.500000
vt 0.625000 1.000000
vt 0.625000 0.500000
vt 0.593750 1.000000
vt 0.593750 0.500000
vt 0.562500 1.000000
vt 0.562500 0.500000
vt 0.531250 1.000000
vt 0.531250 0.500000
vt 0.500000 1.000000
vt 0.500000 0.500000
vt 0.468750 1.000000
vt 0.468750 0.500000
vt 0.437500 1.000000
vt 0.437500 0.500000
vt 0.406250 1.000000
vt 0.406250 0.500000
vt 0.375000 1.000000
vt 0.375000 0.500000
vt 0.343750 1.000000
vt 0.343750 0.500000
vt 0.312500 1.000000
vt 0.312500 0.500000
vt 0.281250 1.000000
vt 0.281250 0.500000
vt 0.250000 1.000000
vt 0.250000 0.500000
vt 0.218750 1.000000
vt 0.218750 0.500000
vt 0.187500 1.000000
vt 0.187500 0.500000
vt 0.156250 1.000000
vt 0.156250 0.500000
vt 0.125000 1.000000
vt 0.125000 0.500000
vt 0.093750 1.000000
vt 0.093750 0.500000
vt 0.062500 1.000000
vt 0.062500 0.500000
vt 0.296822 0.485388
vt 0.250000 0.490000
vt 0.203178 0.485388
vt 0.158156 0.471731
vt 0.116663 0.449553
vt 0.080294 0.419706
vt 0.050447 0.383337
vt 0.028269 0.341844
vt 0.014612 0.296822
vt 0.010000 0.250000
vt 0.014612 0.203178
vt 0.028269 0.158156
vt 0.050447 0.116663
vt 0.080294 0.080294
vt 0.116663 0.050447
vt 0.158156 0.028269
vt 0.203178 0.014612
vt 0.250000 0.010000
vt 0.296822 0.014612
vt 0.341844 0.028269
vt 0.383337 0.050447
vt 0.419706 0.080294
vt 0.449553 0.116663
vt 0.471731 0.158156
vt 0.485388 0.203178
vt 0.490000 0.250000
vt 0.485388 0.296822
vt 0.471731 0.341844
vt 0.449553 0.383337
vt 0.419706 0.419706
vt 0.383337 0.449553
vt 0.341844 0.471731
vt 0.031250 1.000000
vt 0.031250 0.500000
vt 0.000000 1.000000
vt 0.000000 0.500000
vt 0.750000 0.490000
vt 0.796822 0.485388
vt 0.841844 0.471731
vt 0.883337 0.449553
vt 0.919706 0.419706
vt 0.949553 0.383337
vt 0.971731 0.341844
vt 0.985388 0.296822
vt 0.990000 0.250000
vt 0.985388 0.203178
vt 0.971731 0.158156
vt 0.949553 0.116663
vt 0.919706 0.080294
vt 0.883337 0.050447
vt 0.841844 0.028269
vt 0.796822 0.014612
vt 0.750000 0.010000
vt 0.703178 0.014612
vt 0.658156 0.028269
vt 0.616663 0.050447
vt 0.580294 0.080294
vt 0.550447 0.116663
vt 0.528269 0.158156
vt 0.514612 0.203178
vt 0.510000 0.250000
vt 0.514612 0.296822
vt 0.528269 0.341844
vt 0.550447 0.383337
vt 0.580294 0.419706
vt 0.616663 0.449553
vt 0.658156 0.471731
vt 0.703178 0.485388
s 0
f 281/575/139 282/576/139 284/577/139 283/578/139
f 283/578/140 284/577/140 286/579/140 285/580/140
f 285/580/141 286/579/141 288/581/141 287/582/141
f 287/582/142 288/581/142 290/583/142 289/584/142
f 289/584/143 290/583/143 292/585/143 291/586/143
f 291/586/144 292/585/144 294/587/144 293/588/144
f 293/588/145 294/587/145 296/589/145 295/590/145
f 295/590/146 296/589/146 298/591/146 297/592/146
f 297/592/147 298/591/147 300/593/147 299/594/147
f 299/594/148 300/593/148 302/595/148 301/596/148
f 301/596/149 302/595/149 304/597/149 303/598/149
f 303/598/150 304/597/150 306/599/150 305/600/150
f 305/600/151 306/599/151 308/601/151 307/602/151
f 307/602/152 308/601/152 310/603/152 309/604/152
f 309/604/153 310/603/153 312/605/153 311/606/153
f 311/606/154 312/605/154 314/607/154 313/608/154
f 313/608/155 314/607/155 316/609/155 315/610/155
f 315/610/156 316/609/156 318/611/156 317/612/156
f 317/612/157 318/611/157 320/613/157 319/614/157
f 319/614/158 320/613/158 322/615/158 321/616/158
f 321/616/159 322/615/159 324/617/159 323/618/159
f 323/618/160 324/617/160 326/619/160 325/620/160
f 325/620/161 326/619/161 328/621/161 327/622/161
f 327/622/162 328/621/162 330/623/162 329/624/162
f 329/624/163 330/623/163 332/625/163 331/626/163
f 331/626/164 332/625/164 334/627/164 333/628/164
f 333/628/165 334/627/165 336/629/165 335/630/165
f 335/630/166 336/629/166 338/631/166 337/632/166
f 337/632/167 338/631/167 340/633/167 339/634/167
f 339/634/168 340/633/168 342/635/168 341/636/168
f 284/637/169 282/638/169 344/639/169 342/640/169 340/641/169 338/642/169 336/643/169 334/644/169 332/645/169 330/646/169 328/647/169 326/648/169 324/649/169 322/650/169 320/651/169 318/652/169 316/653/169 314/654/169 312/655/169 310/656/169 308/657/169 306/658/169 304/659/169 302/660/169 300/661/169 298/662/169 296/663/169 294/664/169 292/665/169 290/666/169 288/667/169 286/668/169
f 341/636/170 342/635/170 344/669/170 343/670/170
f 343/670/171 344/669/171 282/671/171 281/672/171
f 281/673/172 283/674/172 285/675/172 287/676/172 289/677/172 291/678/172 293/679/172 295/680/172 297/681/172 299/682/172 301/683/172 303/684/172 305/685/172 307/686/172 309/687/172 311/688/172 313/689/172 315/690/172 317/691/172 319/692/172 321/693/172 323/694/172 325/695/172 327/696/172 329/697/172 331/698/172 333/699/172 335/700/172 337/701/172 339/702/172 341/703/172 343/704/172
o 柱体.004
v -28.000000 1.000000 -61.000000
v -28.000000 51.000000 -61.000000
v -27.024548 1.000000 -60.903927
v -27.024548 51.000000 -60.903927
v -26.086582 1.000000 -60.619396
v -26.086582 51.000000 -60.619396
v -25.222149 1.000000 -60.157349
v -25.222149 51.000000 -60.157349
v -24.464466 1.000000 -59.535534
v -24.464466 51.000000 -59.535534
v -23.842651 1.000000 -58.777851
v -23.842651 51.000000 -58.777851
v -23.380602 1.000000 -57.913418
v -23.380602 51.000000 -57.913418
v -23.096073 1.000000 -56.975452
v -23.096073 51.000000 -56.975452
v -23.000000 1.000000 -56.000000
v -23.000000 51.000000 -56.000000
v -23.096073 1.000000 -55.024548
v -23.096073 51.000000 -55.024548
v -23.380602 1.000000 -54.086582
v -23.380602 51.000000 -54.086582
v -23.842651 1.000000 -53.222149
v -23.842651 51.000000 -53.222149
v -24.464466 1.000000 -52.464466
v -24.464466 51.000000 -52.464466
v -25.222149 1.000000 -51.842651
v -25.222149 51.000000 -51.842651
v -26.086582 1.000000 -51.380604
v -26.086582 51.000000 -51.380604
v -27.024548 1.000000 -51.096073
v -27.024548 51.000000 -51.096073
v -28.000000 1.000000 -51.000000
v -28.000000 51.000000 -51.000000
v -28.975452 1.000000 -51.096073
v -28.975452 51.000000 -51.096073
v -29.913418 1.000000 -51.380604
v -29.913418 51.000000 -51.380604
v -30.777851 1.000000 -51.842651
v -30.777851 51.000000 -51.842651
v -31.535534 1.000000 -52.464466
v -31.535534 51.000000 -52.464466
v -32.157349 1.000000 -53.222149
v -32.157349 51.000000 -53.222149
v -32.619396 1.000000 -54.086582
v -32.619396 51.000000 -54.086582
v -32.903927 1.000000 -55.024548
v -32.903927 51.000000 -55.024548
v -33.000000 1.000000 -56.000000
v -33.000000 51.000000 -56.000000
v -32.903927 1.000000 -56.975452
v -32.903927 51.000000 -56.975452
v -32.619396 1.000000 -57.913418
v -32.619396 51.000000 -57.913418
v -32.157349 1.000000 -58.777851
v -32.157349 51.000000 -58.777851
v -31.535534 1.000000 -59.535534
v -31.535534 51.000000 -59.535534
v -30.777851 1.000000 -60.157349
v -30.777851 51.000000 -60.157349
v -29.913418 1.000000 -60.619396
v -29.913418 51.000000 -60.619396
v -28.975452 1.000000 -60.903927
v -28.975452 51.000000 -60.903927
vn 0.0980 -0.0000 -0.9952
vn 0.2903 -0.0000 -0.9569
vn 0.4714 -0.0000 -0.8819
vn 0.6344 -0.0000 -0.7730
vn 0.7730 -0.0000 -0.6344
vn 0.8819 -0.0000 -0.4714
vn 0.9569 -0.0000 -0.2903
vn 0.9952 -0.0000 -0.0980
vn 0.9952 -0.0000 0.0980
vn 0.9569 -0.0000 0.2903
vn 0.8819 -0.0000 0.4714
vn 0.7730 -0.0000 0.6344
vn 0.6344 -0.0000 0.7730
vn 0.4714 -0.0000 0.8819
vn 0.2903 -0.0000 0.9569
vn 0.0980 -0.0000 0.9952
vn -0.0980 -0.0000 0.9952
vn -0.2903 -0.0000 0.9569
vn -0.4714 -0.0000 0.8819
vn -0.6344 -0.0000 0.7730
vn -0.7730 -0.0000 0.6344
vn -0.8819 -0.0000 0.4714
vn -0.9569 -0.0000 0.2903
vn -0.9952 -0.0000 0.0980
vn -0.9952 -0.0000 -0.0980
vn -0.9569 -0.0000 -0.2903
vn -0.8819 -0.0000 -0.4714
vn -0.7730 -0.0000 -0.6344
vn -0.6344 -0.0000 -0.7730
vn -0.4714 -0.0000 -0.8819
vn -0.0000 1.0000 -0.0000
vn -0.2903 -0.0000 -0.9569
vn -0.0980 -0.0000 -0.9952
vn -0.0000 -1.0000 -0.0000
vt 1.000000 0.500000
vt 1.000000 1.000000
vt 0.968750 1.000000
vt 0.968750 0.500000
vt 0.937500 1.000000
vt 0.937500 0.500000
vt 0.906250 1.000000
vt 0.906250 0.500000
vt 0.875000 1.000000
vt 0.875000 0.500000
vt 0.843750 1.000000
vt 0.843750 0.500000
vt 0.812500 1.000000
vt 0.812500 0.500000
vt 0.781250 1.000000
vt 0.781250 0.500000
vt 0.750000 1.000000
vt 0.750000 0.500000
vt 0.718750 1.000000
vt 0.718750 0.500000
vt 0.687500 1.000000
vt 0.687500 0.500000
vt 0.656250 1.000000
vt 0.656250 0.500000
vt 0.625000 1.000000
vt 0.625000 0.500000
vt 0.593750 1.000000
vt 0.593750 0.500000
vt 0.562500 1.000000
vt 0.562500 0.500000
vt 0.531250 1.000000
vt 0.531250 0.500000
vt 0.500000 1.000000
vt 0.500000 0.500000
vt 0.468750 1.000000
vt 0.468750 0.500000
vt 0.437500 1.000000
vt 0.437500 0.500000
vt 0.406250 1.000000
vt 0.406250 0.500000
vt 0.375000 1.000000
vt 0.375000 0.500000
vt 0.343750 1.000000
vt 0.343750 0.500000
vt 0.312500 1.000000
vt 0.312500 0.500000
vt 0.281250 1.000000
vt 0.281250 0.500000
vt 0.250000 1.000000
vt 0.250000 0.500000
vt 0.218750 1.000000
vt 0.218750 0.500000
vt 0.187500 1.000000
vt 0.187500 0.500000
vt 0.156250 1.000000
vt 0.156250 0.500000
vt 0.125000 1.000000
vt 0.125000 0.500000
vt 0.093750 1.000000
vt 0.093750 0.500000
vt 0.062500 1.000000
vt 0.062500 0.500000
vt 0.296822 0.485388
vt 0.250000 0.490000
vt 0.203178 0.485388
vt 0.158156 0.471731
vt 0.116663 0.449553
vt 0.080294 0.419706
vt 0.050447 0.383337
vt 0.028269 0.341844
vt 0.014612 0.296822
vt 0.010000 0.250000
vt 0.014612 0.203178
vt 0.028269 0.158156
vt 0.050447 0.116663
vt 0.080294 0.080294
vt 0.116663 0.050447
vt 0.158156 0.028269
vt 0.203178 0.014612
vt 0.250000 0.010000
vt 0.296822 0.014612
vt 0.341844 0.028269
vt 0.383337 0.050447
vt 0.419706 0.080294
vt 0.449553 0.116663
vt 0.471731 0.158156
vt 0.485388 0.203178
vt 0.490000 0.250000
vt 0.485388 0.296822
vt 0.471731 0.341844
vt 0.449553 0.383337
vt 0.419706 0.419706
vt 0.383337 0.449553
vt 0.341844 0.471731
vt 0.031250 1.000000
vt 0.031250 0.500000
vt 0.000000 1.000000
vt 0.000000 0.500000
vt 0.750000 0.490000
vt 0.796822 0.485388
vt 0.841844 0.471731
vt 0.883337 0.449553
vt 0.919706 0.419706
vt 0.949553 0.383337
vt 0.971731 0.341844
vt 0.985388 0.296822
vt 0.990000 0.250000
vt 0.985388 0.203178
vt 0.971731 0.158156
vt 0.949553 0.116663
vt 0.919706 0.080294
vt 0.883337 0.050447
vt 0.841844 0.028269
vt 0.796822 0.014612
vt 0.750000 0.010000
vt 0.703178 0.014612
vt 0.658156 0.028269
vt 0.616663 0.050447
vt 0.580294 0.080294
vt 0.550447 0.116663
vt 0.528269 0.158156
vt 0.514612 0.203178
vt 0.510000 0.250000
vt 0.514612 0.296822
vt 0.528269 0.341844
vt 0.550447 0.383337
vt 0.580294 0.419706
vt 0.616663 0.449553
vt 0.658156 0.471731
vt 0.703178 0.485388
s 0
f 345/705/173 346/706/173 348/707/173 347/708/173
f 347/708/174 348/707/174 350/709/174 349/710/174
f 349/710/175 350/709/175 352/711/175 351/712/175
f 351/712/176 352/711/176 354/713/176 353/714/176
f 353/714/177 354/713/177 356/715/177 355/716/177
f 355/716/178 356/715/178 358/717/178 357/718/178
f 357/718/179 358/717/179 360/719/179 359/720/179
f 359/720/180 360/719/180 362/721/180 361/722/180
f 361/722/181 362/721/181 364/723/181 363/724/181
f 363/724/182 364/723/182 366/725/182 365/726/182
f 365/726/183 366/725/183 368/727/183 367/728/183
f 367/728/184 368/727/184 370/729/184 369/730/184
f 369/730/185 370/729/185 372/731/185 371/732/185
f 371/732/186 372/731/186 374/733/186 373/734/186
f 373/734/187 374/733/187 376/735/187 375/736/187
f 375/736/188 376/735/188 378/737/188 377/738/188
f 377/738/189 378/737/189 380/739/189 379/740/189
f 379/740/190 380/739/190 382/741/190 381/742/190
f 381/742/191 382/741/191 384/743/191 383/744/191
f 383/744/192 384/743/192 386/745/192 385/746/192
f 385/746/193 386/745/193 388/747/193 387/748/193
f 387/748/194 388/747/194 390/749/194 389/750/194
f 389/750/195 390/749/195 392/751/195 391/752/195
f 391/752/196 392/751/196 394/753/196 393/754/196
f 393/754/197 394/753/197 396/755/197 395/756/197
f 395/756/198 396/755/198 398/757/198 397/758/198
f 397/758/199 398/757/199 400/759/199 399/760/199
f 399/760/200 400/759/200 402/761/200 401/762/200
f 401/762/201 402/761/201 404/763/201 403/764/201
f 403/764/202 404/763/202 406/765/202 405/766/202
f 348/767/203 346/768/203 408/769/203 406/770/203 404/771/203 402/772/203 400/773/203 398/774/203 396/775/203 394/776/203 392/777/203 390/778/203 388/779/203 386/780/203 384/781/203 382/782/203 380/783/203 378/784/203 376/785/203 374/786/203 372/787/203 370/788/203 368/789/203 366/790/203 364/791/203 362/792/203 360/793/203 358/794/203 356/795/203 354/796/203 352/797/203 350/798/203
f 405/766/204 406/765/204 408/799/204 407/800/204
f 407/800/205 408/799/205 346/801/205 345/802/205
f 345/803/206 347/804/206 349/805/206 351/806/206 353/807/206 355/808/206 357/809/206 359/810/206 361/811/206 363/812/206 365/813/206 367/814/206 369/815/206 371/816/206 373/817/206 375/818/206 377/819/206 379/820/206 381/821/206 383/822/206 385/823/206 387/824/206 389/825/206 391/826/206 393/827/206 395/828/206 397/829/206 399/830/206 401/831/206 403/832/206 405/833/206 407/834/206
o 柱体.005
v -71.000000 1.000000 -25.000000
v -71.000000 51.000000 -25.000000
v -70.024551 1.000000 -24.903927
v -70.024551 51.000000 -24.903927
v -69.086586 1.000000 -24.619398
v -69.086586 51.000000 -24.619398
v -68.222153 1.000000 -24.157349
v -68.222153 51.000000 -24.157349
v -67.464462 1.000000 -23.535534
v -67.464462 51.000000 -23.535534
v -66.842651 1.000000 -22.777851
v -66.842651 51.000000 -22.777851
v -66.380600 1.000000 -21.913418
v -66.380600 51.000000 -21.913418
v -66.096077 1.000000 -20.975452
v -66.096077 51.000000 -20.975452
v -66.000000 1.000000 -20.000000
v -66.000000 51.000000 -20.000000
v -66.096077 1.000000 -19.024548
v -66.096077 51.000000 -19.024548
v -66.380600 1.000000 -18.086582
v -66.380600 51.000000 -18.086582
v -66.842651 1.000000 -17.222149
v -66.842651 51.000000 -17.222149
v -67.464462 1.000000 -16.464466
v -67.464462 51.000000 -16.464466
v -68.222153 1.000000 -15.842651
v -68.222153 51.000000 -15.842651
v -69.086586 1.000000 -15.380602
v -69.086586 51.000000 -15.380602
v -70.024551 1.000000 -15.096073
v -70.024551 51.000000 -15.096073
v -71.000000 1.000000 -15.000000
v -71.000000 51.000000 -15.000000
v -71.975449 1.000000 -15.096073
v -71.975449 51.000000 -15.096073
v -72.913414 1.000000 -15.380602
v -72.913414 51.000000 -15.380602
v -73.777847 1.000000 -15.842651
v -73.777847 51.000000 -15.842651
v -74.535538 1.000000 -16.464466
v -74.535538 51.000000 -16.464466
v -75.157349 1.000000 -17.222149
v -75.157349 51.000000 -17.222149
v -75.619400 1.000000 -18.086582
v -75.619400 51.000000 -18.086582
v -75.903923 1.000000 -19.024548
v -75.903923 51.000000 -19.024548
v -76.000000 1.000000 -20.000000
v -76.000000 51.000000 -20.000000
v -75.903923 1.000000 -20.975452
v -75.903923 51.000000 -20.975452
v -75.619400 1.000000 -21.913418
v -75.619400 51.000000 -21.913418
v -75.157349 1.000000 -22.777851
v -75.157349 51.000000 -22.777851
v -74.535538 1.000000 -23.535534
v -74.535538 51.000000 -23.535534
v -73.777847 1.000000 -24.157349
v -73.777847 51.000000 -24.157349
v -72.913414 1.000000 -24.619398
v -72.913414 51.000000 -24.619398
v -71.975449 1.000000 -24.903927
v -71.975449 51.000000 -24.903927
vn 0.0980 -0.0000 -0.9952
vn 0.2903 -0.0000 -0.9569
vn 0.4714 -0.0000 -0.8819
vn 0.6344 -0.0000 -0.7730
vn 0.7730 -0.0000 -0.6344
vn 0.8819 -0.0000 -0.4714
vn 0.9569 -0.0000 -0.2903
vn 0.9952 -0.0000 -0.0980
vn 0.9952 -0.0000 0.0980
vn 0.9569 -0.0000 0.2903
vn 0.8819 -0.0000 0.4714
vn 0.7730 -0.0000 0.6344
vn 0.6344 -0.0000 0.7730
vn 0.4714 -0.0000 0.8819
vn 0.2903 -0.0000 0.9569
vn 0.0980 -0.0000 0.9952
vn -0.0980 -0.0000 0.9952
vn -0.2903 -0.0000 0.9569
vn -0.4714 -0.0000 0.8819
vn -0.6344 -0.0000 0.7730
vn -0.7730 -0.0000 0.6344
vn -0.8819 -0.0000 0.4714
vn -0.9569 -0.0000 0.2903
vn -0.9952 -0.0000 0.0980
vn -0.9952 -0.0000 -0.0980
vn -0.9569 -0.0000 -0.2903
vn -0.8819 -0.0000 -0.4714
vn -0.7730 -0.0000 -0.6344
vn -0.6344 -0.0000 -0.7730
vn -0.4714 -0.0000 -0.8819
vn -0.0000 1.0000 -0.0000
vn -0.2903 -0.0000 -0.9569
vn -0.0980 -0.0000 -0.9952
vn -0.0000 -1.0000 -0.0000
vt 1.000000 0.500000
vt 1.000000 1.000000
vt 0.968750 1.000000
vt 0.968750 0.500000
vt 0.937500 1.000000
vt 0.937500 0.500000
vt 0.906250 1.000000
vt 0.906250 0.500000
vt 0.875000 1.000000
vt 0.875000 0.500000
vt 0.843750 1.000000
vt 0.843750 0.500000
vt 0.812500 1.000000
vt 0.812500 0.500000
vt 0.781250 1.000000
vt 0.781250 0.500000
vt 0.750000 1.000000
vt 0.750000 0.500000
vt 0.718750 1.000000
vt 0.718750 0.500000
vt 0.687500 1.000000
vt 0.687500 0.500000
vt 0.656250 1.000000
vt 0.656250 0.500000
vt 0.625000 1.000000
vt 0.625000 0.500000
vt 0.593750 1.000000
vt 0.593750 0.500000
vt 0.562500 1.000000
vt 0.562500 0.500000
vt 0.531250 1.000000
vt 0.531250 0.500000
vt 0.500000 1.000000
vt 0.500000 0.500000
vt 0.468750 1.000000
vt 0.468750 0.500000
vt 0.437500 1.000000
vt 0.437500 0.500000
vt 0.406250 1.000000
vt 0.406250 0.500000
vt 0.375000 1.000000
vt 0.375000 0.500000
vt 0.343750 1.000000
vt 0.343750 0.500000
vt 0.312500 1.000000
vt 0.312500 0.500000
vt 0.281250 1.000000
vt 0.281250 0.500000
vt 0.250000 1.000000
vt 0.250000 0.500000
vt 0.218750 1.000000
vt 0.218750 0.500000
vt 0.187500 1.000000
vt 0.187500 0.500000
vt 0.156250 1.000000
vt 0.156250 0.500000
vt 0.125000 1.000000
vt 0.125000 0.500000
vt 0.093750 1.000000
vt 0.093750 0.500000
vt 0.062500 1.000000
vt 0.062500 0.500000
vt 0.296822 0.485388
vt 0.250000 0.490000
vt 0.203178 0.485388
vt 0.158156 0.471731
vt 0.116663 0.449553
vt 0.080294 0.419706
vt 0.050447 0.383337
vt 0.028269 0.341844
vt 0.014612 0.296822
vt 0.010000 0.250000
vt 0.014612 0.203178
vt 0.028269 0.158156
vt 0.050447 0.116663
vt 0.080294 0.080294
vt 0.116663 0.050447
vt 0.158156 0.028269
vt 0.203178 0.014612
vt 0.250000 0.010000
vt 0.296822 0.014612
vt 0.341844 0.028269
vt 0.383337 0.050447
vt 0.419706 0.080294
vt 0.449553 0.116663
vt 0.471731 0.158156
vt 0.485388 0.203178
vt 0.490000 0.250000
vt 0.485388 0.296822
vt 0.471731 0.341844
vt 0.449553 0.383337
vt 0.419706 0.419706
vt 0.383337 0.449553
vt 0.341844 0.471731
vt 0.031250 1.000000
vt 0.031250 0.500000
vt 0.000000 1.000000
vt 0.000000 0.500000
vt 0.750000 0.490000
vt 0.796822 0.485388
vt 0.841844 0.471731
vt 0.883337 0.449553
vt 0.919706 0.419706
vt 0.949553 0.383337
vt 0.971731 0.341844
vt 0.985388 0.296822
vt 0.990000 0.250000
vt 0.985388 0.203178
vt 0.971731 0.158156
vt 0.949553 0.116663
vt 0.919706 0.080294
vt 0.883337 0.050447
vt 0.841844 0.028269
vt 0.796822 0.014612
vt 0.750000 0.010000
vt 0.703178 0.014612
vt 0.658156 0.028269
vt 0.616663 0.050447
vt 0.580294 0.080294
vt 0.550447 0.116663
vt 0.528269 0.158156
vt 0.514612 0.203178
vt 0.510000 0.250000
vt 0.514612 0.296822
vt 0.528269 0.341844
vt 0.550447 0.383337
vt 0.580294 0.419706
vt 0.616663 0.449553
vt 0.658156 0.471731
vt 0.703178 0.485388
s 0
f 409/835/207 410/836/207 412/837/207 411/838/207
f 411/838/208 412/837/208 414/839/208 413/840/208
f 413/840/209 414/839/209 416/841/209 415/842/209
f 415/842/210 416/841/210 418/843/210 417/844/210
f 417/844/211 418/843/211 420/845/211 419/846/211
f 419/846/212 420/845/212 422/847/212 421/848/212
f 421/848/213 422/847/213 424/849/213 423/850/213
f 423/850/214 424/849/214 426/851/214 425/852/214
f 425/852/215 426/851/215 428/853/215 427/854/215
f 427/854/216 428/853/216 430/855/216 429/856/216
f 429/856/217 430/855/217 432/857/217 431/858/217
f 431/858/218 432/857/218 434/859/218 433/860/218
f 433/860/219 434/859/219 436/861/219 435/862/219
f 435/862/220 436/861/220 438/863/220 437/864/220
f 437/864/221 438/863/221 440/865/221 439/866/221
f 439/866/222 440/865/222 442/867/222 441/868/222
f 441/868/223 442/867/223 444/869/223 443/870/223
f 443/870/224 444/869/224 446/871/224 445/872/224
f 445/872/225 446/871/225 448/873/225 447/874/225
f 447/874/226 448/873/226 450/875/226 449/876/226
f 449/876/227 450/875/227 452/877/227 451/878/227
f 451/878/228 452/877/228 454/879/228 453/880/228
f 453/880/229 454/879/229 456/881/229 455/882/229
f 455/882/230 456/881/230 458/883/230 457/884/230
f 457/884/231 458/883/231 460/885/231 459/886/231
f 459/886/232 460/885/232 462/887/232 461/888/232
f 461/888/233 462/887/233 464/889/233 463/890/233
f 463/890/234 464/889/234 466/891/234 465/892/234
f 465/892/235 466/891/235 468/893/235 467/894/235
f 467/894/236 468/893/236 470/895/236 469/896/236
f 412/897/237 410/898/237 472/899/237 470/900/237 468/901/237 466/902/237 464/903/237 462/904/237 460/905/237 458/906/237 456/907/237 454/908/237 452/909/237 450/910/237 448/911/237 446/912/237 444/913/237 442/914/237 440/915/237 438/916/237 436/917/237 434/918/237 432/919/237 430/920/237 428/921/237 426/922/237 424/923/237 422/924/237 420/925/237 418/926/237 416/927/237 414/928/237
f 469/896/238 470/895/238 472/929/238 471/930/238
f 471/930/239 472/929/239 410/931/239 409/932/239
f 409/933/240 411/934/240 413/935/240 415/936/240 417/937/240 419/938/240 421/939/240 423/940/240 425/941/240 427/942/240 429/943/240 431/944/240 433/945/240 435/946/240 437/947/240 439/948/240 441/949/240 443/950/240 445/951/240 447/952/240 449/953/240 451/954/240 453/955/240 455/956/240 457/957/240 459/958/240 461/959/240 463/960/240 465/961/240 467/962/240 469/963/240 471/964/240
o 柱体.006
v 69.000000 1.000000 -25.000000
v 69.000000 51.000000 -25.000000
v 69.975449 1.000000 -24.903927
v 69.975449 51.000000 -24.903927
v 70.913414 1.000000 -24.619398
v 70.913414 51.000000 -24.619398
v 71.777847 1.000000 -24.157349
v 71.777847 51.000000 -24.157349
v 72.535538 1.000000 -23.535534
v 72.535538 51.000000 -23.535534
v 73.157349 1.000000 -22.777851
v 73.157349 51.000000 -22.777851
v 73.619400 1.000000 -21.913418
v 73.619400 51.000000 -21.913418
v 73.903923 1.000000 -20.975452
v 73.903923 51.000000 -20.975452
v 74.000000 1.000000 -20.000000
v 74.000000 51.000000 -20.000000
v 73.903923 1.000000 -19.024548
v 73.903923 51.000000 -19.024548
v 73.619400 1.000000 -18.086582
v 73.619400 51.000000 -18.086582
v 73.157349 1.000000 -17.222149
v 73.157349 51.000000 -17.222149
v 72.535538 1.000000 -16.464466
v 72.535538 51.000000 -16.464466
v 71.777847 1.000000 -15.842651
v 71.777847 51.000000 -15.842651
v 70.913414 1.000000 -15.380602
v 70.913414 51.000000 -15.380602
v 69.975449 1.000000 -15.096073
v 69.975449 51.000000 -15.096073
v 69.000000 1.000000 -15.000000
v 69.000000 51.000000 -15.000000
v 68.024551 1.000000 -15.096073
v 68.024551 51.000000 -15.096073
v 67.086586 1.000000 -15.380602
v 67.086586 51.000000 -15.380602
v 66.222153 1.000000 -15.842651
v 66.222153 51.000000 -15.842651
v 65.464462 1.000000 -16.464466
v 65.464462 51.000000 -16.464466
v 64.842651 1.000000 -17.222149
v 64.842651 51.000000 -17.222149
v 64.380600 1.000000 -18.086582
v 64.380600 51.000000 -18.086582
v 64.096077 1.000000 -19.024548
v 64.096077 51.000000 -19.024548
v 64.000000 1.000000 -20.000000
v 64.000000 51.000000 -20.000000
v 64.096077 1.000000 -20.975452
v 64.096077 51.000000 -20.975452
v 64.380600 1.000000 -21.913418
v 64.380600 51.000000 -21.913418
v 64.842651 1.000000 -22.777851
v 64.842651 51.000000 -22.777851
v 65.464462 1.000000 -23.535534
v 65.464462 51.000000 -23.535534
v 66.222153 1.000000 -24.157349
v 66.222153 51.000000 -24.157349
v 67.086586 1.000000 -24.619398
v 67.086586 51.000000 -24.619398
v 68.024551 1.000000 -24.903927
v 68.024551 51.000000 -24.903927
vn 0.0980 -0.0000 -0.9952
vn 0.2903 -0.0000 -0.9569
vn 0.4714 -0.0000 -0.8819
vn 0.6344 -0.0000 -0.7730
vn 0.7730 -0.0000 -0.6344
vn 0.8819 -0.0000 -0.4714
vn 0.9569 -0.0000 -0.2903
vn 0.9952 -0.0000 -0.0980
vn 0.9952 -0.0000 0.0980
vn 0.9569 -0.0000 0.2903
vn 0.8819 -0.0000 0.4714
vn 0.7730 -0.0000 0.6344
vn 0.6344 -0.0000 0.7730
vn 0.4714 -0.0000 0.8819
vn 0.2903 -0.0000 0.9569
vn 0.0980 -0.0000 0.9952
vn -0.0980 -0.0000 0.9952
vn -0.2903 -0.0000 0.9569
vn -0.4714 -0.0000 0.8819
vn -0.6344 -0.0000 0.7730
vn -0.7730 -0.0000 0.6344
vn -0.8819 -0.0000 0.4714
vn -0.9569 -0.0000 0.2903
vn -0.9952 -0.0000 0.0980
vn -0.9952 -0.0000 -0.0980
vn -0.9569 -0.0000 -0.2903
vn -0.8819 -0.0000 -0.4714
vn -0.7730 -0.0000 -0.6344
vn -0.6344 -0.0000 -0.7730
vn -0.4714 -0.0000 -0.8819
vn -0.0000 1.0000 -0.0000
vn -0.2903 -0.0000 -0.9569
vn -0.0980 -0.0000 -0.9952
vn -0.0000 -1.0000 -0.0000
vt 1.000000 0.500000
vt 1.000000 1.000000
vt 0.968750 1.000000
vt 0.968750 0.500000
vt 0.937500 1.000000
vt 0.937500 0.500000
vt 0.906250 1.000000
vt 0.906250 0.500000
vt 0.875000 1.000000
vt 0.875000 0.500000
vt 0.843750 1.000000
vt 0.843750 0.500000
vt 0.812500 1.000000
vt 0.812500 0.500000
vt 0.781250 1.000000
vt 0.781250 0.500000
vt 0.750000 1.000000
vt 0.750000 0.500000
vt 0.718750 1.000000
vt 0.718750 0.500000
vt 0.687500 1.000000
vt 0.687500 0.500000
vt 0.656250 1.000000
vt 0.656250 0.500000
vt 0.625000 1.000000
vt 0.625000 0.500000
vt 0.593750 1.000000
vt 0.593750 0.500000
vt 0.562500 1.000000
vt 0.562500 0.500000
vt 0.531250 1.000000
vt 0.531250 0.500000
vt 0.500000 1.000000
vt 0.500000 0.500000
vt 0.468750 1.000000
vt 0.468750 0.500000
vt 0.437500 1.000000
vt 0.437500 0.500000
vt 0.406250 1.000000
vt 0.406250 0.500000
vt 0.375000 1.000000
vt 0.375000 0.500000
vt 0.343750 1.000000
vt 0.343750 0.500000
vt 0.312500 1.000000
vt 0.312500 0.500000
vt 0.281250 1.000000
vt 0.281250 0.500000
vt 0.250000 1.000000
vt 0.250000 0.500000
vt 0.218750 1.000000
vt 0.218750 0.500000
vt 0.187500 1.000000
vt 0.187500 0.500000
vt 0.156250 1.000000
vt 0.156250 0.500000
vt 0.125000 1.000000
vt 0.125000 0.500000
vt 0.093750 1.000000
vt 0.093750 0.500000
vt 0.062500 1.000000
vt 0.062500 0.500000
vt 0.296822 0.485388
vt 0.250000 0.490000
vt 0.203178 0.485388
vt 0.158156 0.471731
vt 0.116663 0.449553
vt 0.080294 0.419706
vt 0.050447 0.383337
vt 0.028269 0.341844
vt 0.014612 0.296822
vt 0.010000 0.250000
vt 0.014612 0.203178
vt 0.028269 0.158156
vt 0.050447 0.116663
vt 0.080294 0.080294
vt 0.116663 0.050447
vt 0.158156 0.028269
vt 0.203178 0.014612
vt 0.250000 0.010000
vt 0.296822 0.014612
vt 0.341844 0.028269
vt 0.383337 0.050447
vt 0.419706 0.080294
vt 0.449553 0.116663
vt 0.471731 0.158156
vt 0.485388 0.203178
vt 0.490000 0.250000
vt 0.485388 0.296822
vt 0.471731 0.341844
vt 0.449553 0.383337
vt 0.419706 0.419706
vt 0.383337 0.449553
vt 0.341844 0.471731
vt 0.031250 1.000000
vt 0.031250 0.500000
vt 0.000000 1.000000
vt 0.000000 0.500000
vt 0.750000 0.490000
vt 0.796822 0.485388
vt 0.841844 0.471731
vt 0.883337 0.449553
vt 0.919706 0.419706
vt 0.949553 0.383337
vt 0.971731 0.341844
vt 0.985388 0.296822
vt 0.990000 0.250000
vt 0.985388 0.203178
vt 0.971731 0.158156
vt 0.949553 0.116663
vt 0.919706 0.080294
vt 0.883337 0.050447
vt 0.841844 0.028269
vt 0.796822 0.014612
vt 0.750000 0.010000
vt 0.703178 0.014612
vt 0.658156 0.028269
vt 0.616663 0.050447
vt 0.580294 0.080294
vt 0.550447 0.116663
vt 0.528269 0.158156
vt 0.514612 0.203178
vt 0.510000 0.250000
vt 0.514612 0.296822
vt 0.528269 0.341844
vt 0.550447 0.383337
vt 0.580294 0.419706
vt 0.616663 0.449553
vt 0.658156 0.471731
vt 0.703178 0.485388
s 0
f 473/965/241 474/966/241 476/967/241 475/968/241
f 475/968/242 476/967/242 478/969/242 477/970/242
f 477/970/243 478/969/243 480/971/243 479/972/243
f 479/972/244 480/971/244 482/973/244 481/974/244
f 481/974/245 482/973/245 484/975/245 483/976/245
f 483/976/246 484/975/246 486/977/246 485/978/246
f 485/978/247 486/977/247 488/979/247 487/980/247
f 487/980/248 488/979/248 490/981/248 489/982/248
f 489/982/249 490/981/249 492/983/249 491/984/249
f 491/984/250 492/983/250 494/985/250 493/986/250
f 493/986/251 494/985/251 496/987/251 495/988/251
f 495/988/252 496/987/252 498/989/252 497/990/252
f 497/990/253 498/989/253 500/991/253 499/992/253
f 499/992/254 500/991/254 502/993/254 501/994/254
f 501/994/255 502/993/255 504/995/255 503/996/255
f 503/996/256 504/995/256 506/997/256 505/998/256
f 505/998/257 506/997/257 508/999/257 507/1000/257
f 507/1000/258 508/999/258 510/1001/258 509/1002/258
f 509/1002/259 510/1001/259 512/1003/259 511/1004/259
f 511/1004/260 512/1003/260 514/1005/260 513/1006/260
f 513/1006/261 514/1005/261 516/1007/261 515/1008/261
f 515/1008/262 516/1007/262 518/1009/262 517/1010/262
f 517/1010/263 518/1009/263 520/1011/263 519/1012/263
f 519/1012/264 520/1011/264 522/1013/264 521/1014/264
f 521/1014/265 522/1013/265 524/1015/265 523/1016/265
f 523/1016/266 524/1015/266 526/1017/266 525/1018/266
f 525/1018/267 526/1017/267 528/1019/267 527/1020/267
f 527/1020/268 528/1019/268 530/1021/268 529/1022/268
f 529/1022/269 530/1021/269 532/1023/269 531/1024/269
f 531/1024/270 532/1023/270 534/1025/270 533/1026/270
f 476/1027/271 474/1028/271 536/1029/271 534/1030/271 532/1031/271 530/1032/271 528/1033/271 526/1034/271 524/1035/271 522/1036/271 520/1037/271 518/1038/271 516/1039/271 514/1040/271 512/1041/271 510/1042/271 508/1043/271 506/1044/271 504/1045/271 502/1046/271 500/1047/271 498/1048/271 496/1049/271 494/1050/271 492/1051/271 490/1052/271 488/1053/271 486/1054/271 484/1055/271 482/1056/271 480/1057/271 478/1058/271
f 533/1026/272 534/1025/272 536/1059/272 535/1060/272
f 535/1060/273 536/1059/273 474/1061/273 473/1062/273
f 473/1063/274 475/1064/274 477/1065/274 479/1066/274 481/1067/274 483/1068/274 485/1069/274 487/1070/274 489/1071/274 491/1072/274 493/1073/274 495/1074/274 497/1075/274 499/1076/274 501/1077/274 503/1078/274 505/1079/274 507/1080/274 509/1081/274 511/1082/274 513/1083/274 515/1084/274 517/1085/274 519/1086/274 521/1087/274 523/1088/274 525/1089/274 527/1090/274 529/1091/274 531/1092/274 533/1093/274 535/1094/274
o 柱体.007
v -1.000000 1.000000 65.000000
v -1.000000 51.000000 65.000000
v -0.024548 1.000000 65.096077
v -0.024548 51.000000 65.096077
v 0.913417 1.000000 65.380600
v 0.913417 51.000000 65.380600
v 1.777851 1.000000 65.842651
v 1.777851 51.000000 65.842651
v 2.535534 1.000000 66.464462
v 2.535534 51.000000 66.464462
v 3.157348 1.000000 67.222153
v 3.157348 51.000000 67.222153
v 3.619398 1.000000 68.086586
v 3.619398 51.000000 68.086586
v 3.903926 1.000000 69.024551
v 3.903926 51.000000 69.024551
v 4.000000 1.000000 70.000000
v 4.000000 51.000000 70.000000
v 3.903926 1.000000 70.975449
v 3.903926 51.000000 70.975449
v 3.619398 1.000000 71.913414
v 3.619398 51.000000 71.913414
v 3.157348 1.000000 72.777847
v 3.157348 51.000000 72.777847
v 2.535534 1.000000 73.535538
v 2.535534 51.000000 73.535538
v 1.777851 1.000000 74.157349
v 1.777851 51.000000 74.157349
v 0.913417 1.000000 74.619400
v 0.913417 51.000000 74.619400
v -0.024548 1.000000 74.903923
v -0.024548 51.000000 74.903923
v -1.000000 1.000000 75.000000
v -1.000000 51.000000 75.000000
v -1.975452 1.000000 74.903923
v -1.975452 51.000000 74.903923
v -2.913417 1.000000 74.619400
v -2.913417 51.000000 74.619400
v -3.777851 1.000000 74.157349
v -3.777851 51.000000 74.157349
v -4.535534 1.000000 73.535538
v -4.535534 51.000000 73.535538
v -5.157348 1.000000 72.777847
v -5.157348 51.000000 72.777847
v -5.619398 1.000000 71.913414
v -5.619398 51.000000 71.913414
v -5.903926 1.000000 70.975449
v -5.903926 51.000000 70.975449
v -6.000000 1.000000 70.000000
v -6.000000 51.000000 70.000000
v -5.903926 1.000000 69.024551
v -5.903926 51.000000 69.024551
v -5.619398 1.000000 68.086586
v -5.619398 51.000000 68.086586
v -5.157348 1.000000 67.222153
v -5.157348 51.000000 67.222153
v -4.535534 1.000000 66.464462
v -4.535534 51.000000 66.464462
v -3.777851 1.000000 65.842651
v -3.777851 51.000000 65.842651
v -2.913417 1.000000 65.380600
v -2.913417 51.000000 65.380600
v -1.975452 1.000000 65.096077
v -1.975452 51.000000 65.096077
vn 0.0980 -0.0000 -0.9952
vn 0.2903 -0.0000 -0.9569
vn 0.4714 -0.0000 -0.8819
vn 0.6344 -0.0000 -0.7730
vn 0.7730 -0.0000 -0.6344
vn 0.8819 -0.0000 -0.4714
vn 0.9569 -0.0000 -0.2903
vn 0.9952 -0.0000 -0.0980
vn 0.9952 -0.0000 0.0980
vn 0.9569 -0.0000 0.2903
vn 0.8819 -0.0000 0.4714
vn 0.7730 -0.0000 0.6344
vn 0.6344 -0.0000 0.7730
vn 0.4714 -0.0000 0.8819
vn 0.2903 -0.0000 0.9569
vn 0.0980 -0.0000 0.9952
vn -0.0980 -0.0000 0.9952
vn -0.2903 -0.0000 0.9569
vn -0.4714 -0.0000 0.8819
vn -0.6344 -0.0000 0.7730
vn -0.7730 -0.0000 0.6344
vn -0.8819 -0.0000 0.4714
vn -0.9569 -0.0000 0.2903
vn -0.9952 -0.0000 0.0980
vn -0.9952 -0.0000 -0.0980
vn -0.9569 -0.0000 -0.2903
vn -0.8819 -0.0000 -0.4714
vn -0.7730 -0.0000 -0.6344
vn -0.6344 -0.0000 -0.7730
vn -0.4714 -0.0000 -0.8819
vn -0.0000 1.0000 -0.0000
vn -0.2903 -0.0000 -0.9569
vn -0.0980 -0.0000 -0.9952
vn -0.0000 -1.0000 -0.0000
vt 1.000000 0.500000
vt 1.000000 1.000000
vt 0.968750 1.000000
vt 0.968750 0.500000
vt 0.937500 1.000000
vt 0.937500 0.500000
vt 0.906250 1.000000
vt 0.906250 0.500000
vt 0.875000 1.000000
vt 0.875000 0.500000
vt 0.843750 1.000000
vt 0.843750 0.500000
vt 0.812500 1.000000
vt 0.812500 0.500000
vt 0.781250 1.000000
vt 0.781250 0.500000
vt 0.750000 1.000000
vt 0.750000 0.500000
vt 0.718750 1.000000
vt 0.718750 0.500000
vt 0.687500 1.000000
vt 0.687500 0.500000
vt 0.656250 1.000000
vt 0.656250 0.500000
vt 0.625000 1.000000
vt 0.625000 0.500000
vt 0.593750 1.000000
vt 0.593750 0.500000
vt 0.562500 1.000000
vt 0.562500 0.500000
vt 0.531250 1.000000
vt 0.531250 0.500000
vt 0.500000 1.000000
vt 0.500000 0.500000
vt 0.468750 1.000000
vt 0.468750 0.500000
vt 0.437500 1.000000
vt 0.437500 0.500000
vt 0.406250 1.000000
vt 0.406250 0.500000
vt 0.375000 1.000000
vt 0.375000 0.500000
vt 0.343750 1.000000
vt 0.343750 0.500000
vt 0.312500 1.000000
vt 0.312500 0.500000
vt 0.281250 1.000000
vt 0.281250 0.500000
vt 0.250000 1.000000
vt 0.250000 0.500000
vt 0.218750 1.000000
vt 0.218750 0.500000
vt 0.187500 1.000000
vt 0.187500 0.500000
vt 0.156250 1.000000
vt 0.156250 0.500000
vt 0.125000 1.000000
vt 0.125000 0.500000
vt 0.093750 1.000000
vt 0.093750 0.500000
vt 0.062500 1.000000
vt 0.062500 0.500000
vt 0.296822 0.485388
vt 0.250000 0.490000
vt 0.203178 0.485388
vt 0.158156 0.471731
vt 0.116663 0.449553
vt 0.080294 0.419706
vt 0.050447 0.383337
vt 0.028269 0.341844
vt 0.014612 0.296822
vt 0.010000 0.250000
vt 0.014612 0.203178
vt 0.028269 0.158156
vt 0.050447 0.116663
vt 0.080294 0.080294
vt 0.116663 0.050447
vt 0.158156 0.028269
vt 0.203178 0.014612
vt 0.250000 0.010000
vt 0.296822 0.014612
vt 0.341844 0.028269
vt 0.383337 0.050447
vt 0.419706 0.080294
vt 0.449553 0.116663
vt 0.471731 0.158156
vt 0.485388 0.203178
vt 0.490000 0.250000
vt 0.485388 0.296822
vt 0.471731 0.341844
vt 0.449553 0.383337
vt 0.419706 0.419706
vt 0.383337 0.449553
vt 0.341844 0.471731
vt 0.031250 1.000000
vt 0.031250 0.500000
vt 0.000000 1.000000
vt 0.000000 0.500000
vt 0.750000 0.490000
vt 0.796822 0.485388
vt 0.841844 0.471731
vt 0.883337 0.449553
vt 0.919706 0.419706
vt 0.949553 0.383337
vt 0.971731 0.341844
vt 0.985388 0.296822
vt 0.990000 0.250000
vt 0.985388 0.203178
vt 0.971731 0.158156
vt 0.949553 0.116663
vt 0.919706 0.080294
vt 0.883337 0.050447
vt 0.841844 0.028269
vt 0.796822 0.014612
vt 0.750000 0.010000
vt 0.703178 0.014612
vt 0.658156 0.028269
vt 0.616663 0.050447
vt 0.580294 0.080294
vt 0.550447 0.116663
vt 0.528269 0.158156
vt 0.514612 0.203178
vt 0.510000 0.250000
vt 0.514612 0.296822
vt 0.528269 0.341844
vt 0.550447 0.383337
vt 0.580294 0.419706
vt 0.616663 0.449553
vt 0.658156 0.471731
vt 0.703178 0.485388
s 0
f 537/1095/275 538/1096/275 540/1097/275 539/1098/275
f 539/1098/276 540/1097/276 542/1099/276 541/1100/276
f 541/1100/277 542/1099/277 544/1101/277 543/1102/277
f 543/1102/278 544/1101/278 546/1103/278 545/1104/278
f 545/1104/279 546/1103/279 548/1105/279 547/1106/279
f 547/1106/280 548/1105/280 550/1107/280 549/1108/280
f 549/1108/281 550/1107/281 552/1109/281 551/1110/281
f 551/1110/282 552/1109/282 554/1111/282 553/1112/282
f 553/1112/283 554/1111/283 556/1113/283 555/1114/283
f 555/1114/284 556/1113/284 558/1115/284 557/1116/284
f 557/1116/285 558/1115/285 560/1117/285 559/1118/285
f 559/1118/286 560/1117/286 562/1119/286 561/1120/286
f 561/1120/287 562/1119/287 564/1121/287 563/1122/287
f 563/1122/288 564/1121/288 566/1123/288 565/1124/288
f 565/1124/289 566/1123/289 568/1125/289 567/1126/289
f 567/1126/290 568/1125/290 570/1127/290 569/1128/290
f 569/1128/291 570/1127/291 572/1129/291 571/1130/291
f 571/1130/292 572/1129/292 574/1131/292 573/1132/292
f 573/1132/293 574/1131/293 576/1133/293 575/1134/293
f 575/1134/294 576/1133/294 578/1135/294 577/1136/294
f 577/1136/295 578/1135/295 580/1137/295 579/1138/295
f 579/1138/296 580/1137/296 582/1139/296 581/1140/296
f 581/1140/297 582/1139/297 584/1141/297 583/1142/297
f 583/1142/298 584/1141/298 586/1143/298 585/1144/298
f 585/1144/299 586/1143/299 588/1145/299 587/1146/299
f 587/1146/300 588/1145/300 590/1147/300 589/1148/300
f 589/1148/301 590/1147/301 592/1149/301 591/1150/301
f 591/1150/302 592/1149/302 594/1151/302 593/1152/302
f 593/1152/303 594/1151/303 596/1153/303 595/1154/303
f 595/1154/304 596/1153/304 598/1155/304 597/1156/304
f 540/1157/305 538/1158/305 600/1159/305 598/1160/305 596/1161/305 594/1162/305 592/1163/305 590/1164/305 588/1165/305 586/1166/305 584/1167/305 582/1168/305 580/1169/305 578/1170/305 576/1171/305 574/1172/305 572/1173/305 570/1174/305 568/1175/305 566/1176/305 564/1177/305 562/1178/305 560/1179/305 558/1180/305 556/1181/305 554/1182/305 552/1183/305 550/1184/305 548/1185/305 546/1186/305 544/1187/305 542/1188/305
f 597/1156/306 598/1155/306 600/1189/306 599/1190/306
f 599/1190/307 600/1189/307 538/1191/307 537/1192/307
f 537/1193/308 539/1194/308 541/1195/308 543/1196/308 545/1197/308 547/1198/308 549/1199/308 551/1200/308 553/1201/308 555/1202/308 557/1203/308 559/1204/308 561/1205/308 563/1206/308 565/1207/308 567/1208/308 569/1209/308 571/1210/308 573/1211/308 575/1212/308 577/1213/308 579/1214/308 581/1215/308 583/1216/308 585/1217/308 587/1218/308 589/1219/308 591/1220/308 593/1221/308 595/1222/308 597/1223/308 599/1224/308
o 柱体.008
v -67.000000 1.000000 40.000000
v -67.000000 51.000000 40.000000
v -66.024551 1.000000 40.096073
v -66.024551 51.000000 40.096073
v -65.086586 1.000000 40.380604
v -65.086586 51.000000 40.380604
v -64.222153 1.000000 40.842651
v -64.222153 51.000000 40.842651
v -63.464466 1.000000 41.464466
v -63.464466 51.000000 41.464466
v -62.842651 1.000000 42.222149
v -62.842651 51.000000 42.222149
v -62.380604 1.000000 43.086582
v -62.380604 51.000000 43.086582
v -62.096073 1.000000 44.024548
v -62.096073 51.000000 44.024548
v -62.000000 1.000000 45.000000
v -62.000000 51.000000 45.000000
v -62.096073 1.000000 45.975452
v -62.096073 51.000000 45.975452
v -62.380604 1.000000 46.913418
v -62.380604 51.000000 46.913418
v -62.842651 1.000000 47.777851
v -62.842651 51.000000 47.777851
v -63.464466 1.000000 48.535534
v -63.464466 51.000000 48.535534
v -64.222153 1.000000 49.157349
v -64.222153 51.000000 49.157349
v -65.086586 1.000000 49.619396
v -65.086586 51.000000 49.619396
v -66.024551 1.000000 49.903927
v -66.024551 51.000000 49.903927
v -67.000000 1.000000 50.000000
v -67.000000 51.000000 50.000000
v -67.975449 1.000000 49.903927
v -67.975449 51.000000 49.903927
v -68.913414 1.000000 49.619396
v -68.913414 51.000000 49.619396
v -69.777847 1.000000 49.157349
v -69.777847 51.000000 49.157349
v -70.535538 1.000000 48.535534
v -70.535538 51.000000 48.535534
v -71.157349 1.000000 47.777851
v -71.157349 51.000000 47.777851
v -71.619400 1.000000 46.913418
v -71.619400 51.000000 46.913418
v -71.903923 1.000000 45.975452
v -71.903923 51.000000 45.975452
v -72.000000 1.000000 45.000000
v -72.000000 51.000000 45.000000
v -71.903923 1.000000 44.024548
v -71.903923 51.000000 44.024548
v -71.619400 1.000000 43.086582
v -71.619400 51.000000 43.086582
v -71.157349 1.000000 42.222149
v -71.157349 51.000000 42.222149
v -70.535538 1.000000 41.464466
v -70.535538 51.000000 41.464466
v -69.777847 1.000000 40.842651
v -69.777847 51.000000 40.842651
v -68.913414 1.000000 40.380604
v -68.913414 51.000000 40.380604
v -67.975449 1.000000 40.096073
v -67.975449 51.000000 40.096073
vn 0.0980 -0.0000 -0.9952
vn 0.2903 -0.0000 -0.9569
vn 0.4714 -0.0000 -0.8819
vn 0.6344 -0.0000 -0.7730
vn 0.7730 -0.0000 -0.6344
vn 0.8819 -0.0000 -0.4714
vn 0.9569 -0.0000 -0.2903
vn 0.9952 -0.0000 -0.0980
vn 0.9952 -0.0000 0.0980
vn 0.9569 -0.0000 0.2903
vn 0.8819 -0.0000 0.4714
vn 0.7730 -0.0000 0.6344
vn 0.6344 -0.0000 0.7730
vn 0.4714 -0.0000 0.8819
vn 0.2903 -0.0000 0.9569
vn 0.0980 -0.0000 0.9952
vn -0.0980 -0.0000 0.9952
vn -0.2903 -0.0000 0.9569
vn -0.4714 -0.0000 0.8819
vn -0.6344 -0.0000 0.7730
vn -0.7730 -0.0000 0.6344
vn -0.8819 -0.0000 0.4714
vn -0.9569 -0.0000 0.2903
vn -0.9952 -0.0000 0.0980
vn -0.9952 -0.0000 -0.0980
vn -0.9569 -0.0000 -0.2903
vn -0.8819 -0.0000 -0.4714
vn -0.7730 -0.0000 -0.6344
vn -0.6344 -0.0000 -0.7730
vn -0.4714 -0.0000 -0.8819
vn -0.0000 1.0000 -0.0000
vn -0.2903 -0.0000 -0.9569
vn -0.0980 -0.0000 -0.9952
vn -0.0000 -1.0000 -0.0000
vt 1.000000 0.500000
vt 1.000000 1.000000
vt 0.968750 1.000000
vt 0.968750 0.500000
vt 0.937500 1.000000
vt 0.937500 0.500000
vt 0.906250 1.000000
vt 0.906250 0.500000
vt 0.875000 1.000000
vt 0.875000 0.500000
vt 0.843750 1.000000
vt 0.843750 0.500000
vt 0.812500 1.000000
vt 0.812500 0.500000
vt 0.781250 1.000000
vt 0.781250 0.500000
vt 0.750000 1.000000
vt 0.750000 0.500000
vt 0.718750 1.000000
vt 0.718750 0.500000
vt 0.687500 1.000000
vt 0.687500 0.500000
vt 0.656250 1.000000
vt 0.656250 0.500000
vt 0.625000 1.000000
vt 0.625000 0.500000
vt 0.593750 1.000000
vt 0.593750 0.500000
vt 0.562500 1.000000
vt 0.562500 0.500000
vt 0.531250 1.000000
vt 0.531250 0.500000
vt 0.500000 1.000000
vt 0.500000 0.500000
vt 0.468750 1.000000
vt 0.468750 0.500000
vt 0.437500 1.000000
vt 0.437500 0.500000
vt 0.406250 1.000000
vt 0.406250 0.500000
vt 0.375000 1.000000
vt 0.375000 0.500000
vt 0.343750 1.000000
vt 0.343750 0.500000
vt 0.312500 1.000000
vt 0.312500 0.500000
vt 0.281250 1.000000
vt 0.281250 0.500000
vt 0.250000 1.000000
vt 0.250000 0.500000
vt 0.218750 1.000000
vt 0.218750 0.500000
vt 0.187500 1.000000
vt 0.187500 0.500000
vt 0.156250 1.000000
vt 0.156250 0.500000
vt 0.125000 1.000000
vt 0.125000 0.500000
vt 0.093750 1.000000
vt 0.093750 0.500000
vt 0.062500 1.000000
vt 0.062500 0.500000
vt 0.296822 0.485388
vt 0.250000 0.490000
vt 0.203178 0.485388
vt 0.158156 0.471731
vt 0.116663 0.449553
vt 0.080294 0.419706
vt 0.050447 0.383337
vt 0.028269 0.341844
vt 0.014612 0.296822
vt 0.010000 0.250000
vt 0.014612 0.203178
vt 0.028269 0.158156
vt 0.050447 0.116663
vt 0.080294 0.080294
vt 0.116663 0.050447
vt 0.158156 0.028269
vt 0.203178 0.014612
vt 0.250000 0.010000
vt 0.296822 0.014612
vt 0.341844 0.028269
vt 0.383337 0.050447
vt 0.419706 0.080294
vt 0.449553 0.116663
vt 0.471731 0.158156
vt 0.485388 0.203178
vt 0.490000 0.250000
vt 0.485388 0.296822
vt 0.471731 0.341844
vt 0.449553 0.383337
vt 0.419706 0.419706
vt 0.383337 0.449553
vt 0.341844 0.471731
vt 0.031250 1.000000
vt 0.031250 0.500000
vt 0.000000 1.000000
vt 0.000000 0.500000
vt 0.750000 0.490000
vt 0.796822 0.485388
vt 0.841844 0.471731
vt 0.883337 0.449553
vt 0.919706 0.419706
vt 0.949553 0.383337
vt 0.971731 0.341844
vt 0.985388 0.296822
vt 0.990000 0.250000
vt 0.985388 0.203178
vt 0.971731 0.158156
vt 0.949553 0.116663
vt 0.919706 0.080294
vt 0.883337 0.050447
vt 0.841844 0.028269
vt 0.796822 0.014612
vt 0.750000 0.010000
vt 0.703178 0.014612
vt 0.658156 0.028269
vt 0.616663 0.050447
vt 0.580294 0.080294
vt 0.550447 0.116663
vt 0.528269 0.158156
vt 0.514612 0.203178
vt 0.510000 0.250000
vt 0.514612 0.296822
vt 0.528269 0.341844
vt 0.550447 0.383337
vt 0.580294 0.419706
vt 0.616663 0.449553
vt 0.658156 0.471731
vt 0.703178 0.485388
s 0
f 601/1225/309 602/1226/309 604/1227/309 603/1228/309
f 603/1228/310 604/1227/310 606/1229/310 605/1230/310
f 605/1230/311 606/1229/311 608/1231/311 607/1232/311
f 607/1232/312 608/1231/312 610/1233/312 609/1234/312
f 609/1234/313 610/1233/313 612/1235/313 611/1236/313
f 611/1236/314 612/1235/314 614/1237/314 613/1238/314
f 613/1238/315 614/1237/315 616/1239/315 615/1240/315
f 615/1240/316 616/1239/316 618/1241/316 617/1242/316
f 617/1242/317 618/1241/317 620/1243/317 619/1244/317
f 619/1244/318 620/1243/318 622/1245/318 621/1246/318
f 621/1246/319 622/1245/319 624/1247/319 623/1248/319
f 623/1248/320 624/1247/320 626/1249/320 625/1250/320
f 625/1250/321 626/1249/321 628/1251/321 627/1252/321
f 627/1252/322 628/1251/322 630/1253/322 629/1254/322
f 629/1254/323 630/1253/323 632/1255/323 631/1256/323
f 631/1256/324 632/1255/324 634/1257/324 633/1258/324
f 633/1258/325 634/1257/325 636/1259/325 635/1260/325
f 635/1260/326 636/1259/326 638/1261/326 637/1262/326
f 637/1262/327 638/1261/327 640/1263/327 639/1264/327
f 639/1264/328 640/1263/328 642/1265/328 641/1266/328
f 641/1266/329 642/1265/329 644/1267/329 643/1268/329
f 643/1268/330 644/1267/330 646/1269/330 645/1270/330
f 645/1270/331 646/1269/331 648/1271/331 647/1272/331
f 647/1272/332 648/1271/332 650/1273/332 649/1274/332
f 649/1274/333 650/1273/333 652/1275/333 651/1276/333
f 651/1276/334 652/1275/334 654/1277/334 653/1278/334
f 653/1278/335 654/1277/335 656/1279/335 655/1280/335
f 655/1280/336 656/1279/336 658/1281/336 657/1282/336
f 657/1282/337 658/1281/337 660/1283/337 659/1284/337
f 659/1284/338 660/1283/338 662/1285/338 661/1286/338
f 604/1287/339 602/1288/339 664/1289/339 662/1290/339 660/1291/339 658/1292/339 656/1293/339 654/1294/339 652/1295/339 650/1296/339 648/1297/339 646/1298/339 644/1299/339 642/1300/339 640/1301/339 638/1302/339 636/1303/339 634/1304/339 632/1305/339 630/1306/339 628/1307/339 626/1308/339 624/1309/339 622/1310/339 620/1311/339 618/1312/339 616/1313/339 614/1314/339 612/1315/339 610/1316/339 608/1317/339 606/1318/339
f 661/1286/340 662/1285/340 664/1319/340 663/1320/340
f 663/1320/341 664/1319/341 602/1321/341 601/1322/341
f 601/1323/342 603/1324/342 605/1325/342 607/1326/342 609/1327/342 611/1328/342 613/1329/342 615/1330/342 617/1331/342 619/1332/342 621/1333/342 623/1334/342 625/1335/342 627/1336/342 629/1337/342 631/1338/342 633/1339/342 635/1340/342 637/1341/342 639/1342/342 641/1343/342 643/1344/342 645/1345/342 647/1346/342 649/1347/342 651/1348/342 653/1349/342 655/1350/342 657/1351/342 659/1352/342 661/1353/342 663/1354/342
o 柱体.009
v 70.000000 1.000000 65.000000
v 70.000000 51.000000 65.000000
v 70.975449 1.000000 65.096077
v 70.975449 51.000000 65.096077
v 71.913414 1.000000 65.380600
v 71.913414 51.000000 65.380600
v 72.777847 1.000000 65.842651
v 72.777847 51.000000 65.842651
v 73.535538 1.000000 66.464462
v 73.535538 51.000000 66.464462
v 74.157349 1.000000 67.222153
v 74.157349 51.000000 67.222153
v 74.619400 1.000000 68.086586
v 74.619400 51.000000 68.086586
v 74.903923 1.000000 69.024551
v 74.903923 51.000000 69.024551
v 75.000000 1.000000 70.000000
v 75.000000 51.000000 70.000000
v 74.903923 1.000000 70.975449
v 74.903923 51.000000 70.975449
v 74.619400 1.000000 71.913414
v 74.619400 51.000000 71.913414
v 74.157349 1.000000 72.777847
v 74.157349 51.000000 72.777847
v 73.535538 1.000000 73.535538
v 73.535538 51.000000 73.535538
v 72.777847 1.000000 74.157349
v 72.777847 51.000000 74.157349
v 71.913414 1.000000 74.619400
v 71.913414 51.000000 74.619400
v 70.975449 1.000000 74.903923
v 70.975449 51.000000 74.903923
v 70.000000 1.000000 75.000000
v 70.000000 51.000000 75.000000
v 69.024551 1.000000 74.903923
v 69.024551 51.000000 74.903923
v 68.086586 1.000000 74.619400
v 68.086586 51.000000 74.619400
v 67.222153 1.000000 74.157349
v 67.222153 51.000000 74.157349
v 66.464462 1.000000 73.535538
v 66.464462 51.000000 73.535538
v 65.842651 1.000000 72.777847
v 65.842651 51.000000 72.777847
v 65.380600 1.000000 71.913414
v 65.380600 51.000000 71.913414
v 65.096077 1.000000 70.975449
v 65.096077 51.000000 70.975449
v 65.000000 1.000000 70.000000
v 65.000000 51.000000 70.000000
v 65.096077 1.000000 69.024551
v 65.096077 51.000000 69.024551
v 65.380600 1.000000 68.086586
v 65.380600 51.000000 68.086586
v 65.842651 1.000000 67.222153
v 65.842651 51.000000 67.222153
v 66.464462 1.000000 66.464462
v 66.464462 51.000000 66.464462
v 67.222153 1.000000 65.842651
v 67.222153 51.000000 65.842651
v 68.086586 1.000000 65.380600
v 68.086586 51.000000 65.380600
v 69.024551 1.000000 65.096077
v 69.024551 51.000000 65.096077
vn 0.0980 -0.0000 -0.9952
vn 0.2903 -0.0000 -0.9569
vn 0.4714 -0.0000 -0.8819
vn 0.6344 -0.0000 -0.7730
vn 0.7730 -0.0000 -0.6344
vn 0.8819 -0.0000 -0.4714
vn 0.9569 -0.0000 -0.2903
vn 0.9952 -0.0000 -0.0980
vn 0.9952 -0.0000 0.0980
vn 0.9569 -0.0000 0.2903
vn 0.8819 -0.0000 0.4714
vn 0.7730 -0.0000 0.6344
vn 0.6344 -0.0000 0.7730
vn 0.4714 -0.0000 0.8819
vn 0.2903 -0.0000 0.9569
vn 0.0980 -0.0000 0.9952
vn -0.0980 -0.0000 0.9952
vn -0.2903 -0.0000 0.9569
vn -0.4714 -0.0000 0.8819
vn -0.6344 -0.0000 0.7730
vn -0.7730 -0.0000 0.6344
vn -0.8819 -0.0000 0.4714
vn -0.9569 -0.0000 0.2903
vn -0.9952 -0.0000 0.0980
vn -0.9952 -0.0000 -0.0980
vn -0.9569 -0.0000 -0.2903
vn -0.8819 -0.0000 -0.4714
vn -0.7730 -0.0000 -0.6344
vn -0.6344 -0.0000 -0.7730
vn -0.4714 -0.0000 -0.8819
vn -0.0000 1.0000 -0.0000
vn -0.2903 -0.0000 -0.9569
vn -0.0980 -0.0000 -0.9952
vn -0.0000 -1.0000 -0.0000
vt 1.000000 0.500000
vt 1.000000 1.000000
vt 0.968750 1.000000
vt 0.968750 0.500000
vt 0.937500 1.000000
vt 0.937500 0.500000
vt 0.906250 1.000000
vt 0.906250 0.500000
vt 0.875000 1.000000
vt 0.875000 0.500000
vt 0.843750 1.000000
vt 0.843750 0.500000
vt 0.812500 1.000000
vt 0.812500 0.500000
vt 0.781250 1.000000
vt 0.781250 0.500000
vt 0.750000 1.000000
vt 0.750000 0.500000
vt 0.718750 1.000000
vt 0.718750 0.500000
vt 0.687500 1.000000
vt 0.687500 0.500000
vt 0.656250 1.000000
vt 0.656250 0.500000
vt 0.625000 1.000000
vt 0.625000 0.500000
vt 0.593750 1.000000
vt 0.593750 0.500000
vt 0.562500 1.000000
vt 0.562500 0.500000
vt 0.531250 1.000000
vt 0.531250 0.500000
vt 0.500000 1.000000
vt 0.500000 0.500000
vt 0.468750 1.000000
vt 0.468750 0.500000
vt 0.437500 1.000000
vt 0.437500 0.500000
vt 0.406250 1.000000
vt 0.406250 0.500000
vt 0.375000 1.000000
vt 0.375000 0.500000
vt 0.343750 1.000000
vt 0.343750 0.500000
vt 0.312500 1.000000
vt 0.312500 0.500000
vt 0.281250 1.000000
vt 0.281250 0.500000
vt 0.250000 1.000000
vt 0.250000 0.500000
vt 0.218750 1.000000
vt 0.218750 0.500000
vt 0.187500 1.000000
vt 0.187500 0.500000
vt 0.156250 1.000000
vt 0.156250 0.500000
vt 0.125000 1.000000
vt 0.125000 0.500000
vt 0.093750 1.000000
vt 0.093750 0.500000
vt 0.062500 1.000000
vt 0.062500 0.500000
vt 0.296822 0.485388
vt 0.250000 0.490000
vt 0.203178 0.485388
vt 0.158156 0.471731
vt 0.116663 0.449553
vt 0.080294 0.419706
vt 0.050447 0.383337
vt 0.028269 0.341844
vt 0.014612 0.296822
vt 0.010000 0.250000
vt 0.014612 0.203178
vt 0.028269 0.158156
vt 0.050447 0.116663
vt 0.080294 0.080294
vt 0.116663 0.050447
vt 0.158156 0.028269
vt 0.203178 0.014612
vt 0.250000 0.010000
vt 0.296822 0.014612
vt 0.341844 0.028269
vt 0.383337 0.050447
vt 0.419706 0.080294
vt 0.449553 0.116663
vt 0.471731 0.158156
vt 0.485388 0.203178
vt 0.490000 0.250000
vt 0.485388 0.296822
vt 0.471731 0.341844
vt 0.449553 0.383337
vt 0.419706 0.419706
vt 0.383337 0.449553
vt 0.341844 0.471731
vt 0.031250 1.000000
vt 0.031250 0.500000
vt 0.000000 1.000000
vt 0.000000 0.500000
vt 0.750000 0.490000
vt 0.796822 0.485388
vt 0.841844 0.471731
vt 0.883337 0.449553
vt 0.919706 0.419706
vt 0.949553 0.383337
vt 0.971731 0.341844
vt 0.985388 0.296822
vt 0.990000 0.250000
vt 0.985388 0.203178
vt 0.971731 0.158156
vt 0.949553 0.116663
vt 0.919706 0.080294
vt 0.883337 0.050447
vt 0.841844 0.028269
vt 0.796822 0.014612
vt 0.750000 0.010000
vt 0.703178 0.014612
vt 0.658156 0.028269
vt 0.616663 0.050447
vt 0.580294 0.080294
vt 0.550447 0.116663
vt 0.528269 0.158156
vt 0.514612 0.203178
vt 0.510000 0.250000
vt 0.514612 0.296822
vt 0.528269 0.341844
vt 0.550447 0.383337
vt 0.580294 0.419706
vt 0.616663 0.449553
vt 0.658156 0.471731
vt 0.703178 0.485388
s 0
f 665/1355/343 666/1356/343 668/1357/343 667/1358/343
f 667/1358/344 668/1357/344 670/1359/344 669/1360/344
f 669/1360/345 670/1359/345 672/1361/345 671/1362/345
f 671/1362/346 672/1361/346 674/1363/346 673/1364/346
f 673/1364/347 674/1363/347 676/1365/347 675/1366/347
f 675/1366/348 676/1365/348 678/1367/348 677/1368/348
f 677/1368/349 678/1367/349 680/1369/349 679/1370/349
f 679/1370/350 680/1369/350 682/1371/350 681/1372/350
f 681/1372/351 682/1371/351 684/1373/351 683/1374/351
f 683/1374/352 684/1373/352 686/1375/352 685/1376/352
f 685/1376/353 686/1375/353 688/1377/353 687/1378/353
f 687/1378/354 688/1377/354 690/1379/354 689/1380/354
f 689/1380/355 690/1379/355 692/1381/355 691/1382/355
f 691/1382/356 692/1381/356 694/1383/356 693/1384/356
f 693/1384/357 694/1383/357 696/1385/357 695/1386/357
f 695/1386/358 696/1385/358 698/1387/358 697/1388/358
f 697/1388/359 698/1387/359 700/1389/359 699/1390/359
f 699/1390/360 700/1389/360 702/1391/360 701/1392/360
f 701/1392/361 702/1391/361 704/1393/361 703/1394/361
f 703/1394/362 704/1393/362 706/1395/362 705/1396/362
f 705/1396/363 706/1395/363 708/1397/363 707/1398/363
f 707/1398/364 708/1397/364 710/1399/364 709/1400/364
f 709/1400/365 710/1399/365 712/1401/365 711/1402/365
f 711/1402/366 712/1401/366 714/1403/366 713/1404/366
f 713/1404/367 714/1403/367 716/1405/367 715/1406/367
f 715/1406/368 716/1405/368 718/1407/368 717/1408/368
f 717/1408/369 718/1407/369 720/1409/369 719/1410/369
f 719/1410/370 720/1409/370 722/1411/370 721/1412/370
f 721/1412/371 722/1411/371 724/1413/371 723/1414/371
f 723/1414/372 724/1413/372 726/1415/372 725/1416/372
f 668/1417/373 666/1418/373 728/1419/373 726/1420/373 724/1421/373 722/1422/373 720/1423/373 718/1424/373 716/1425/373 714/1426/373 712/1427/373 710/1428/373 708/1429/373 706/1430/373 704/1431/373 702/1432/373 700/1433/373 698/1434/373 696/1435/373 694/1436/373 692/1437/373 690/1438/373 688/1439/373 686/1440/373 684/1441/373 682/1442/373 680/1443/373 678/1444/373 676/1445/373 674/1446/373 672/1447/373 670/1448/373
f 725/1416/374 726/1415/374 728/1449/374 727/1450/374
f 727/1450/375 728/1449/375 666/1451/375 665/1452/375
f 665/1453/376 667/1454/376 669/1455/376 671/1456/376 673/1457/376 675/1458/376 677/1459/376 679/1460/376 681/1461/376 683/1462/376 685/1463/376 687/1464/376 689/1465/376 691/1466/376 693/1467/376 695/1468/376 697/1469/376 699/1470/376 701/1471/376 703/1472/376 705/1473/376 707/1474/376 709/1475/376 711/1476/376 713/1477/376 715/1478/376 717/1479/376 719/1480/376 721/1481/376 723/1482/376 725/1483/376 727/1484/376
