# Blender 4.3.2
# www.blender.org
mtllib 地板.mtl
o Cube
v 31.897728 -0.032188 -24.412905
v 31.897728 -0.432188 -24.412905
v 31.897728 -0.032188 15.587091
v 31.897728 -0.432188 15.587091
v -8.102267 -0.032188 -24.412905
v -8.102267 -0.432188 -24.412905
v -8.102267 -0.032188 15.587091
v -8.102267 -0.432188 15.587091
v -8.102267 -0.432188 -22.673777
v -8.102267 -0.432188 -20.934645
v -8.102267 -0.432188 -19.195515
v -8.102267 -0.432188 -17.456385
v -8.102267 -0.432188 -15.717254
v -8.102267 -0.432188 -13.978124
v -8.102267 -0.432188 -12.238993
v -8.102267 -0.432188 -10.499863
v -8.102267 -0.432188 -8.760733
v -8.102267 -0.432188 -7.021603
v -8.102267 -0.432188 -5.282472
v -8.102267 -0.432188 -3.543342
v -8.102267 -0.432188 -1.804211
v -8.102267 -0.432188 -0.065081
v -8.102267 -0.432188 1.674050
v -8.102267 -0.432188 3.413180
v -8.102267 -0.432188 5.152310
v -8.102267 -0.432188 6.891440
v -8.102267 -0.432188 8.630571
v -8.102267 -0.432188 10.369700
v -8.102267 -0.432188 12.108831
v -8.102267 -0.432188 13.847963
v 31.897728 -0.032188 -22.673777
v 31.897728 -0.032188 -20.934645
v 31.897728 -0.032188 -19.195515
v 31.897728 -0.032188 -17.456385
v 31.897728 -0.032188 -15.717254
v 31.897728 -0.032188 -13.978124
v 31.897728 -0.032188 -12.238993
v 31.897728 -0.032188 -10.499863
v 31.897728 -0.032188 -8.760733
v 31.897728 -0.032188 -7.021603
v 31.897728 -0.032188 -5.282472
v 31.897728 -0.032188 -3.543342
v 31.897728 -0.032188 -1.804211
v 31.897728 -0.032188 -0.065081
v 31.897728 -0.032188 1.674050
v 31.897728 -0.032188 3.413180
v 31.897728 -0.032188 5.152310
v 31.897728 -0.032188 6.891440
v 31.897728 -0.032188 8.630571
v 31.897728 -0.032188 10.369700
v 31.897728 -0.032188 12.108831
v 31.897728 -0.032188 13.847963
v -8.102267 -0.032188 13.847963
v -8.102267 -0.032188 12.108831
v -8.102267 -0.032188 10.369700
v -8.102267 -0.032188 8.630571
v -8.102267 -0.032188 6.891440
v -8.102267 -0.032188 5.152310
v -8.102267 -0.032188 3.413180
v -8.102267 -0.032188 1.674050
v -8.102267 -0.032188 -0.065081
v -8.102267 -0.032188 -1.804211
v -8.102267 -0.032188 -3.543342
v -8.102267 -0.032188 -5.282472
v -8.102267 -0.032188 -7.021603
v -8.102267 -0.032188 -8.760733
v -8.102267 -0.032188 -10.499863
v -8.102267 -0.032188 -12.238993
v -8.102267 -0.032188 -13.978124
v -8.102267 -0.032188 -15.717254
v -8.102267 -0.032188 -17.456385
v -8.102267 -0.032188 -19.195515
v -8.102267 -0.032188 -20.934645
v -8.102267 -0.032188 -22.673777
v 31.897728 -0.432188 13.847963
v 31.897728 -0.432188 12.108831
v 31.897728 -0.432188 10.369700
v 31.897728 -0.432188 8.630571
v 31.897728 -0.432188 6.891440
v 31.897728 -0.432188 5.152310
v 31.897728 -0.432188 3.413180
v 31.897728 -0.432188 1.674050
v 31.897728 -0.432188 -0.065081
v 31.897728 -0.432188 -1.804211
v 31.897728 -0.432188 -3.543342
v 31.897728 -0.432188 -5.282472
v 31.897728 -0.432188 -7.021603
v 31.897728 -0.432188 -8.760733
v 31.897728 -0.432188 -10.499863
v 31.897728 -0.432188 -12.238993
v 31.897728 -0.432188 -13.978124
v 31.897728 -0.432188 -15.717254
v 31.897728 -0.432188 -17.456385
v 31.897728 -0.432188 -19.195515
v 31.897728 -0.432188 -20.934645
v 31.897728 -0.432188 -22.673777
v 29.897728 -0.432188 -24.412905
v 27.897730 -0.432188 -24.412905
v 25.897730 -0.432188 -24.412905
v 23.897730 -0.432188 -24.412905
v 21.897730 -0.432188 -24.412905
v 19.897730 -0.432188 -24.412905
v 17.897730 -0.432188 -24.412905
v 15.897731 -0.432188 -24.412905
v 13.897731 -0.432188 -24.412905
v 11.897731 -0.432188 -24.412905
v 9.897731 -0.432188 -24.412905
v 7.897731 -0.432188 -24.412905
v 5.897731 -0.432188 -24.412905
v 3.897731 -0.432188 -24.412905
v 1.897732 -0.432188 -24.412905
v -0.102268 -0.432188 -24.412905
v -2.102268 -0.432188 -24.412905
v -4.102268 -0.432188 -24.412905
v -6.102267 -0.432188 -24.412905
v 29.897728 -0.032188 15.587091
v 27.897730 -0.032188 15.587091
v 25.897730 -0.032188 15.587091
v 23.897730 -0.032188 15.587091
v 21.897730 -0.032188 15.587091
v 19.897730 -0.032188 15.587091
v 17.897730 -0.032188 15.587091
v 15.897731 -0.032188 15.587091
v 13.897731 -0.032188 15.587091
v 11.897731 -0.032188 15.587091
v 9.897731 -0.032188 15.587091
v 7.897731 -0.032188 15.587091
v 5.897731 -0.032188 15.587091
v 3.897731 -0.032188 15.587091
v 1.897732 -0.032188 15.587091
v -0.102268 -0.032188 15.587091
v -2.102268 -0.032188 15.587091
v -4.102268 -0.032188 15.587091
v -6.102267 -0.032188 15.587091
v -6.102267 -0.432188 15.587091
v -4.102268 -0.432188 15.587091
v -2.102268 -0.432188 15.587091
v -0.102268 -0.432188 15.587091
v 1.897732 -0.432188 15.587091
v 3.897731 -0.432188 15.587091
v 5.897731 -0.432188 15.587091
v 7.897731 -0.432188 15.587091
v 9.897731 -0.432188 15.587091
v 11.897731 -0.432188 15.587091
v 13.897731 -0.432188 15.587091
v 15.897731 -0.432188 15.587091
v 17.897730 -0.432188 15.587091
v 19.897730 -0.432188 15.587091
v 21.897730 -0.432188 15.587091
v 23.897730 -0.432188 15.587091
v 25.897730 -0.432188 15.587091
v 27.897730 -0.432188 15.587091
v 29.897728 -0.432188 15.587091
v -6.102267 -0.032188 -24.412905
v -4.102268 -0.032188 -24.412905
v -2.102268 -0.032188 -24.412905
v -0.102268 -0.032188 -24.412905
v 1.897732 -0.032188 -24.412905
v 3.897731 -0.032188 -24.412905
v 5.897731 -0.032188 -24.412905
v 7.897731 -0.032188 -24.412905
v 9.897731 -0.032188 -24.412905
v 11.897731 -0.032188 -24.412905
v 13.897731 -0.032188 -24.412905
v 15.897731 -0.032188 -24.412905
v 17.897730 -0.032188 -24.412905
v 19.897730 -0.032188 -24.412905
v 21.897730 -0.032188 -24.412905
v 23.897730 -0.032188 -24.412905
v 25.897730 -0.032188 -24.412905
v 27.897730 -0.032188 -24.412905
v 29.897728 -0.032188 -24.412905
v 29.897728 -0.432188 -22.673777
v 27.897730 -0.432188 -22.673777
v 25.897730 -0.432188 -22.673777
v 23.897730 -0.432188 -22.673777
v 21.897730 -0.432188 -22.673777
v 19.897730 -0.432188 -22.673777
v 17.897730 -0.432188 -22.673777
v 15.897731 -0.432188 -22.673777
v 13.897731 -0.432188 -22.673777
v 11.897731 -0.432188 -22.673777
v 9.897731 -0.432188 -22.673777
v 7.897731 -0.432188 -22.673777
v 5.897731 -0.432188 -22.673777
v 3.897731 -0.432188 -22.673777
v 1.897732 -0.432188 -22.673777
v -0.102268 -0.432188 -22.673777
v -2.102268 -0.432188 -22.673777
v -4.102268 -0.432188 -22.673777
v -6.102267 -0.432188 -22.673777
v 29.897728 -0.432188 -20.934645
v 27.897730 -0.432188 -20.934645
v 25.897730 -0.432188 -20.934645
v 23.897730 -0.432188 -20.934645
v 21.897730 -0.432188 -20.934645
v 19.897730 -0.432188 -20.934645
v 17.897730 -0.432188 -20.934645
v 15.897731 -0.432188 -20.934645
v 13.897731 -0.432188 -20.934645
v 11.897731 -0.432188 -20.934645
v 9.897731 -0.432188 -20.934645
v 7.897731 -0.432188 -20.934645
v 5.897731 -0.432188 -20.934645
v 3.897731 -0.432188 -20.934645
v 1.897732 -0.432188 -20.934645
v -0.102268 -0.432188 -20.934645
v -2.102268 -0.432188 -20.934645
v -4.102268 -0.432188 -20.934645
v -6.102267 -0.432188 -20.934645
v 29.897728 -0.432188 -19.195515
v 27.897730 -0.432188 -19.195515
v 25.897730 -0.432188 -19.195515
v 23.897730 -0.432188 -19.195515
v 21.897730 -0.432188 -19.195515
v 19.897730 -0.432188 -19.195515
v 17.897730 -0.432188 -19.195515
v 15.897731 -0.432188 -19.195515
v 13.897731 -0.432188 -19.195515
v 11.897731 -0.432188 -19.195515
v 9.897731 -0.432188 -19.195515
v 7.897731 -0.432188 -19.195515
v 5.897731 -0.432188 -19.195515
v 3.897731 -0.432188 -19.195515
v 1.897732 -0.432188 -19.195515
v -0.102268 -0.432188 -19.195515
v -2.102268 -0.432188 -19.195515
v -4.102268 -0.432188 -19.195515
v -6.102267 -0.432188 -19.195515
v 29.897728 -0.432188 -17.456385
v 27.897730 -0.432188 -17.456385
v 25.897730 -0.432188 -17.456385
v 23.897730 -0.432188 -17.456385
v 21.897730 -0.432188 -17.456385
v 19.897730 -0.432188 -17.456385
v 17.897730 -0.432188 -17.456385
v 15.897731 -0.432188 -17.456385
v 13.897731 -0.432188 -17.456385
v 11.897731 -0.432188 -17.456385
v 9.897731 -0.432188 -17.456385
v 7.897731 -0.432188 -17.456385
v 5.897731 -0.432188 -17.456385
v 3.897731 -0.432188 -17.456385
v 1.897732 -0.432188 -17.456385
v -0.102268 -0.432188 -17.456385
v -2.102268 -0.432188 -17.456385
v -4.102268 -0.432188 -17.456385
v -6.102267 -0.432188 -17.456385
v 29.897728 -0.432188 -15.717254
v 27.897730 -0.432188 -15.717254
v 25.897730 -0.432188 -15.717254
v 23.897730 -0.432188 -15.717254
v 21.897730 -0.432188 -15.717254
v 19.897730 -0.432188 -15.717254
v 17.897730 -0.432188 -15.717254
v 15.897731 -0.432188 -15.717254
v 13.897731 -0.432188 -15.717254
v 11.897731 -0.432188 -15.717254
v 9.897731 -0.432188 -15.717254
v 7.897731 -0.432188 -15.717254
v 5.897731 -0.432188 -15.717254
v 3.897731 -0.432188 -15.717254
v 1.897732 -0.432188 -15.717254
v -0.102268 -0.432188 -15.717254
v -2.102268 -0.432188 -15.717254
v -4.102268 -0.432188 -15.717254
v -6.102267 -0.432188 -15.717254
v 29.897728 -0.432188 -13.978124
v 27.897730 -0.432188 -13.978124
v 25.897730 -0.432188 -13.978124
v 23.897730 -0.432188 -13.978124
v 21.897730 -0.432188 -13.978124
v 19.897730 -0.432188 -13.978124
v 17.897730 -0.432188 -13.978124
v 15.897731 -0.432188 -13.978124
v 13.897731 -0.432188 -13.978124
v 11.897731 -0.432188 -13.978124
v 9.897731 -0.432188 -13.978124
v 7.897731 -0.432188 -13.978124
v 5.897731 -0.432188 -13.978124
v 3.897731 -0.432188 -13.978124
v 1.897732 -0.432188 -13.978124
v -0.102268 -0.432188 -13.978124
v -2.102268 -0.432188 -13.978124
v -4.102268 -0.432188 -13.978124
v -6.102267 -0.432188 -13.978124
v 29.897728 -0.432188 -12.238993
v 27.897730 -0.432188 -12.238993
v 25.897730 -0.432188 -12.238993
v 23.897730 -0.432188 -12.238993
v 21.897730 -0.432188 -12.238993
v 19.897730 -0.432188 -12.238993
v 17.897730 -0.432188 -12.238993
v 15.897731 -0.432188 -12.238993
v 13.897731 -0.432188 -12.238993
v 11.897731 -0.432188 -12.238993
v 9.897731 -0.432188 -12.238993
v 7.897731 -0.432188 -12.238993
v 5.897731 -0.432188 -12.238993
v 3.897731 -0.432188 -12.238993
v 1.897732 -0.432188 -12.238993
v -0.102268 -0.432188 -12.238993
v -2.102268 -0.432188 -12.238993
v -4.102268 -0.432188 -12.238993
v -6.102267 -0.432188 -12.238993
v 29.897728 -0.432188 -10.499863
v 27.897730 -0.432188 -10.499863
v 25.897730 -0.432188 -10.499863
v 23.897730 -0.432188 -10.499863
v 21.897730 -0.432188 -10.499863
v 19.897730 -0.432188 -10.499863
v 17.897730 -0.432188 -10.499863
v 15.897731 -0.432188 -10.499863
v 13.897731 -0.432188 -10.499863
v 11.897731 -0.432188 -10.499863
v 9.897731 -0.432188 -10.499863
v 7.897731 -0.432188 -10.499863
v 5.897731 -0.432188 -10.499863
v 3.897731 -0.432188 -10.499863
v 1.897732 -0.432188 -10.499863
v -0.102268 -0.432188 -10.499863
v -2.102268 -0.432188 -10.499863
v -4.102268 -0.432188 -10.499863
v -6.102267 -0.432188 -10.499863
v 29.897728 -0.432188 -8.760733
v 27.897730 -0.432188 -8.760733
v 25.897730 -0.432188 -8.760733
v 23.897730 -0.432188 -8.760733
v 21.897730 -0.432188 -8.760733
v 19.897730 -0.432188 -8.760733
v 17.897730 -0.432188 -8.760733
v 15.897731 -0.432188 -8.760733
v 13.897731 -0.432188 -8.760733
v 11.897731 -0.432188 -8.760733
v 9.897731 -0.432188 -8.760733
v 7.897731 -0.432188 -8.760733
v 5.897731 -0.432188 -8.760733
v 3.897731 -0.432188 -8.760733
v 1.897732 -0.432188 -8.760733
v -0.102268 -0.432188 -8.760733
v -2.102268 -0.432188 -8.760733
v -4.102268 -0.432188 -8.760733
v -6.102267 -0.432188 -8.760733
v 29.897728 -0.432188 -7.021603
v 27.897730 -0.432188 -7.021603
v 25.897730 -0.432188 -7.021603
v 23.897730 -0.432188 -7.021603
v 21.897730 -0.432188 -7.021603
v 19.897730 -0.432188 -7.021603
v 17.897730 -0.432188 -7.021603
v 15.897731 -0.432188 -7.021603
v 13.897731 -0.432188 -7.021603
v 11.897731 -0.432188 -7.021603
v 9.897731 -0.432188 -7.021603
v 7.897731 -0.432188 -7.021603
v 5.897731 -0.432188 -7.021603
v 3.897731 -0.432188 -7.021603
v 1.897732 -0.432188 -7.021603
v -0.102268 -0.432188 -7.021603
v -2.102268 -0.432188 -7.021603
v -4.102268 -0.432188 -7.021603
v -6.102267 -0.432188 -7.021603
v 29.897728 -0.432188 -5.282472
v 27.897730 -0.432188 -5.282472
v 25.897730 -0.432188 -5.282472
v 23.897730 -0.432188 -5.282472
v 21.897730 -0.432188 -5.282472
v 19.897730 -0.432188 -5.282472
v 17.897730 -0.432188 -5.282472
v 15.897731 -0.432188 -5.282472
v 13.897731 -0.432188 -5.282472
v 11.897731 -0.432188 -5.282472
v 9.897731 -0.432188 -5.282472
v 7.897731 -0.432188 -5.282472
v 5.897731 -0.432188 -5.282472
v 3.897731 -0.432188 -5.282472
v 1.897732 -0.432188 -5.282472
v -0.102268 -0.432188 -5.282472
v -2.102268 -0.432188 -5.282472
v -4.102268 -0.432188 -5.282472
v -6.102267 -0.432188 -5.282472
v 29.897728 -0.432188 -3.543342
v 27.897730 -0.432188 -3.543342
v 25.897730 -0.432188 -3.543342
v 23.897730 -0.432188 -3.543342
v 21.897730 -0.432188 -3.543342
v 19.897730 -0.432188 -3.543342
v 17.897730 -0.432188 -3.543342
v 15.897731 -0.432188 -3.543342
v 13.897731 -0.432188 -3.543342
v 11.897731 -0.432188 -3.543342
v 9.897731 -0.432188 -3.543342
v 7.897731 -0.432188 -3.543342
v 5.897731 -0.432188 -3.543342
v 3.897731 -0.432188 -3.543342
v 1.897732 -0.432188 -3.543342
v -0.102268 -0.432188 -3.543342
v -2.102268 -0.432188 -3.543342
v -4.102268 -0.432188 -3.543342
v -6.102267 -0.432188 -3.543342
v 29.897728 -0.432188 -1.804211
v 27.897730 -0.432188 -1.804211
v 25.897730 -0.432188 -1.804211
v 23.897730 -0.432188 -1.804211
v 21.897730 -0.432188 -1.804211
v 19.897730 -0.432188 -1.804211
v 17.897730 -0.432188 -1.804211
v 15.897731 -0.432188 -1.804211
v 13.897731 -0.432188 -1.804211
v 11.897731 -0.432188 -1.804211
v 9.897731 -0.432188 -1.804211
v 7.897731 -0.432188 -1.804211
v 5.897731 -0.432188 -1.804211
v 3.897731 -0.432188 -1.804211
v 1.897732 -0.432188 -1.804211
v -0.102268 -0.432188 -1.804211
v -2.102268 -0.432188 -1.804211
v -4.102268 -0.432188 -1.804211
v -6.102267 -0.432188 -1.804211
v 29.897728 -0.432188 -0.065081
v 27.897730 -0.432188 -0.065081
v 25.897730 -0.432188 -0.065081
v 23.897730 -0.432188 -0.065081
v 21.897730 -0.432188 -0.065081
v 19.897730 -0.432188 -0.065081
v 17.897730 -0.432188 -0.065081
v 15.897731 -0.432188 -0.065081
v 13.897731 -0.432188 -0.065081
v 11.897731 -0.432188 -0.065081
v 9.897731 -0.432188 -0.065081
v 7.897731 -0.432188 -0.065081
v 5.897731 -0.432188 -0.065081
v 3.897731 -0.432188 -0.065081
v 1.897732 -0.432188 -0.065081
v -0.102268 -0.432188 -0.065081
v -2.102268 -0.432188 -0.065081
v -4.102268 -0.432188 -0.065081
v -6.102267 -0.432188 -0.065081
v 29.897728 -0.432188 1.674050
v 27.897730 -0.432188 1.674050
v 25.897730 -0.432188 1.674050
v 23.897730 -0.432188 1.674050
v 21.897730 -0.432188 1.674050
v 19.897730 -0.432188 1.674050
v 17.897730 -0.432188 1.674050
v 15.897731 -0.432188 1.674050
v 13.897731 -0.432188 1.674050
v 11.897731 -0.432188 1.674050
v 9.897731 -0.432188 1.674050
v 7.897731 -0.432188 1.674050
v 5.897731 -0.432188 1.674050
v 3.897731 -0.432188 1.674050
v 1.897732 -0.432188 1.674050
v -0.102268 -0.432188 1.674050
v -2.102268 -0.432188 1.674050
v -4.102268 -0.432188 1.674050
v -6.102267 -0.432188 1.674050
v 29.897728 -0.432188 3.413180
v 27.897730 -0.432188 3.413180
v 25.897730 -0.432188 3.413180
v 23.897730 -0.432188 3.413180
v 21.897730 -0.432188 3.413180
v 19.897730 -0.432188 3.413180
v 17.897730 -0.432188 3.413180
v 15.897731 -0.432188 3.413180
v 13.897731 -0.432188 3.413180
v 11.897731 -0.432188 3.413180
v 9.897731 -0.432188 3.413180
v 7.897731 -0.432188 3.413180
v 5.897731 -0.432188 3.413180
v 3.897731 -0.432188 3.413180
v 1.897732 -0.432188 3.413180
v -0.102268 -0.432188 3.413180
v -2.102268 -0.432188 3.413180
v -4.102268 -0.432188 3.413180
v -6.102267 -0.432188 3.413180
v 29.897728 -0.432188 5.152310
v 27.897730 -0.432188 5.152310
v 25.897730 -0.432188 5.152310
v 23.897730 -0.432188 5.152310
v 21.897730 -0.432188 5.152310
v 19.897730 -0.432188 5.152310
v 17.897730 -0.432188 5.152310
v 15.897731 -0.432188 5.152310
v 13.897731 -0.432188 5.152310
v 11.897731 -0.432188 5.152310
v 9.897731 -0.432188 5.152310
v 7.897731 -0.432188 5.152310
v 5.897731 -0.432188 5.152310
v 3.897731 -0.432188 5.152310
v 1.897732 -0.432188 5.152310
v -0.102268 -0.432188 5.152310
v -2.102268 -0.432188 5.152310
v -4.102268 -0.432188 5.152310
v -6.102267 -0.432188 5.152310
v 29.897728 -0.432188 6.891440
v 27.897730 -0.432188 6.891440
v 25.897730 -0.432188 6.891440
v 23.897730 -0.432188 6.891440
v 21.897730 -0.432188 6.891440
v 19.897730 -0.432188 6.891440
v 17.897730 -0.432188 6.891440
v 15.897731 -0.432188 6.891440
v 13.897731 -0.432188 6.891440
v 11.897731 -0.432188 6.891440
v 9.897731 -0.432188 6.891440
v 7.897731 -0.432188 6.891440
v 5.897731 -0.432188 6.891440
v 3.897731 -0.432188 6.891440
v 1.897732 -0.432188 6.891440
v -0.102268 -0.432188 6.891440
v -2.102268 -0.432188 6.891440
v -4.102268 -0.432188 6.891440
v -6.102267 -0.432188 6.891440
v 29.897728 -0.432188 8.630571
v 27.897730 -0.432188 8.630571
v 25.897730 -0.432188 8.630571
v 23.897730 -0.432188 8.630571
v 21.897730 -0.432188 8.630571
v 19.897730 -0.432188 8.630571
v 17.897730 -0.432188 8.630571
v 15.897731 -0.432188 8.630571
v 13.897731 -0.432188 8.630571
v 11.897731 -0.432188 8.630571
v 9.897731 -0.432188 8.630571
v 7.897731 -0.432188 8.630571
v 5.897731 -0.432188 8.630571
v 3.897731 -0.432188 8.630571
v 1.897732 -0.432188 8.630571
v -0.102268 -0.432188 8.630571
v -2.102268 -0.432188 8.630571
v -4.102268 -0.432188 8.630571
v -6.102267 -0.432188 8.630571
v 29.897728 -0.432188 10.369700
v 27.897730 -0.432188 10.369700
v 25.897730 -0.432188 10.369700
v 23.897730 -0.432188 10.369700
v 21.897730 -0.432188 10.369700
v 19.897730 -0.432188 10.369700
v 17.897730 -0.432188 10.369700
v 15.897731 -0.432188 10.369700
v 13.897731 -0.432188 10.369700
v 11.897731 -0.432188 10.369700
v 9.897731 -0.432188 10.369700
v 7.897731 -0.432188 10.369700
v 5.897731 -0.432188 10.369700
v 3.897731 -0.432188 10.369700
v 1.897732 -0.432188 10.369700
v -0.102268 -0.432188 10.369700
v -2.102268 -0.432188 10.369700
v -4.102268 -0.432188 10.369700
v -6.102267 -0.432188 10.369700
v 29.897728 -0.432188 12.108831
v 27.897730 -0.432188 12.108831
v 25.897730 -0.432188 12.108831
v 23.897730 -0.432188 12.108831
v 21.897730 -0.432188 12.108831
v 19.897730 -0.432188 12.108831
v 17.897730 -0.432188 12.108831
v 15.897731 -0.432188 12.108831
v 13.897731 -0.432188 12.108831
v 11.897731 -0.432188 12.108831
v 9.897731 -0.432188 12.108831
v 7.897731 -0.432188 12.108831
v 5.897731 -0.432188 12.108831
v 3.897731 -0.432188 12.108831
v 1.897732 -0.432188 12.108831
v -0.102268 -0.432188 12.108831
v -2.102268 -0.432188 12.108831
v -4.102268 -0.432188 12.108831
v -6.102267 -0.432188 12.108831
v 29.897728 -0.432188 13.847963
v 27.897730 -0.432188 13.847963
v 25.897730 -0.432188 13.847963
v 23.897730 -0.432188 13.847963
v 21.897730 -0.432188 13.847963
v 19.897730 -0.432188 13.847963
v 17.897730 -0.432188 13.847963
v 15.897731 -0.432188 13.847963
v 13.897731 -0.432188 13.847963
v 11.897731 -0.432188 13.847963
v 9.897731 -0.432188 13.847963
v 7.897731 -0.432188 13.847963
v 5.897731 -0.432188 13.847963
v 3.897731 -0.432188 13.847963
v 1.897732 -0.432188 13.847963
v -0.102268 -0.432188 13.847963
v -2.102268 -0.432188 13.847963
v -4.102268 -0.432188 13.847963
v -6.102267 -0.432188 13.847963
v -6.102267 -0.032188 -22.673777
v -4.102268 -0.032188 -22.673777
v -2.102268 -0.032188 -22.673777
v -0.102268 -0.032188 -22.673777
v 1.897732 -0.032188 -22.673777
v 3.897731 -0.032188 -22.673777
v 5.897731 -0.032188 -22.673777
v 7.897731 -0.032188 -22.673777
v 9.897731 -0.032188 -22.673777
v 11.897731 -0.032188 -22.673777
v 13.897731 -0.032188 -22.673777
v 15.897731 -0.032188 -22.673777
v 17.897730 -0.032188 -22.673777
v 19.897730 -0.032188 -22.673777
v 21.897730 -0.032188 -22.673777
v 23.897730 -0.032188 -22.673777
v 25.897730 -0.032188 -22.673777
v 27.897730 -0.032188 -22.673777
v 29.897728 -0.032188 -22.673777
v -6.102267 -0.032188 -20.934645
v -4.102268 -0.032188 -20.934645
v -2.102268 -0.032188 -20.934645
v -0.102268 -0.032188 -20.934645
v 1.897732 -0.032188 -20.934645
v 3.897731 -0.032188 -20.934645
v 5.897731 -0.032188 -20.934645
v 7.897731 -0.032188 -20.934645
v 9.897731 -0.032188 -20.934645
v 11.897731 -0.032188 -20.934645
v 13.897731 -0.032188 -20.934645
v 15.897731 -0.032188 -20.934645
v 17.897730 -0.032188 -20.934645
v 19.897730 -0.032188 -20.934645
v 21.897730 -0.032188 -20.934645
v 23.897730 -0.032188 -20.934645
v 25.897730 -0.032188 -20.934645
v 27.897730 -0.032188 -20.934645
v 29.897728 -0.032188 -20.934645
v -6.102267 -0.032188 -19.195515
v -4.102268 -0.032188 -19.195515
v -2.102268 -0.032188 -19.195515
v -0.102268 -0.032188 -19.195515
v 1.897732 -0.032188 -19.195515
v 3.897731 -0.032188 -19.195515
v 5.897731 -0.032188 -19.195515
v 7.897731 -0.032188 -19.195515
v 9.897731 -0.032188 -19.195515
v 11.897731 -0.032188 -19.195515
v 13.897731 -0.032188 -19.195515
v 15.897731 -0.032188 -19.195515
v 17.897730 -0.032188 -19.195515
v 19.897730 -0.032188 -19.195515
v 21.897730 -0.032188 -19.195515
v 23.897730 -0.032188 -19.195515
v 25.897730 -0.032188 -19.195515
v 27.897730 -0.032188 -19.195515
v 29.897728 -0.032188 -19.195515
v -6.102267 -0.032188 -17.456385
v -4.102268 -0.032188 -17.456385
v -2.102268 -0.032188 -17.456385
v -0.102268 -0.032188 -17.456385
v 1.897732 -0.032188 -17.456385
v 3.897731 -0.032188 -17.456385
v 5.897731 -0.032188 -17.456385
v 7.897731 -0.032188 -17.456385
v 9.897731 -0.032188 -17.456385
v 11.897731 -0.032188 -17.456385
v 13.897731 -0.032188 -17.456385
v 15.897731 -0.032188 -17.456385
v 17.897730 -0.032188 -17.456385
v 19.897730 -0.032188 -17.456385
v 21.897730 -0.032188 -17.456385
v 23.897730 -0.032188 -17.456385
v 25.897730 -0.032188 -17.456385
v 27.897730 -0.032188 -17.456385
v 29.897728 -0.032188 -17.456385
v -6.102267 -0.032188 -15.717254
v -4.102268 -0.032188 -15.717254
v -2.102268 -0.032188 -15.717254
v -0.102268 -0.032188 -15.717254
v 1.897732 -0.032188 -15.717254
v 3.897731 -0.032188 -15.717254
v 5.897731 -0.032188 -15.717254
v 7.897731 -0.032188 -15.717254
v 9.897731 -0.032188 -15.717254
v 11.897731 -0.032188 -15.717254
v 13.897731 -0.032188 -15.717254
v 15.897731 -0.032188 -15.717254
v 17.897730 -0.032188 -15.717254
v 19.897730 -0.032188 -15.717254
v 21.897730 -0.032188 -15.717254
v 23.897730 -0.032188 -15.717254
v 25.897730 -0.032188 -15.717254
v 27.897730 -0.032188 -15.717254
v 29.897728 -0.032188 -15.717254
v -6.102267 -0.032188 -13.978124
v -4.102268 -0.032188 -13.978124
v -2.102268 -0.032188 -13.978124
v -0.102268 -0.032188 -13.978124
v 1.897732 -0.032188 -13.978124
v 3.897731 -0.032188 -13.978124
v 5.897731 -0.032188 -13.978124
v 7.897731 -0.032188 -13.978124
v 9.897731 -0.032188 -13.978124
v 11.897731 -0.032188 -13.978124
v 13.897731 -0.032188 -13.978124
v 15.897731 -0.032188 -13.978124
v 17.897730 -0.032188 -13.978124
v 19.897730 -0.032188 -13.978124
v 21.897730 -0.032188 -13.978124
v 23.897730 -0.032188 -13.978124
v 25.897730 -0.032188 -13.978124
v 27.897730 -0.032188 -13.978124
v 29.897728 -0.032188 -13.978124
v -6.102267 -0.032188 -12.238993
v -4.102268 -0.032188 -12.238993
v -2.102268 -0.032188 -12.238993
v -0.102268 -0.032188 -12.238993
v 1.897732 -0.032188 -12.238993
v 3.897731 -0.032188 -12.238993
v 5.897731 -0.032188 -12.238993
v 7.897731 -0.032188 -12.238993
v 9.897731 -0.032188 -12.238993
v 11.897731 -0.032188 -12.238993
v 13.897731 -0.032188 -12.238993
v 15.897731 -0.032188 -12.238993
v 17.897730 -0.032188 -12.238993
v 19.897730 -0.032188 -12.238993
v 21.897730 -0.032188 -12.238993
v 23.897730 -0.032188 -12.238993
v 25.897730 -0.032188 -12.238993
v 27.897730 -0.032188 -12.238993
v 29.897728 -0.032188 -12.238993
v -6.102267 -0.032188 -10.499863
v -4.102268 -0.032188 -10.499863
v -2.102268 -0.032188 -10.499863
v -0.102268 -0.032188 -10.499863
v 1.897732 -0.032188 -10.499863
v 3.897731 -0.032188 -10.499863
v 5.897731 -0.032188 -10.499863
v 7.897731 -0.032188 -10.499863
v 9.897731 -0.032188 -10.499863
v 11.897731 -0.032188 -10.499863
v 13.897731 -0.032188 -10.499863
v 15.897731 -0.032188 -10.499863
v 17.897730 -0.032188 -10.499863
v 19.897730 -0.032188 -10.499863
v 21.897730 -0.032188 -10.499863
v 23.897730 -0.032188 -10.499863
v 25.897730 -0.032188 -10.499863
v 27.897730 -0.032188 -10.499863
v 29.897728 -0.032188 -10.499863
v -6.102267 -0.032188 -8.760733
v -4.102268 -0.032188 -8.760733
v -2.102268 -0.032188 -8.760733
v -0.102268 -0.032188 -8.760733
v 1.897732 -0.032188 -8.760733
v 3.897731 -0.032188 -8.760733
v 5.897731 -0.032188 -8.760733
v 7.897731 -0.032188 -8.760733
v 9.897731 -0.032188 -8.760733
v 11.897731 -0.032188 -8.760733
v 13.897731 -0.032188 -8.760733
v 15.897731 -0.032188 -8.760733
v 17.897730 -0.032188 -8.760733
v 19.897730 -0.032188 -8.760733
v 21.897730 -0.032188 -8.760733
v 23.897730 -0.032188 -8.760733
v 25.897730 -0.032188 -8.760733
v 27.897730 -0.032188 -8.760733
v 29.897728 -0.032188 -8.760733
v -6.102267 -0.032188 -7.021603
v -4.102268 -0.032188 -7.021603
v -2.102268 -0.032188 -7.021603
v -0.102268 -0.032188 -7.021603
v 1.897732 -0.032188 -7.021603
v 3.897731 -0.032188 -7.021603
v 5.897731 -0.032188 -7.021603
v 7.897731 -0.032188 -7.021603
v 9.897731 -0.032188 -7.021603
v 11.897731 -0.032188 -7.021603
v 13.897731 -0.032188 -7.021603
v 15.897731 -0.032188 -7.021603
v 17.897730 -0.032188 -7.021603
v 19.897730 -0.032188 -7.021603
v 21.897730 -0.032188 -7.021603
v 23.897730 -0.032188 -7.021603
v 25.897730 -0.032188 -7.021603
v 27.897730 -0.032188 -7.021603
v 29.897728 -0.032188 -7.021603
v -6.102267 -0.032188 -5.282472
v -4.102268 -0.032188 -5.282472
v -2.102268 -0.032188 -5.282472
v -0.102268 -0.032188 -5.282472
v 1.897732 -0.032188 -5.282472
v 3.897731 -0.032188 -5.282472
v 5.897731 -0.032188 -5.282472
v 7.897731 -0.032188 -5.282472
v 9.897731 -0.032188 -5.282472
v 11.897731 -0.032188 -5.282472
v 13.897731 -0.032188 -5.282472
v 15.897731 -0.032188 -5.282472
v 17.897730 -0.032188 -5.282472
v 19.897730 -0.032188 -5.282472
v 21.897730 -0.032188 -5.282472
v 23.897730 -0.032188 -5.282472
v 25.897730 -0.032188 -5.282472
v 27.897730 -0.032188 -5.282472
v 29.897728 -0.032188 -5.282472
v -6.102267 -0.032188 -3.543342
v -4.102268 -0.032188 -3.543342
v -2.102268 -0.032188 -3.543342
v -0.102268 -0.032188 -3.543342
v 1.897732 -0.032188 -3.543342
v 3.897731 -0.032188 -3.543342
v 5.897731 -0.032188 -3.543342
v 7.897731 -0.032188 -3.543342
v 9.897731 -0.032188 -3.543342
v 11.897731 -0.032188 -3.543342
v 13.897731 -0.032188 -3.543342
v 15.897731 -0.032188 -3.543342
v 17.897730 -0.032188 -3.543342
v 19.897730 -0.032188 -3.543342
v 21.897730 -0.032188 -3.543342
v 23.897730 -0.032188 -3.543342
v 25.897730 -0.032188 -3.543342
v 27.897730 -0.032188 -3.543342
v 29.897728 -0.032188 -3.543342
v -6.102267 -0.032188 -1.804211
v -4.102268 -0.032188 -1.804211
v -2.102268 -0.032188 -1.804211
v -0.102268 -0.032188 -1.804211
v 1.897732 -0.032188 -1.804211
v 3.897731 -0.032188 -1.804211
v 5.897731 -0.032188 -1.804211
v 7.897731 -0.032188 -1.804211
v 9.897731 -0.032188 -1.804211
v 11.897731 -0.032188 -1.804211
v 13.897731 -0.032188 -1.804211
v 15.897731 -0.032188 -1.804211
v 17.897730 -0.032188 -1.804211
v 19.897730 -0.032188 -1.804211
v 21.897730 -0.032188 -1.804211
v 23.897730 -0.032188 -1.804211
v 25.897730 -0.032188 -1.804211
v 27.897730 -0.032188 -1.804211
v 29.897728 -0.032188 -1.804211
v -6.102267 -0.032188 -0.065081
v -4.102268 -0.032188 -0.065081
v -2.102268 -0.032188 -0.065081
v -0.102268 -0.032188 -0.065081
v 1.897732 -0.032188 -0.065081
v 3.897731 -0.032188 -0.065081
v 5.897731 -0.032188 -0.065081
v 7.897731 -0.032188 -0.065081
v 9.897731 -0.032188 -0.065081
v 11.897731 -0.032188 -0.065081
v 13.897731 -0.032188 -0.065081
v 15.897731 -0.032188 -0.065081
v 17.897730 -0.032188 -0.065081
v 19.897730 -0.032188 -0.065081
v 21.897730 -0.032188 -0.065081
v 23.897730 -0.032188 -0.065081
v 25.897730 -0.032188 -0.065081
v 27.897730 -0.032188 -0.065081
v 29.897728 -0.032188 -0.065081
v -6.102267 -0.032188 1.674050
v -4.102268 -0.032188 1.674050
v -2.102268 -0.032188 1.674050
v -0.102268 -0.032188 1.674050
v 1.897732 -0.032188 1.674050
v 3.897731 -0.032188 1.674050
v 5.897731 -0.032188 1.674050
v 7.897731 -0.032188 1.674050
v 9.897731 -0.032188 1.674050
v 11.897731 -0.032188 1.674050
v 13.897731 -0.032188 1.674050
v 15.897731 -0.032188 1.674050
v 17.897730 -0.032188 1.674050
v 19.897730 -0.032188 1.674050
v 21.897730 -0.032188 1.674050
v 23.897730 -0.032188 1.674050
v 25.897730 -0.032188 1.674050
v 27.897730 -0.032188 1.674050
v 29.897728 -0.032188 1.674050
v -6.102267 -0.032188 3.413180
v -4.102268 -0.032188 3.413180
v -2.102268 -0.032188 3.413180
v -0.102268 -0.032188 3.413180
v 1.897732 -0.032188 3.413180
v 3.897731 -0.032188 3.413180
v 5.897731 -0.032188 3.413180
v 7.897731 -0.032188 3.413180
v 9.897731 -0.032188 3.413180
v 11.897731 -0.032188 3.413180
v 13.897731 -0.032188 3.413180
v 15.897731 -0.032188 3.413180
v 17.897730 -0.032188 3.413180
v 19.897730 -0.032188 3.413180
v 21.897730 -0.032188 3.413180
v 23.897730 -0.032188 3.413180
v 25.897730 -0.032188 3.413180
v 27.897730 -0.032188 3.413180
v 29.897728 -0.032188 3.413180
v -6.102267 -0.032188 5.152310
v -4.102268 -0.032188 5.152310
v -2.102268 -0.032188 5.152310
v -0.102268 -0.032188 5.152310
v 1.897732 -0.032188 5.152310
v 3.897731 -0.032188 5.152310
v 5.897731 -0.032188 5.152310
v 7.897731 -0.032188 5.152310
v 9.897731 -0.032188 5.152310
v 11.897731 -0.032188 5.152310
v 13.897731 -0.032188 5.152310
v 15.897731 -0.032188 5.152310
v 17.897730 -0.032188 5.152310
v 19.897730 -0.032188 5.152310
v 21.897730 -0.032188 5.152310
v 23.897730 -0.032188 5.152310
v 25.897730 -0.032188 5.152310
v 27.897730 -0.032188 5.152310
v 29.897728 -0.032188 5.152310
v -6.102267 -0.032188 6.891440
v -4.102268 -0.032188 6.891440
v -2.102268 -0.032188 6.891440
v -0.102268 -0.032188 6.891440
v 1.897732 -0.032188 6.891440
v 3.897731 -0.032188 6.891440
v 5.897731 -0.032188 6.891440
v 7.897731 -0.032188 6.891440
v 9.897731 -0.032188 6.891440
v 11.897731 -0.032188 6.891440
v 13.897731 -0.032188 6.891440
v 15.897731 -0.032188 6.891440
v 17.897730 -0.032188 6.891440
v 19.897730 -0.032188 6.891440
v 21.897730 -0.032188 6.891440
v 23.897730 -0.032188 6.891440
v 25.897730 -0.032188 6.891440
v 27.897730 -0.032188 6.891440
v 29.897728 -0.032188 6.891440
v -6.102267 -0.032188 8.630571
v -4.102268 -0.032188 8.630571
v -2.102268 -0.032188 8.630571
v -0.102268 -0.032188 8.630571
v 1.897732 -0.032188 8.630571
v 3.897731 -0.032188 8.630571
v 5.897731 -0.032188 8.630571
v 7.897731 -0.032188 8.630571
v 9.897731 -0.032188 8.630571
v 11.897731 -0.032188 8.630571
v 13.897731 -0.032188 8.630571
v 15.897731 -0.032188 8.630571
v 17.897730 -0.032188 8.630571
v 19.897730 -0.032188 8.630571
v 21.897730 -0.032188 8.630571
v 23.897730 -0.032188 8.630571
v 25.897730 -0.032188 8.630571
v 27.897730 -0.032188 8.630571
v 29.897728 -0.032188 8.630571
v -6.102267 -0.032188 10.369700
v -4.102268 -0.032188 10.369700
v -2.102268 -0.032188 10.369700
v -0.102268 -0.032188 10.369700
v 1.897732 -0.032188 10.369700
v 3.897731 -0.032188 10.369700
v 5.897731 -0.032188 10.369700
v 7.897731 -0.032188 10.369700
v 9.897731 -0.032188 10.369700
v 11.897731 -0.032188 10.369700
v 13.897731 -0.032188 10.369700
v 15.897731 -0.032188 10.369700
v 17.897730 -0.032188 10.369700
v 19.897730 -0.032188 10.369700
v 21.897730 -0.032188 10.369700
v 23.897730 -0.032188 10.369700
v 25.897730 -0.032188 10.369700
v 27.897730 -0.032188 10.369700
v 29.897728 -0.032188 10.369700
v -6.102267 -0.032188 12.108831
v -4.102268 -0.032188 12.108831
v -2.102268 -0.032188 12.108831
v -0.102268 -0.032188 12.108831
v 1.897732 -0.032188 12.108831
v 3.897731 -0.032188 12.108831
v 5.897731 -0.032188 12.108831
v 7.897731 -0.032188 12.108831
v 9.897731 -0.032188 12.108831
v 11.897731 -0.032188 12.108831
v 13.897731 -0.032188 12.108831
v 15.897731 -0.032188 12.108831
v 17.897730 -0.032188 12.108831
v 19.897730 -0.032188 12.108831
v 21.897730 -0.032188 12.108831
v 23.897730 -0.032188 12.108831
v 25.897730 -0.032188 12.108831
v 27.897730 -0.032188 12.108831
v 29.897728 -0.032188 12.108831
v -6.102267 -0.032188 13.847963
v -4.102268 -0.032188 13.847963
v -2.102268 -0.032188 13.847963
v -0.102268 -0.032188 13.847963
v 1.897732 -0.032188 13.847963
v 3.897731 -0.032188 13.847963
v 5.897731 -0.032188 13.847963
v 7.897731 -0.032188 13.847963
v 9.897731 -0.032188 13.847963
v 11.897731 -0.032188 13.847963
v 13.897731 -0.032188 13.847963
v 15.897731 -0.032188 13.847963
v 17.897730 -0.032188 13.847963
v 19.897730 -0.032188 13.847963
v 21.897730 -0.032188 13.847963
v 23.897730 -0.032188 13.847963
v 25.897730 -0.032188 13.847963
v 27.897730 -0.032188 13.847963
v 29.897728 -0.032188 13.847963
vn -0.0000 1.0000 -0.0000
vn -0.0000 -0.0000 1.0000
vn -1.0000 -0.0000 -0.0000
vn -0.0000 -1.0000 -0.0000
vn 1.0000 -0.0000 -0.0000
vn -0.0000 -0.0000 -1.0000
vt 0.862500 0.739130
vt 0.875000 0.739130
vt 0.875000 0.750000
vt 0.862500 0.750000
vt 0.375000 0.987500
vt 0.625000 0.987500
vt 0.625000 1.000000
vt 0.375000 1.000000
vt 0.375000 0.239130
vt 0.625000 0.239130
vt 0.625000 0.250000
vt 0.375000 0.250000
vt 0.362500 0.739130
vt 0.375000 0.739130
vt 0.375000 0.750000
vt 0.362500 0.750000
vt 0.625000 0.739130
vt 0.625000 0.750000
vt 0.375000 0.487500
vt 0.625000 0.487500
vt 0.625000 0.500000
vt 0.375000 0.500000
vt 0.625000 0.510870
vt 0.375000 0.510870
vt 0.625000 0.521739
vt 0.375000 0.521739
vt 0.625000 0.532609
vt 0.375000 0.532609
vt 0.625000 0.543478
vt 0.375000 0.543478
vt 0.625000 0.554348
vt 0.375000 0.554348
vt 0.625000 0.565217
vt 0.375000 0.565217
vt 0.625000 0.576087
vt 0.375000 0.576087
vt 0.625000 0.586957
vt 0.375000 0.586957
vt 0.625000 0.597826
vt 0.375000 0.597826
vt 0.625000 0.608696
vt 0.375000 0.608696
vt 0.625000 0.619565
vt 0.375000 0.619565
vt 0.625000 0.630435
vt 0.375000 0.630435
vt 0.625000 0.641304
vt 0.375000 0.641304
vt 0.625000 0.652174
vt 0.375000 0.652174
vt 0.625000 0.663043
vt 0.375000 0.663043
vt 0.625000 0.673913
vt 0.375000 0.673913
vt 0.625000 0.684783
vt 0.375000 0.684783
vt 0.625000 0.695652
vt 0.375000 0.695652
vt 0.625000 0.706522
vt 0.375000 0.706522
vt 0.625000 0.717391
vt 0.375000 0.717391
vt 0.625000 0.728261
vt 0.375000 0.728261
vt 0.362500 0.500000
vt 0.362500 0.510870
vt 0.362500 0.521739
vt 0.362500 0.532609
vt 0.362500 0.543478
vt 0.362500 0.554348
vt 0.362500 0.565217
vt 0.362500 0.576087
vt 0.362500 0.586957
vt 0.362500 0.597826
vt 0.362500 0.608696
vt 0.362500 0.619565
vt 0.362500 0.630435
vt 0.362500 0.641304
vt 0.362500 0.652174
vt 0.362500 0.663043
vt 0.362500 0.673913
vt 0.362500 0.684783
vt 0.362500 0.695652
vt 0.362500 0.706522
vt 0.362500 0.717391
vt 0.362500 0.728261
vt 0.375000 0.000000
vt 0.625000 0.000000
vt 0.625000 0.010870
vt 0.375000 0.010870
vt 0.625000 0.021739
vt 0.375000 0.021739
vt 0.625000 0.032609
vt 0.375000 0.032609
vt 0.625000 0.043478
vt 0.375000 0.043478
vt 0.625000 0.054348
vt 0.375000 0.054348
vt 0.625000 0.065217
vt 0.375000 0.065217
vt 0.625000 0.076087
vt 0.375000 0.076087
vt 0.625000 0.086957
vt 0.375000 0.086957
vt 0.625000 0.097826
vt 0.375000 0.097826
vt 0.625000 0.108696
vt 0.375000 0.108696
vt 0.625000 0.119565
vt 0.375000 0.119565
vt 0.625000 0.130435
vt 0.375000 0.130435
vt 0.625000 0.141304
vt 0.375000 0.141304
vt 0.625000 0.152174
vt 0.375000 0.152174
vt 0.625000 0.163043
vt 0.375000 0.163043
vt 0.625000 0.173913
vt 0.375000 0.173913
vt 0.625000 0.184783
vt 0.375000 0.184783
vt 0.625000 0.195652
vt 0.375000 0.195652
vt 0.625000 0.206522
vt 0.375000 0.206522
vt 0.625000 0.217391
vt 0.375000 0.217391
vt 0.625000 0.228261
vt 0.375000 0.228261
vt 0.862500 0.500000
vt 0.875000 0.500000
vt 0.875000 0.510870
vt 0.862500 0.510870
vt 0.875000 0.521739
vt 0.862500 0.521739
vt 0.875000 0.532609
vt 0.862500 0.532609
vt 0.875000 0.543478
vt 0.862500 0.543478
vt 0.875000 0.554348
vt 0.862500 0.554348
vt 0.875000 0.565217
vt 0.862500 0.565217
vt 0.875000 0.576087
vt 0.862500 0.576087
vt 0.875000 0.586957
vt 0.862500 0.586957
vt 0.875000 0.597826
vt 0.862500 0.597826
vt 0.875000 0.608696
vt 0.862500 0.608696
vt 0.875000 0.619565
vt 0.862500 0.619565
vt 0.875000 0.630435
vt 0.862500 0.630435
vt 0.875000 0.641304
vt 0.862500 0.641304
vt 0.875000 0.652174
vt 0.862500 0.652174
vt 0.875000 0.663043
vt 0.862500 0.663043
vt 0.875000 0.673913
vt 0.862500 0.673913
vt 0.875000 0.684783
vt 0.862500 0.684783
vt 0.875000 0.695652
vt 0.862500 0.695652
vt 0.875000 0.706522
vt 0.862500 0.706522
vt 0.875000 0.717391
vt 0.862500 0.717391
vt 0.875000 0.728261
vt 0.862500 0.728261
vt 0.637500 0.728261
vt 0.637500 0.739130
vt 0.650000 0.728261
vt 0.650000 0.739130
vt 0.662500 0.728261
vt 0.662500 0.739130
vt 0.675000 0.728261
vt 0.675000 0.739130
vt 0.687500 0.728261
vt 0.687500 0.739130
vt 0.700000 0.728261
vt 0.700000 0.739130
vt 0.712500 0.728261
vt 0.712500 0.739130
vt 0.725000 0.728261
vt 0.725000 0.739130
vt 0.737500 0.728261
vt 0.737500 0.739130
vt 0.750000 0.728261
vt 0.750000 0.739130
vt 0.762500 0.728261
vt 0.762500 0.739130
vt 0.775000 0.728261
vt 0.775000 0.739130
vt 0.787500 0.728261
vt 0.787500 0.739130
vt 0.800000 0.728261
vt 0.800000 0.739130
vt 0.812500 0.728261
vt 0.812500 0.739130
vt 0.825000 0.728261
vt 0.825000 0.739130
vt 0.837500 0.728261
vt 0.837500 0.739130
vt 0.850000 0.728261
vt 0.850000 0.739130
vt 0.637500 0.717391
vt 0.650000 0.717391
vt 0.662500 0.717391
vt 0.675000 0.717391
vt 0.687500 0.717391
vt 0.700000 0.717391
vt 0.712500 0.717391
vt 0.725000 0.717391
vt 0.737500 0.717391
vt 0.750000 0.717391
vt 0.762500 0.717391
vt 0.775000 0.717391
vt 0.787500 0.717391
vt 0.800000 0.717391
vt 0.812500 0.717391
vt 0.825000 0.717391
vt 0.837500 0.717391
vt 0.850000 0.717391
vt 0.637500 0.706522
vt 0.650000 0.706522
vt 0.662500 0.706522
vt 0.675000 0.706522
vt 0.687500 0.706522
vt 0.700000 0.706522
vt 0.712500 0.706522
vt 0.725000 0.706522
vt 0.737500 0.706522
vt 0.750000 0.706522
vt 0.762500 0.706522
vt 0.775000 0.706522
vt 0.787500 0.706522
vt 0.800000 0.706522
vt 0.812500 0.706522
vt 0.825000 0.706522
vt 0.837500 0.706522
vt 0.850000 0.706522
vt 0.637500 0.695652
vt 0.650000 0.695652
vt 0.662500 0.695652
vt 0.675000 0.695652
vt 0.687500 0.695652
vt 0.700000 0.695652
vt 0.712500 0.695652
vt 0.725000 0.695652
vt 0.737500 0.695652
vt 0.750000 0.695652
vt 0.762500 0.695652
vt 0.775000 0.695652
vt 0.787500 0.695652
vt 0.800000 0.695652
vt 0.812500 0.695652
vt 0.825000 0.695652
vt 0.837500 0.695652
vt 0.850000 0.695652
vt 0.637500 0.684783
vt 0.650000 0.684783
vt 0.662500 0.684783
vt 0.675000 0.684783
vt 0.687500 0.684783
vt 0.700000 0.684783
vt 0.712500 0.684783
vt 0.725000 0.684783
vt 0.737500 0.684783
vt 0.750000 0.684783
vt 0.762500 0.684783
vt 0.775000 0.684783
vt 0.787500 0.684783
vt 0.800000 0.684783
vt 0.812500 0.684783
vt 0.825000 0.684783
vt 0.837500 0.684783
vt 0.850000 0.684783
vt 0.637500 0.673913
vt 0.650000 0.673913
vt 0.662500 0.673913
vt 0.675000 0.673913
vt 0.687500 0.673913
vt 0.700000 0.673913
vt 0.712500 0.673913
vt 0.725000 0.673913
vt 0.737500 0.673913
vt 0.750000 0.673913
vt 0.762500 0.673913
vt 0.775000 0.673913
vt 0.787500 0.673913
vt 0.800000 0.673913
vt 0.812500 0.673913
vt 0.825000 0.673913
vt 0.837500 0.673913
vt 0.850000 0.673913
vt 0.637500 0.663043
vt 0.650000 0.663043
vt 0.662500 0.663043
vt 0.675000 0.663043
vt 0.687500 0.663043
vt 0.700000 0.663043
vt 0.712500 0.663043
vt 0.725000 0.663043
vt 0.737500 0.663043
vt 0.750000 0.663043
vt 0.762500 0.663043
vt 0.775000 0.663043
vt 0.787500 0.663043
vt 0.800000 0.663043
vt 0.812500 0.663043
vt 0.825000 0.663043
vt 0.837500 0.663043
vt 0.850000 0.663043
vt 0.637500 0.652174
vt 0.650000 0.652174
vt 0.662500 0.652174
vt 0.675000 0.652174
vt 0.687500 0.652174
vt 0.700000 0.652174
vt 0.712500 0.652174
vt 0.725000 0.652174
vt 0.737500 0.652174
vt 0.750000 0.652174
vt 0.762500 0.652174
vt 0.775000 0.652174
vt 0.787500 0.652174
vt 0.800000 0.652174
vt 0.812500 0.652174
vt 0.825000 0.652174
vt 0.837500 0.652174
vt 0.850000 0.652174
vt 0.637500 0.641304
vt 0.650000 0.641304
vt 0.662500 0.641304
vt 0.675000 0.641304
vt 0.687500 0.641304
vt 0.700000 0.641304
vt 0.712500 0.641304
vt 0.725000 0.641304
vt 0.737500 0.641304
vt 0.750000 0.641304
vt 0.762500 0.641304
vt 0.775000 0.641304
vt 0.787500 0.641304
vt 0.800000 0.641304
vt 0.812500 0.641304
vt 0.825000 0.641304
vt 0.837500 0.641304
vt 0.850000 0.641304
vt 0.637500 0.630435
vt 0.650000 0.630435
vt 0.662500 0.630435
vt 0.675000 0.630435
vt 0.687500 0.630435
vt 0.700000 0.630435
vt 0.712500 0.630435
vt 0.725000 0.630435
vt 0.737500 0.630435
vt 0.750000 0.630435
vt 0.762500 0.630435
vt 0.775000 0.630435
vt 0.787500 0.630435
vt 0.800000 0.630435
vt 0.812500 0.630435
vt 0.825000 0.630435
vt 0.837500 0.630435
vt 0.850000 0.630435
vt 0.637500 0.619565
vt 0.650000 0.619565
vt 0.662500 0.619565
vt 0.675000 0.619565
vt 0.687500 0.619565
vt 0.700000 0.619565
vt 0.712500 0.619565
vt 0.725000 0.619565
vt 0.737500 0.619565
vt 0.750000 0.619565
vt 0.762500 0.619565
vt 0.775000 0.619565
vt 0.787500 0.619565
vt 0.800000 0.619565
vt 0.812500 0.619565
vt 0.825000 0.619565
vt 0.837500 0.619565
vt 0.850000 0.619565
vt 0.637500 0.608696
vt 0.650000 0.608696
vt 0.662500 0.608696
vt 0.675000 0.608696
vt 0.687500 0.608696
vt 0.700000 0.608696
vt 0.712500 0.608696
vt 0.725000 0.608696
vt 0.737500 0.608696
vt 0.750000 0.608696
vt 0.762500 0.608696
vt 0.775000 0.608696
vt 0.787500 0.608696
vt 0.800000 0.608696
vt 0.812500 0.608696
vt 0.825000 0.608696
vt 0.837500 0.608696
vt 0.850000 0.608696
vt 0.637500 0.597826
vt 0.650000 0.597826
vt 0.662500 0.597826
vt 0.675000 0.597826
vt 0.687500 0.597826
vt 0.700000 0.597826
vt 0.712500 0.597826
vt 0.725000 0.597826
vt 0.737500 0.597826
vt 0.750000 0.597826
vt 0.762500 0.597826
vt 0.775000 0.597826
vt 0.787500 0.597826
vt 0.800000 0.597826
vt 0.812500 0.597826
vt 0.825000 0.597826
vt 0.837500 0.597826
vt 0.850000 0.597826
vt 0.637500 0.586957
vt 0.650000 0.586957
vt 0.662500 0.586957
vt 0.675000 0.586957
vt 0.687500 0.586957
vt 0.700000 0.586957
vt 0.712500 0.586957
vt 0.725000 0.586957
vt 0.737500 0.586957
vt 0.750000 0.586957
vt 0.762500 0.586957
vt 0.775000 0.586957
vt 0.787500 0.586957
vt 0.800000 0.586957
vt 0.812500 0.586957
vt 0.825000 0.586957
vt 0.837500 0.586957
vt 0.850000 0.586957
vt 0.637500 0.576087
vt 0.650000 0.576087
vt 0.662500 0.576087
vt 0.675000 0.576087
vt 0.687500 0.576087
vt 0.700000 0.576087
vt 0.712500 0.576087
vt 0.725000 0.576087
vt 0.737500 0.576087
vt 0.750000 0.576087
vt 0.762500 0.576087
vt 0.775000 0.576087
vt 0.787500 0.576087
vt 0.800000 0.576087
vt 0.812500 0.576087
vt 0.825000 0.576087
vt 0.837500 0.576087
vt 0.850000 0.576087
vt 0.637500 0.565217
vt 0.650000 0.565217
vt 0.662500 0.565217
vt 0.675000 0.565217
vt 0.687500 0.565217
vt 0.700000 0.565217
vt 0.712500 0.565217
vt 0.725000 0.565217
vt 0.737500 0.565217
vt 0.750000 0.565217
vt 0.762500 0.565217
vt 0.775000 0.565217
vt 0.787500 0.565217
vt 0.800000 0.565217
vt 0.812500 0.565217
vt 0.825000 0.565217
vt 0.837500 0.565217
vt 0.850000 0.565217
vt 0.637500 0.554348
vt 0.650000 0.554348
vt 0.662500 0.554348
vt 0.675000 0.554348
vt 0.687500 0.554348
vt 0.700000 0.554348
vt 0.712500 0.554348
vt 0.725000 0.554348
vt 0.737500 0.554348
vt 0.750000 0.554348
vt 0.762500 0.554348
vt 0.775000 0.554348
vt 0.787500 0.554348
vt 0.800000 0.554348
vt 0.812500 0.554348
vt 0.825000 0.554348
vt 0.837500 0.554348
vt 0.850000 0.554348
vt 0.637500 0.543478
vt 0.650000 0.543478
vt 0.662500 0.543478
vt 0.675000 0.543478
vt 0.687500 0.543478
vt 0.700000 0.543478
vt 0.712500 0.543478
vt 0.725000 0.543478
vt 0.737500 0.543478
vt 0.750000 0.543478
vt 0.762500 0.543478
vt 0.775000 0.543478
vt 0.787500 0.543478
vt 0.800000 0.543478
vt 0.812500 0.543478
vt 0.825000 0.543478
vt 0.837500 0.543478
vt 0.850000 0.543478
vt 0.637500 0.532609
vt 0.650000 0.532609
vt 0.662500 0.532609
vt 0.675000 0.532609
vt 0.687500 0.532609
vt 0.700000 0.532609
vt 0.712500 0.532609
vt 0.725000 0.532609
vt 0.737500 0.532609
vt 0.750000 0.532609
vt 0.762500 0.532609
vt 0.775000 0.532609
vt 0.787500 0.532609
vt 0.800000 0.532609
vt 0.812500 0.532609
vt 0.825000 0.532609
vt 0.837500 0.532609
vt 0.850000 0.532609
vt 0.637500 0.521739
vt 0.650000 0.521739
vt 0.662500 0.521739
vt 0.675000 0.521739
vt 0.687500 0.521739
vt 0.700000 0.521739
vt 0.712500 0.521739
vt 0.725000 0.521739
vt 0.737500 0.521739
vt 0.750000 0.521739
vt 0.762500 0.521739
vt 0.775000 0.521739
vt 0.787500 0.521739
vt 0.800000 0.521739
vt 0.812500 0.521739
vt 0.825000 0.521739
vt 0.837500 0.521739
vt 0.850000 0.521739
vt 0.637500 0.510870
vt 0.650000 0.510870
vt 0.662500 0.510870
vt 0.675000 0.510870
vt 0.687500 0.510870
vt 0.700000 0.510870
vt 0.712500 0.510870
vt 0.725000 0.510870
vt 0.737500 0.510870
vt 0.750000 0.510870
vt 0.762500 0.510870
vt 0.775000 0.510870
vt 0.787500 0.510870
vt 0.800000 0.510870
vt 0.812500 0.510870
vt 0.825000 0.510870
vt 0.837500 0.510870
vt 0.850000 0.510870
vt 0.637500 0.500000
vt 0.650000 0.500000
vt 0.662500 0.500000
vt 0.675000 0.500000
vt 0.687500 0.500000
vt 0.700000 0.500000
vt 0.712500 0.500000
vt 0.725000 0.500000
vt 0.737500 0.500000
vt 0.750000 0.500000
vt 0.762500 0.500000
vt 0.775000 0.500000
vt 0.787500 0.500000
vt 0.800000 0.500000
vt 0.812500 0.500000
vt 0.825000 0.500000
vt 0.837500 0.500000
vt 0.850000 0.500000
vt 0.125000 0.728261
vt 0.137500 0.728261
vt 0.137500 0.739130
vt 0.125000 0.739130
vt 0.150000 0.728261
vt 0.150000 0.739130
vt 0.162500 0.728261
vt 0.162500 0.739130
vt 0.175000 0.728261
vt 0.175000 0.739130
vt 0.187500 0.728261
vt 0.187500 0.739130
vt 0.200000 0.728261
vt 0.200000 0.739130
vt 0.212500 0.728261
vt 0.212500 0.739130
vt 0.225000 0.728261
vt 0.225000 0.739130
vt 0.237500 0.728261
vt 0.237500 0.739130
vt 0.250000 0.728261
vt 0.250000 0.739130
vt 0.262500 0.728261
vt 0.262500 0.739130
vt 0.275000 0.728261
vt 0.275000 0.739130
vt 0.287500 0.728261
vt 0.287500 0.739130
vt 0.300000 0.728261
vt 0.300000 0.739130
vt 0.312500 0.728261
vt 0.312500 0.739130
vt 0.325000 0.728261
vt 0.325000 0.739130
vt 0.337500 0.728261
vt 0.337500 0.739130
vt 0.350000 0.728261
vt 0.350000 0.739130
vt 0.125000 0.717391
vt 0.137500 0.717391
vt 0.150000 0.717391
vt 0.162500 0.717391
vt 0.175000 0.717391
vt 0.187500 0.717391
vt 0.200000 0.717391
vt 0.212500 0.717391
vt 0.225000 0.717391
vt 0.237500 0.717391
vt 0.250000 0.717391
vt 0.262500 0.717391
vt 0.275000 0.717391
vt 0.287500 0.717391
vt 0.300000 0.717391
vt 0.312500 0.717391
vt 0.325000 0.717391
vt 0.337500 0.717391
vt 0.350000 0.717391
vt 0.125000 0.706522
vt 0.137500 0.706522
vt 0.150000 0.706522
vt 0.162500 0.706522
vt 0.175000 0.706522
vt 0.187500 0.706522
vt 0.200000 0.706522
vt 0.212500 0.706522
vt 0.225000 0.706522
vt 0.237500 0.706522
vt 0.250000 0.706522
vt 0.262500 0.706522
vt 0.275000 0.706522
vt 0.287500 0.706522
vt 0.300000 0.706522
vt 0.312500 0.706522
vt 0.325000 0.706522
vt 0.337500 0.706522
vt 0.350000 0.706522
vt 0.125000 0.695652
vt 0.137500 0.695652
vt 0.150000 0.695652
vt 0.162500 0.695652
vt 0.175000 0.695652
vt 0.187500 0.695652
vt 0.200000 0.695652
vt 0.212500 0.695652
vt 0.225000 0.695652
vt 0.237500 0.695652
vt 0.250000 0.695652
vt 0.262500 0.695652
vt 0.275000 0.695652
vt 0.287500 0.695652
vt 0.300000 0.695652
vt 0.312500 0.695652
vt 0.325000 0.695652
vt 0.337500 0.695652
vt 0.350000 0.695652
vt 0.125000 0.684783
vt 0.137500 0.684783
vt 0.150000 0.684783
vt 0.162500 0.684783
vt 0.175000 0.684783
vt 0.187500 0.684783
vt 0.200000 0.684783
vt 0.212500 0.684783
vt 0.225000 0.684783
vt 0.237500 0.684783
vt 0.250000 0.684783
vt 0.262500 0.684783
vt 0.275000 0.684783
vt 0.287500 0.684783
vt 0.300000 0.684783
vt 0.312500 0.684783
vt 0.325000 0.684783
vt 0.337500 0.684783
vt 0.350000 0.684783
vt 0.125000 0.673913
vt 0.137500 0.673913
vt 0.150000 0.673913
vt 0.162500 0.673913
vt 0.175000 0.673913
vt 0.187500 0.673913
vt 0.200000 0.673913
vt 0.212500 0.673913
vt 0.225000 0.673913
vt 0.237500 0.673913
vt 0.250000 0.673913
vt 0.262500 0.673913
vt 0.275000 0.673913
vt 0.287500 0.673913
vt 0.300000 0.673913
vt 0.312500 0.673913
vt 0.325000 0.673913
vt 0.337500 0.673913
vt 0.350000 0.673913
vt 0.125000 0.663043
vt 0.137500 0.663043
vt 0.150000 0.663043
vt 0.162500 0.663043
vt 0.175000 0.663043
vt 0.187500 0.663043
vt 0.200000 0.663043
vt 0.212500 0.663043
vt 0.225000 0.663043
vt 0.237500 0.663043
vt 0.250000 0.663043
vt 0.262500 0.663043
vt 0.275000 0.663043
vt 0.287500 0.663043
vt 0.300000 0.663043
vt 0.312500 0.663043
vt 0.325000 0.663043
vt 0.337500 0.663043
vt 0.350000 0.663043
vt 0.125000 0.652174
vt 0.137500 0.652174
vt 0.150000 0.652174
vt 0.162500 0.652174
vt 0.175000 0.652174
vt 0.187500 0.652174
vt 0.200000 0.652174
vt 0.212500 0.652174
vt 0.225000 0.652174
vt 0.237500 0.652174
vt 0.250000 0.652174
vt 0.262500 0.652174
vt 0.275000 0.652174
vt 0.287500 0.652174
vt 0.300000 0.652174
vt 0.312500 0.652174
vt 0.325000 0.652174
vt 0.337500 0.652174
vt 0.350000 0.652174
vt 0.125000 0.641304
vt 0.137500 0.641304
vt 0.150000 0.641304
vt 0.162500 0.641304
vt 0.175000 0.641304
vt 0.187500 0.641304
vt 0.200000 0.641304
vt 0.212500 0.641304
vt 0.225000 0.641304
vt 0.237500 0.641304
vt 0.250000 0.641304
vt 0.262500 0.641304
vt 0.275000 0.641304
vt 0.287500 0.641304
vt 0.300000 0.641304
vt 0.312500 0.641304
vt 0.325000 0.641304
vt 0.337500 0.641304
vt 0.350000 0.641304
vt 0.125000 0.630435
vt 0.137500 0.630435
vt 0.150000 0.630435
vt 0.162500 0.630435
vt 0.175000 0.630435
vt 0.187500 0.630435
vt 0.200000 0.630435
vt 0.212500 0.630435
vt 0.225000 0.630435
vt 0.237500 0.630435
vt 0.250000 0.630435
vt 0.262500 0.630435
vt 0.275000 0.630435
vt 0.287500 0.630435
vt 0.300000 0.630435
vt 0.312500 0.630435
vt 0.325000 0.630435
vt 0.337500 0.630435
vt 0.350000 0.630435
vt 0.125000 0.619565
vt 0.137500 0.619565
vt 0.150000 0.619565
vt 0.162500 0.619565
vt 0.175000 0.619565
vt 0.187500 0.619565
vt 0.200000 0.619565
vt 0.212500 0.619565
vt 0.225000 0.619565
vt 0.237500 0.619565
vt 0.250000 0.619565
vt 0.262500 0.619565
vt 0.275000 0.619565
vt 0.287500 0.619565
vt 0.300000 0.619565
vt 0.312500 0.619565
vt 0.325000 0.619565
vt 0.337500 0.619565
vt 0.350000 0.619565
vt 0.125000 0.608696
vt 0.137500 0.608696
vt 0.150000 0.608696
vt 0.162500 0.608696
vt 0.175000 0.608696
vt 0.187500 0.608696
vt 0.200000 0.608696
vt 0.212500 0.608696
vt 0.225000 0.608696
vt 0.237500 0.608696
vt 0.250000 0.608696
vt 0.262500 0.608696
vt 0.275000 0.608696
vt 0.287500 0.608696
vt 0.300000 0.608696
vt 0.312500 0.608696
vt 0.325000 0.608696
vt 0.337500 0.608696
vt 0.350000 0.608696
vt 0.125000 0.597826
vt 0.137500 0.597826
vt 0.150000 0.597826
vt 0.162500 0.597826
vt 0.175000 0.597826
vt 0.187500 0.597826
vt 0.200000 0.597826
vt 0.212500 0.597826
vt 0.225000 0.597826
vt 0.237500 0.597826
vt 0.250000 0.597826
vt 0.262500 0.597826
vt 0.275000 0.597826
vt 0.287500 0.597826
vt 0.300000 0.597826
vt 0.312500 0.597826
vt 0.325000 0.597826
vt 0.337500 0.597826
vt 0.350000 0.597826
vt 0.125000 0.586957
vt 0.137500 0.586957
vt 0.150000 0.586957
vt 0.162500 0.586957
vt 0.175000 0.586957
vt 0.187500 0.586957
vt 0.200000 0.586957
vt 0.212500 0.586957
vt 0.225000 0.586957
vt 0.237500 0.586957
vt 0.250000 0.586957
vt 0.262500 0.586957
vt 0.275000 0.586957
vt 0.287500 0.586957
vt 0.300000 0.586957
vt 0.312500 0.586957
vt 0.325000 0.586957
vt 0.337500 0.586957
vt 0.350000 0.586957
vt 0.125000 0.576087
vt 0.137500 0.576087
vt 0.150000 0.576087
vt 0.162500 0.576087
vt 0.175000 0.576087
vt 0.187500 0.576087
vt 0.200000 0.576087
vt 0.212500 0.576087
vt 0.225000 0.576087
vt 0.237500 0.576087
vt 0.250000 0.576087
vt 0.262500 0.576087
vt 0.275000 0.576087
vt 0.287500 0.576087
vt 0.300000 0.576087
vt 0.312500 0.576087
vt 0.325000 0.576087
vt 0.337500 0.576087
vt 0.350000 0.576087
vt 0.125000 0.565217
vt 0.137500 0.565217
vt 0.150000 0.565217
vt 0.162500 0.565217
vt 0.175000 0.565217
vt 0.187500 0.565217
vt 0.200000 0.565217
vt 0.212500 0.565217
vt 0.225000 0.565217
vt 0.237500 0.565217
vt 0.250000 0.565217
vt 0.262500 0.565217
vt 0.275000 0.565217
vt 0.287500 0.565217
vt 0.300000 0.565217
vt 0.312500 0.565217
vt 0.325000 0.565217
vt 0.337500 0.565217
vt 0.350000 0.565217
vt 0.125000 0.554348
vt 0.137500 0.554348
vt 0.150000 0.554348
vt 0.162500 0.554348
vt 0.175000 0.554348
vt 0.187500 0.554348
vt 0.200000 0.554348
vt 0.212500 0.554348
vt 0.225000 0.554348
vt 0.237500 0.554348
vt 0.250000 0.554348
vt 0.262500 0.554348
vt 0.275000 0.554348
vt 0.287500 0.554348
vt 0.300000 0.554348
vt 0.312500 0.554348
vt 0.325000 0.554348
vt 0.337500 0.554348
vt 0.350000 0.554348
vt 0.125000 0.543478
vt 0.137500 0.543478
vt 0.150000 0.543478
vt 0.162500 0.543478
vt 0.175000 0.543478
vt 0.187500 0.543478
vt 0.200000 0.543478
vt 0.212500 0.543478
vt 0.225000 0.543478
vt 0.237500 0.543478
vt 0.250000 0.543478
vt 0.262500 0.543478
vt 0.275000 0.543478
vt 0.287500 0.543478
vt 0.300000 0.543478
vt 0.312500 0.543478
vt 0.325000 0.543478
vt 0.337500 0.543478
vt 0.350000 0.543478
vt 0.125000 0.532609
vt 0.137500 0.532609
vt 0.150000 0.532609
vt 0.162500 0.532609
vt 0.175000 0.532609
vt 0.187500 0.532609
vt 0.200000 0.532609
vt 0.212500 0.532609
vt 0.225000 0.532609
vt 0.237500 0.532609
vt 0.250000 0.532609
vt 0.262500 0.532609
vt 0.275000 0.532609
vt 0.287500 0.532609
vt 0.300000 0.532609
vt 0.312500 0.532609
vt 0.325000 0.532609
vt 0.337500 0.532609
vt 0.350000 0.532609
vt 0.125000 0.521739
vt 0.137500 0.521739
vt 0.150000 0.521739
vt 0.162500 0.521739
vt 0.175000 0.521739
vt 0.187500 0.521739
vt 0.200000 0.521739
vt 0.212500 0.521739
vt 0.225000 0.521739
vt 0.237500 0.521739
vt 0.250000 0.521739
vt 0.262500 0.521739
vt 0.275000 0.521739
vt 0.287500 0.521739
vt 0.300000 0.521739
vt 0.312500 0.521739
vt 0.325000 0.521739
vt 0.337500 0.521739
vt 0.350000 0.521739
vt 0.125000 0.510870
vt 0.137500 0.510870
vt 0.150000 0.510870
vt 0.162500 0.510870
vt 0.175000 0.510870
vt 0.187500 0.510870
vt 0.200000 0.510870
vt 0.212500 0.510870
vt 0.225000 0.510870
vt 0.237500 0.510870
vt 0.250000 0.510870
vt 0.262500 0.510870
vt 0.275000 0.510870
vt 0.287500 0.510870
vt 0.300000 0.510870
vt 0.312500 0.510870
vt 0.325000 0.510870
vt 0.337500 0.510870
vt 0.350000 0.510870
vt 0.125000 0.500000
vt 0.137500 0.500000
vt 0.150000 0.500000
vt 0.162500 0.500000
vt 0.175000 0.500000
vt 0.187500 0.500000
vt 0.200000 0.500000
vt 0.212500 0.500000
vt 0.225000 0.500000
vt 0.237500 0.500000
vt 0.250000 0.500000
vt 0.262500 0.500000
vt 0.275000 0.500000
vt 0.287500 0.500000
vt 0.300000 0.500000
vt 0.312500 0.500000
vt 0.325000 0.500000
vt 0.337500 0.500000
vt 0.350000 0.500000
vt 0.625000 0.262500
vt 0.375000 0.262500
vt 0.625000 0.275000
vt 0.375000 0.275000
vt 0.625000 0.287500
vt 0.375000 0.287500
vt 0.625000 0.300000
vt 0.375000 0.300000
vt 0.625000 0.312500
vt 0.375000 0.312500
vt 0.625000 0.325000
vt 0.375000 0.325000
vt 0.625000 0.337500
vt 0.375000 0.337500
vt 0.625000 0.350000
vt 0.375000 0.350000
vt 0.625000 0.362500
vt 0.375000 0.362500
vt 0.625000 0.375000
vt 0.375000 0.375000
vt 0.625000 0.387500
vt 0.375000 0.387500
vt 0.625000 0.400000
vt 0.375000 0.400000
vt 0.625000 0.412500
vt 0.375000 0.412500
vt 0.625000 0.425000
vt 0.375000 0.425000
vt 0.625000 0.437500
vt 0.375000 0.437500
vt 0.625000 0.450000
vt 0.375000 0.450000
vt 0.625000 0.462500
vt 0.375000 0.462500
vt 0.625000 0.475000
vt 0.375000 0.475000
vt 0.137500 0.750000
vt 0.125000 0.750000
vt 0.150000 0.750000
vt 0.162500 0.750000
vt 0.175000 0.750000
vt 0.187500 0.750000
vt 0.200000 0.750000
vt 0.212500 0.750000
vt 0.225000 0.750000
vt 0.237500 0.750000
vt 0.250000 0.750000
vt 0.262500 0.750000
vt 0.275000 0.750000
vt 0.287500 0.750000
vt 0.300000 0.750000
vt 0.312500 0.750000
vt 0.325000 0.750000
vt 0.337500 0.750000
vt 0.350000 0.750000
vt 0.625000 0.762500
vt 0.375000 0.762500
vt 0.625000 0.775000
vt 0.375000 0.775000
vt 0.625000 0.787500
vt 0.375000 0.787500
vt 0.625000 0.800000
vt 0.375000 0.800000
vt 0.625000 0.812500
vt 0.375000 0.812500
vt 0.625000 0.825000
vt 0.375000 0.825000
vt 0.625000 0.837500
vt 0.375000 0.837500
vt 0.625000 0.850000
vt 0.375000 0.850000
vt 0.625000 0.862500
vt 0.375000 0.862500
vt 0.625000 0.875000
vt 0.375000 0.875000
vt 0.625000 0.887500
vt 0.375000 0.887500
vt 0.625000 0.900000
vt 0.375000 0.900000
vt 0.625000 0.912500
vt 0.375000 0.912500
vt 0.625000 0.925000
vt 0.375000 0.925000
vt 0.625000 0.937500
vt 0.375000 0.937500
vt 0.625000 0.950000
vt 0.375000 0.950000
vt 0.625000 0.962500
vt 0.375000 0.962500
vt 0.625000 0.975000
vt 0.375000 0.975000
vt 0.637500 0.750000
vt 0.650000 0.750000
vt 0.662500 0.750000
vt 0.675000 0.750000
vt 0.687500 0.750000
vt 0.700000 0.750000
vt 0.712500 0.750000
vt 0.725000 0.750000
vt 0.737500 0.750000
vt 0.750000 0.750000
vt 0.762500 0.750000
vt 0.775000 0.750000
vt 0.787500 0.750000
vt 0.800000 0.750000
vt 0.812500 0.750000
vt 0.825000 0.750000
vt 0.837500 0.750000
vt 0.850000 0.750000
s 0
usemtl Material
f 990/1/1 53/2/1 7/3/1 134/4/1
f 135/5/2 134/6/2 7/7/2 8/8/2
f 9/9/3 74/10/3 5/11/3 6/12/3
f 572/13/4 75/14/4 4/15/4 153/16/4
f 75/14/5 52/17/5 3/18/5 4/15/5
f 97/19/6 172/20/6 1/21/6 2/22/6
f 2/22/5 1/21/5 31/23/5 96/24/5
f 96/24/5 31/23/5 32/25/5 95/26/5
f 95/26/5 32/25/5 33/27/5 94/28/5
f 94/28/5 33/27/5 34/29/5 93/30/5
f 93/30/5 34/29/5 35/31/5 92/32/5
f 92/32/5 35/31/5 36/33/5 91/34/5
f 91/34/5 36/33/5 37/35/5 90/36/5
f 90/36/5 37/35/5 38/37/5 89/38/5
f 89/38/5 38/37/5 39/39/5 88/40/5
f 88/40/5 39/39/5 40/41/5 87/42/5
f 87/42/5 40/41/5 41/43/5 86/44/5
f 86/44/5 41/43/5 42/45/5 85/46/5
f 85/46/5 42/45/5 43/47/5 84/48/5
f 84/48/5 43/47/5 44/49/5 83/50/5
f 83/50/5 44/49/5 45/51/5 82/52/5
f 82/52/5 45/51/5 46/53/5 81/54/5
f 81/54/5 46/53/5 47/55/5 80/56/5
f 80/56/5 47/55/5 48/57/5 79/58/5
f 79/58/5 48/57/5 49/59/5 78/60/5
f 78/60/5 49/59/5 50/61/5 77/62/5
f 77/62/5 50/61/5 51/63/5 76/64/5
f 76/64/5 51/63/5 52/17/5 75/14/5
f 97/65/4 2/22/4 96/24/4 173/66/4
f 173/66/4 96/24/4 95/26/4 192/67/4
f 192/67/4 95/26/4 94/28/4 211/68/4
f 211/68/4 94/28/4 93/30/4 230/69/4
f 230/69/4 93/30/4 92/32/4 249/70/4
f 249/70/4 92/32/4 91/34/4 268/71/4
f 268/71/4 91/34/4 90/36/4 287/72/4
f 287/72/4 90/36/4 89/38/4 306/73/4
f 306/73/4 89/38/4 88/40/4 325/74/4
f 325/74/4 88/40/4 87/42/4 344/75/4
f 344/75/4 87/42/4 86/44/4 363/76/4
f 363/76/4 86/44/4 85/46/4 382/77/4
f 382/77/4 85/46/4 84/48/4 401/78/4
f 401/78/4 84/48/4 83/50/4 420/79/4
f 420/79/4 83/50/4 82/52/4 439/80/4
f 439/80/4 82/52/4 81/54/4 458/81/4
f 458/81/4 81/54/4 80/56/4 477/82/4
f 477/82/4 80/56/4 79/58/4 496/83/4
f 496/83/4 79/58/4 78/60/4 515/84/4
f 515/84/4 78/60/4 77/62/4 534/85/4
f 534/85/4 77/62/4 76/64/4 553/86/4
f 553/86/4 76/64/4 75/14/4 572/13/4
f 8/87/3 7/88/3 53/89/3 30/90/3
f 30/90/3 53/89/3 54/91/3 29/92/3
f 29/92/3 54/91/3 55/93/3 28/94/3
f 28/94/3 55/93/3 56/95/3 27/96/3
f 27/96/3 56/95/3 57/97/3 26/98/3
f 26/98/3 57/97/3 58/99/3 25/100/3
f 25/100/3 58/99/3 59/101/3 24/102/3
f 24/102/3 59/101/3 60/103/3 23/104/3
f 23/104/3 60/103/3 61/105/3 22/106/3
f 22/106/3 61/105/3 62/107/3 21/108/3
f 21/108/3 62/107/3 63/109/3 20/110/3
f 20/110/3 63/109/3 64/111/3 19/112/3
f 19/112/3 64/111/3 65/113/3 18/114/3
f 18/114/3 65/113/3 66/115/3 17/116/3
f 17/116/3 66/115/3 67/117/3 16/118/3
f 16/118/3 67/117/3 68/119/3 15/120/3
f 15/120/3 68/119/3 69/121/3 14/122/3
f 14/122/3 69/121/3 70/123/3 13/124/3
f 13/124/3 70/123/3 71/125/3 12/126/3
f 12/126/3 71/125/3 72/127/3 11/128/3
f 11/128/3 72/127/3 73/129/3 10/130/3
f 10/130/3 73/129/3 74/10/3 9/9/3
f 154/131/1 5/132/1 74/133/1 591/134/1
f 591/134/1 74/133/1 73/135/1 610/136/1
f 610/136/1 73/135/1 72/137/1 629/138/1
f 629/138/1 72/137/1 71/139/1 648/140/1
f 648/140/1 71/139/1 70/141/1 667/142/1
f 667/142/1 70/141/1 69/143/1 686/144/1
f 686/144/1 69/143/1 68/145/1 705/146/1
f 705/146/1 68/145/1 67/147/1 724/148/1
f 724/148/1 67/147/1 66/149/1 743/150/1
f 743/150/1 66/149/1 65/151/1 762/152/1
f 762/152/1 65/151/1 64/153/1 781/154/1
f 781/154/1 64/153/1 63/155/1 800/156/1
f 800/156/1 63/155/1 62/157/1 819/158/1
f 819/158/1 62/157/1 61/159/1 838/160/1
f 838/160/1 61/159/1 60/161/1 857/162/1
f 857/162/1 60/161/1 59/163/1 876/164/1
f 876/164/1 59/163/1 58/165/1 895/166/1
f 895/166/1 58/165/1 57/167/1 914/168/1
f 914/168/1 57/167/1 56/169/1 933/170/1
f 933/170/1 56/169/1 55/171/1 952/172/1
f 952/172/1 55/171/1 54/173/1 971/174/1
f 971/174/1 54/173/1 53/2/1 990/1/1
f 51/63/1 989/175/1 1008/176/1 52/17/1
f 989/175/1 988/177/1 1007/178/1 1008/176/1
f 988/177/1 987/179/1 1006/180/1 1007/178/1
f 987/179/1 986/181/1 1005/182/1 1006/180/1
f 986/181/1 985/183/1 1004/184/1 1005/182/1
f 985/183/1 984/185/1 1003/186/1 1004/184/1
f 984/185/1 983/187/1 1002/188/1 1003/186/1
f 983/187/1 982/189/1 1001/190/1 1002/188/1
f 982/189/1 981/191/1 1000/192/1 1001/190/1
f 981/191/1 980/193/1 999/194/1 1000/192/1
f 980/193/1 979/195/1 998/196/1 999/194/1
f 979/195/1 978/197/1 997/198/1 998/196/1
f 978/197/1 977/199/1 996/200/1 997/198/1
f 977/199/1 976/201/1 995/202/1 996/200/1
f 976/201/1 975/203/1 994/204/1 995/202/1
f 975/203/1 974/205/1 993/206/1 994/204/1
f 974/205/1 973/207/1 992/208/1 993/206/1
f 973/207/1 972/209/1 991/210/1 992/208/1
f 972/209/1 971/174/1 990/1/1 991/210/1
f 50/61/1 970/211/1 989/175/1 51/63/1
f 970/211/1 969/212/1 988/177/1 989/175/1
f 969/212/1 968/213/1 987/179/1 988/177/1
f 968/213/1 967/214/1 986/181/1 987/179/1
f 967/214/1 966/215/1 985/183/1 986/181/1
f 966/215/1 965/216/1 984/185/1 985/183/1
f 965/216/1 964/217/1 983/187/1 984/185/1
f 964/217/1 963/218/1 982/189/1 983/187/1
f 963/218/1 962/219/1 981/191/1 982/189/1
f 962/219/1 961/220/1 980/193/1 981/191/1
f 961/220/1 960/221/1 979/195/1 980/193/1
f 960/221/1 959/222/1 978/197/1 979/195/1
f 959/222/1 958/223/1 977/199/1 978/197/1
f 958/223/1 957/224/1 976/201/1 977/199/1
f 957/224/1 956/225/1 975/203/1 976/201/1
f 956/225/1 955/226/1 974/205/1 975/203/1
f 955/226/1 954/227/1 973/207/1 974/205/1
f 954/227/1 953/228/1 972/209/1 973/207/1
f 953/228/1 952/172/1 971/174/1 972/209/1
f 49/59/1 951/229/1 970/211/1 50/61/1
f 951/229/1 950/230/1 969/212/1 970/211/1
f 950/230/1 949/231/1 968/213/1 969/212/1
f 949/231/1 948/232/1 967/214/1 968/213/1
f 948/232/1 947/233/1 966/215/1 967/214/1
f 947/233/1 946/234/1 965/216/1 966/215/1
f 946/234/1 945/235/1 964/217/1 965/216/1
f 945/235/1 944/236/1 963/218/1 964/217/1
f 944/236/1 943/237/1 962/219/1 963/218/1
f 943/237/1 942/238/1 961/220/1 962/219/1
f 942/238/1 941/239/1 960/221/1 961/220/1
f 941/239/1 940/240/1 959/222/1 960/221/1
f 940/240/1 939/241/1 958/223/1 959/222/1
f 939/241/1 938/242/1 957/224/1 958/223/1
f 938/242/1 937/243/1 956/225/1 957/224/1
f 937/243/1 936/244/1 955/226/1 956/225/1
f 936/244/1 935/245/1 954/227/1 955/226/1
f 935/245/1 934/246/1 953/228/1 954/227/1
f 934/246/1 933/170/1 952/172/1 953/228/1
f 48/57/1 932/247/1 951/229/1 49/59/1
f 932/247/1 931/248/1 950/230/1 951/229/1
f 931/248/1 930/249/1 949/231/1 950/230/1
f 930/249/1 929/250/1 948/232/1 949/231/1
f 929/250/1 928/251/1 947/233/1 948/232/1
f 928/251/1 927/252/1 946/234/1 947/233/1
f 927/252/1 926/253/1 945/235/1 946/234/1
f 926/253/1 925/254/1 944/236/1 945/235/1
f 925/254/1 924/255/1 943/237/1 944/236/1
f 924/255/1 923/256/1 942/238/1 943/237/1
f 923/256/1 922/257/1 941/239/1 942/238/1
f 922/257/1 921/258/1 940/240/1 941/239/1
f 921/258/1 920/259/1 939/241/1 940/240/1
f 920/259/1 919/260/1 938/242/1 939/241/1
f 919/260/1 918/261/1 937/243/1 938/242/1
f 918/261/1 917/262/1 936/244/1 937/243/1
f 917/262/1 916/263/1 935/245/1 936/244/1
f 916/263/1 915/264/1 934/246/1 935/245/1
f 915/264/1 914/168/1 933/170/1 934/246/1
f 47/55/1 913/265/1 932/247/1 48/57/1
f 913/265/1 912/266/1 931/248/1 932/247/1
f 912/266/1 911/267/1 930/249/1 931/248/1
f 911/267/1 910/268/1 929/250/1 930/249/1
f 910/268/1 909/269/1 928/251/1 929/250/1
f 909/269/1 908/270/1 927/252/1 928/251/1
f 908/270/1 907/271/1 926/253/1 927/252/1
f 907/271/1 906/272/1 925/254/1 926/253/1
f 906/272/1 905/273/1 924/255/1 925/254/1
f 905/273/1 904/274/1 923/256/1 924/255/1
f 904/274/1 903/275/1 922/257/1 923/256/1
f 903/275/1 902/276/1 921/258/1 922/257/1
f 902/276/1 901/277/1 920/259/1 921/258/1
f 901/277/1 900/278/1 919/260/1 920/259/1
f 900/278/1 899/279/1 918/261/1 919/260/1
f 899/279/1 898/280/1 917/262/1 918/261/1
f 898/280/1 897/281/1 916/263/1 917/262/1
f 897/281/1 896/282/1 915/264/1 916/263/1
f 896/282/1 895/166/1 914/168/1 915/264/1
f 46/53/1 894/283/1 913/265/1 47/55/1
f 894/283/1 893/284/1 912/266/1 913/265/1
f 893/284/1 892/285/1 911/267/1 912/266/1
f 892/285/1 891/286/1 910/268/1 911/267/1
f 891/286/1 890/287/1 909/269/1 910/268/1
f 890/287/1 889/288/1 908/270/1 909/269/1
f 889/288/1 888/289/1 907/271/1 908/270/1
f 888/289/1 887/290/1 906/272/1 907/271/1
f 887/290/1 886/291/1 905/273/1 906/272/1
f 886/291/1 885/292/1 904/274/1 905/273/1
f 885/292/1 884/293/1 903/275/1 904/274/1
f 884/293/1 883/294/1 902/276/1 903/275/1
f 883/294/1 882/295/1 901/277/1 902/276/1
f 882/295/1 881/296/1 900/278/1 901/277/1
f 881/296/1 880/297/1 899/279/1 900/278/1
f 880/297/1 879/298/1 898/280/1 899/279/1
f 879/298/1 878/299/1 897/281/1 898/280/1
f 878/299/1 877/300/1 896/282/1 897/281/1
f 877/300/1 876/164/1 895/166/1 896/282/1
f 45/51/1 875/301/1 894/283/1 46/53/1
f 875/301/1 874/302/1 893/284/1 894/283/1
f 874/302/1 873/303/1 892/285/1 893/284/1
f 873/303/1 872/304/1 891/286/1 892/285/1
f 872/304/1 871/305/1 890/287/1 891/286/1
f 871/305/1 870/306/1 889/288/1 890/287/1
f 870/306/1 869/307/1 888/289/1 889/288/1
f 869/307/1 868/308/1 887/290/1 888/289/1
f 868/308/1 867/309/1 886/291/1 887/290/1
f 867/309/1 866/310/1 885/292/1 886/291/1
f 866/310/1 865/311/1 884/293/1 885/292/1
f 865/311/1 864/312/1 883/294/1 884/293/1
f 864/312/1 863/313/1 882/295/1 883/294/1
f 863/313/1 862/314/1 881/296/1 882/295/1
f 862/314/1 861/315/1 880/297/1 881/296/1
f 861/315/1 860/316/1 879/298/1 880/297/1
f 860/316/1 859/317/1 878/299/1 879/298/1
f 859/317/1 858/318/1 877/300/1 878/299/1
f 858/318/1 857/162/1 876/164/1 877/300/1
f 44/49/1 856/319/1 875/301/1 45/51/1
f 856/319/1 855/320/1 874/302/1 875/301/1
f 855/320/1 854/321/1 873/303/1 874/302/1
f 854/321/1 853/322/1 872/304/1 873/303/1
f 853/322/1 852/323/1 871/305/1 872/304/1
f 852/323/1 851/324/1 870/306/1 871/305/1
f 851/324/1 850/325/1 869/307/1 870/306/1
f 850/325/1 849/326/1 868/308/1 869/307/1
f 849/326/1 848/327/1 867/309/1 868/308/1
f 848/327/1 847/328/1 866/310/1 867/309/1
f 847/328/1 846/329/1 865/311/1 866/310/1
f 846/329/1 845/330/1 864/312/1 865/311/1
f 845/330/1 844/331/1 863/313/1 864/312/1
f 844/331/1 843/332/1 862/314/1 863/313/1
f 843/332/1 842/333/1 861/315/1 862/314/1
f 842/333/1 841/334/1 860/316/1 861/315/1
f 841/334/1 840/335/1 859/317/1 860/316/1
f 840/335/1 839/336/1 858/318/1 859/317/1
f 839/336/1 838/160/1 857/162/1 858/318/1
f 43/47/1 837/337/1 856/319/1 44/49/1
f 837/337/1 836/338/1 855/320/1 856/319/1
f 836/338/1 835/339/1 854/321/1 855/320/1
f 835/339/1 834/340/1 853/322/1 854/321/1
f 834/340/1 833/341/1 852/323/1 853/322/1
f 833/341/1 832/342/1 851/324/1 852/323/1
f 832/342/1 831/343/1 850/325/1 851/324/1
f 831/343/1 830/344/1 849/326/1 850/325/1
f 830/344/1 829/345/1 848/327/1 849/326/1
f 829/345/1 828/346/1 847/328/1 848/327/1
f 828/346/1 827/347/1 846/329/1 847/328/1
f 827/347/1 826/348/1 845/330/1 846/329/1
f 826/348/1 825/349/1 844/331/1 845/330/1
f 825/349/1 824/350/1 843/332/1 844/331/1
f 824/350/1 823/351/1 842/333/1 843/332/1
f 823/351/1 822/352/1 841/334/1 842/333/1
f 822/352/1 821/353/1 840/335/1 841/334/1
f 821/353/1 820/354/1 839/336/1 840/335/1
f 820/354/1 819/158/1 838/160/1 839/336/1
f 42/45/1 818/355/1 837/337/1 43/47/1
f 818/355/1 817/356/1 836/338/1 837/337/1
f 817/356/1 816/357/1 835/339/1 836/338/1
f 816/357/1 815/358/1 834/340/1 835/339/1
f 815/358/1 814/359/1 833/341/1 834/340/1
f 814/359/1 813/360/1 832/342/1 833/341/1
f 813/360/1 812/361/1 831/343/1 832/342/1
f 812/361/1 811/362/1 830/344/1 831/343/1
f 811/362/1 810/363/1 829/345/1 830/344/1
f 810/363/1 809/364/1 828/346/1 829/345/1
f 809/364/1 808/365/1 827/347/1 828/346/1
f 808/365/1 807/366/1 826/348/1 827/347/1
f 807/366/1 806/367/1 825/349/1 826/348/1
f 806/367/1 805/368/1 824/350/1 825/349/1
f 805/368/1 804/369/1 823/351/1 824/350/1
f 804/369/1 803/370/1 822/352/1 823/351/1
f 803/370/1 802/371/1 821/353/1 822/352/1
f 802/371/1 801/372/1 820/354/1 821/353/1
f 801/372/1 800/156/1 819/158/1 820/354/1
f 41/43/1 799/373/1 818/355/1 42/45/1
f 799/373/1 798/374/1 817/356/1 818/355/1
f 798/374/1 797/375/1 816/357/1 817/356/1
f 797/375/1 796/376/1 815/358/1 816/357/1
f 796/376/1 795/377/1 814/359/1 815/358/1
f 795/377/1 794/378/1 813/360/1 814/359/1
f 794/378/1 793/379/1 812/361/1 813/360/1
f 793/379/1 792/380/1 811/362/1 812/361/1
f 792/380/1 791/381/1 810/363/1 811/362/1
f 791/381/1 790/382/1 809/364/1 810/363/1
f 790/382/1 789/383/1 808/365/1 809/364/1
f 789/383/1 788/384/1 807/366/1 808/365/1
f 788/384/1 787/385/1 806/367/1 807/366/1
f 787/385/1 786/386/1 805/368/1 806/367/1
f 786/386/1 785/387/1 804/369/1 805/368/1
f 785/387/1 784/388/1 803/370/1 804/369/1
f 784/388/1 783/389/1 802/371/1 803/370/1
f 783/389/1 782/390/1 801/372/1 802/371/1
f 782/390/1 781/154/1 800/156/1 801/372/1
f 40/41/1 780/391/1 799/373/1 41/43/1
f 780/391/1 779/392/1 798/374/1 799/373/1
f 779/392/1 778/393/1 797/375/1 798/374/1
f 778/393/1 777/394/1 796/376/1 797/375/1
f 777/394/1 776/395/1 795/377/1 796/376/1
f 776/395/1 775/396/1 794/378/1 795/377/1
f 775/396/1 774/397/1 793/379/1 794/378/1
f 774/397/1 773/398/1 792/380/1 793/379/1
f 773/398/1 772/399/1 791/381/1 792/380/1
f 772/399/1 771/400/1 790/382/1 791/381/1
f 771/400/1 770/401/1 789/383/1 790/382/1
f 770/401/1 769/402/1 788/384/1 789/383/1
f 769/402/1 768/403/1 787/385/1 788/384/1
f 768/403/1 767/404/1 786/386/1 787/385/1
f 767/404/1 766/405/1 785/387/1 786/386/1
f 766/405/1 765/406/1 784/388/1 785/387/1
f 765/406/1 764/407/1 783/389/1 784/388/1
f 764/407/1 763/408/1 782/390/1 783/389/1
f 763/408/1 762/152/1 781/154/1 782/390/1
f 39/39/1 761/409/1 780/391/1 40/41/1
f 761/409/1 760/410/1 779/392/1 780/391/1
f 760/410/1 759/411/1 778/393/1 779/392/1
f 759/411/1 758/412/1 777/394/1 778/393/1
f 758/412/1 757/413/1 776/395/1 777/394/1
f 757/413/1 756/414/1 775/396/1 776/395/1
f 756/414/1 755/415/1 774/397/1 775/396/1
f 755/415/1 754/416/1 773/398/1 774/397/1
f 754/416/1 753/417/1 772/399/1 773/398/1
f 753/417/1 752/418/1 771/400/1 772/399/1
f 752/418/1 751/419/1 770/401/1 771/400/1
f 751/419/1 750/420/1 769/402/1 770/401/1
f 750/420/1 749/421/1 768/403/1 769/402/1
f 749/421/1 748/422/1 767/404/1 768/403/1
f 748/422/1 747/423/1 766/405/1 767/404/1
f 747/423/1 746/424/1 765/406/1 766/405/1
f 746/424/1 745/425/1 764/407/1 765/406/1
f 745/425/1 744/426/1 763/408/1 764/407/1
f 744/426/1 743/150/1 762/152/1 763/408/1
f 38/37/1 742/427/1 761/409/1 39/39/1
f 742/427/1 741/428/1 760/410/1 761/409/1
f 741/428/1 740/429/1 759/411/1 760/410/1
f 740/429/1 739/430/1 758/412/1 759/411/1
f 739/430/1 738/431/1 757/413/1 758/412/1
f 738/431/1 737/432/1 756/414/1 757/413/1
f 737/432/1 736/433/1 755/415/1 756/414/1
f 736/433/1 735/434/1 754/416/1 755/415/1
f 735/434/1 734/435/1 753/417/1 754/416/1
f 734/435/1 733/436/1 752/418/1 753/417/1
f 733/436/1 732/437/1 751/419/1 752/418/1
f 732/437/1 731/438/1 750/420/1 751/419/1
f 731/438/1 730/439/1 749/421/1 750/420/1
f 730/439/1 729/440/1 748/422/1 749/421/1
f 729/440/1 728/441/1 747/423/1 748/422/1
f 728/441/1 727/442/1 746/424/1 747/423/1
f 727/442/1 726/443/1 745/425/1 746/424/1
f 726/443/1 725/444/1 744/426/1 745/425/1
f 725/444/1 724/148/1 743/150/1 744/426/1
f 37/35/1 723/445/1 742/427/1 38/37/1
f 723/445/1 722/446/1 741/428/1 742/427/1
f 722/446/1 721/447/1 740/429/1 741/428/1
f 721/447/1 720/448/1 739/430/1 740/429/1
f 720/448/1 719/449/1 738/431/1 739/430/1
f 719/449/1 718/450/1 737/432/1 738/431/1
f 718/450/1 717/451/1 736/433/1 737/432/1
f 717/451/1 716/452/1 735/434/1 736/433/1
f 716/452/1 715/453/1 734/435/1 735/434/1
f 715/453/1 714/454/1 733/436/1 734/435/1
f 714/454/1 713/455/1 732/437/1 733/436/1
f 713/455/1 712/456/1 731/438/1 732/437/1
f 712/456/1 711/457/1 730/439/1 731/438/1
f 711/457/1 710/458/1 729/440/1 730/439/1
f 710/458/1 709/459/1 728/441/1 729/440/1
f 709/459/1 708/460/1 727/442/1 728/441/1
f 708/460/1 707/461/1 726/443/1 727/442/1
f 707/461/1 706/462/1 725/444/1 726/443/1
f 706/462/1 705/146/1 724/148/1 725/444/1
f 36/33/1 704/463/1 723/445/1 37/35/1
f 704/463/1 703/464/1 722/446/1 723/445/1
f 703/464/1 702/465/1 721/447/1 722/446/1
f 702/465/1 701/466/1 720/448/1 721/447/1
f 701/466/1 700/467/1 719/449/1 720/448/1
f 700/467/1 699/468/1 718/450/1 719/449/1
f 699/468/1 698/469/1 717/451/1 718/450/1
f 698/469/1 697/470/1 716/452/1 717/451/1
f 697/470/1 696/471/1 715/453/1 716/452/1
f 696/471/1 695/472/1 714/454/1 715/453/1
f 695/472/1 694/473/1 713/455/1 714/454/1
f 694/473/1 693/474/1 712/456/1 713/455/1
f 693/474/1 692/475/1 711/457/1 712/456/1
f 692/475/1 691/476/1 710/458/1 711/457/1
f 691/476/1 690/477/1 709/459/1 710/458/1
f 690/477/1 689/478/1 708/460/1 709/459/1
f 689/478/1 688/479/1 707/461/1 708/460/1
f 688/479/1 687/480/1 706/462/1 707/461/1
f 687/480/1 686/144/1 705/146/1 706/462/1
f 35/31/1 685/481/1 704/463/1 36/33/1
f 685/481/1 684/482/1 703/464/1 704/463/1
f 684/482/1 683/483/1 702/465/1 703/464/1
f 683/483/1 682/484/1 701/466/1 702/465/1
f 682/484/1 681/485/1 700/467/1 701/466/1
f 681/485/1 680/486/1 699/468/1 700/467/1
f 680/486/1 679/487/1 698/469/1 699/468/1
f 679/487/1 678/488/1 697/470/1 698/469/1
f 678/488/1 677/489/1 696/471/1 697/470/1
f 677/489/1 676/490/1 695/472/1 696/471/1
f 676/490/1 675/491/1 694/473/1 695/472/1
f 675/491/1 674/492/1 693/474/1 694/473/1
f 674/492/1 673/493/1 692/475/1 693/474/1
f 673/493/1 672/494/1 691/476/1 692/475/1
f 672/494/1 671/495/1 690/477/1 691/476/1
f 671/495/1 670/496/1 689/478/1 690/477/1
f 670/496/1 669/497/1 688/479/1 689/478/1
f 669/497/1 668/498/1 687/480/1 688/479/1
f 668/498/1 667/142/1 686/144/1 687/480/1
f 34/29/1 666/499/1 685/481/1 35/31/1
f 666/499/1 665/500/1 684/482/1 685/481/1
f 665/500/1 664/501/1 683/483/1 684/482/1
f 664/501/1 663/502/1 682/484/1 683/483/1
f 663/502/1 662/503/1 681/485/1 682/484/1
f 662/503/1 661/504/1 680/486/1 681/485/1
f 661/504/1 660/505/1 679/487/1 680/486/1
f 660/505/1 659/506/1 678/488/1 679/487/1
f 659/506/1 658/507/1 677/489/1 678/488/1
f 658/507/1 657/508/1 676/490/1 677/489/1
f 657/508/1 656/509/1 675/491/1 676/490/1
f 656/509/1 655/510/1 674/492/1 675/491/1
f 655/510/1 654/511/1 673/493/1 674/492/1
f 654/511/1 653/512/1 672/494/1 673/493/1
f 653/512/1 652/513/1 671/495/1 672/494/1
f 652/513/1 651/514/1 670/496/1 671/495/1
f 651/514/1 650/515/1 669/497/1 670/496/1
f 650/515/1 649/516/1 668/498/1 669/497/1
f 649/516/1 648/140/1 667/142/1 668/498/1
f 33/27/1 647/517/1 666/499/1 34/29/1
f 647/517/1 646/518/1 665/500/1 666/499/1
f 646/518/1 645/519/1 664/501/1 665/500/1
f 645/519/1 644/520/1 663/502/1 664/501/1
f 644/520/1 643/521/1 662/503/1 663/502/1
f 643/521/1 642/522/1 661/504/1 662/503/1
f 642/522/1 641/523/1 660/505/1 661/504/1
f 641/523/1 640/524/1 659/506/1 660/505/1
f 640/524/1 639/525/1 658/507/1 659/506/1
f 639/525/1 638/526/1 657/508/1 658/507/1
f 638/526/1 637/527/1 656/509/1 657/508/1
f 637/527/1 636/528/1 655/510/1 656/509/1
f 636/528/1 635/529/1 654/511/1 655/510/1
f 635/529/1 634/530/1 653/512/1 654/511/1
f 634/530/1 633/531/1 652/513/1 653/512/1
f 633/531/1 632/532/1 651/514/1 652/513/1
f 632/532/1 631/533/1 650/515/1 651/514/1
f 631/533/1 630/534/1 649/516/1 650/515/1
f 630/534/1 629/138/1 648/140/1 649/516/1
f 32/25/1 628/535/1 647/517/1 33/27/1
f 628/535/1 627/536/1 646/518/1 647/517/1
f 627/536/1 626/537/1 645/519/1 646/518/1
f 626/537/1 625/538/1 644/520/1 645/519/1
f 625/538/1 624/539/1 643/521/1 644/520/1
f 624/539/1 623/540/1 642/522/1 643/521/1
f 623/540/1 622/541/1 641/523/1 642/522/1
f 622/541/1 621/542/1 640/524/1 641/523/1
f 621/542/1 620/543/1 639/525/1 640/524/1
f 620/543/1 619/544/1 638/526/1 639/525/1
f 619/544/1 618/545/1 637/527/1 638/526/1
f 618/545/1 617/546/1 636/528/1 637/527/1
f 617/546/1 616/547/1 635/529/1 636/528/1
f 616/547/1 615/548/1 634/530/1 635/529/1
f 615/548/1 614/549/1 633/531/1 634/530/1
f 614/549/1 613/550/1 632/532/1 633/531/1
f 613/550/1 612/551/1 631/533/1 632/532/1
f 612/551/1 611/552/1 630/534/1 631/533/1
f 611/552/1 610/136/1 629/138/1 630/534/1
f 31/23/1 609/553/1 628/535/1 32/25/1
f 609/553/1 608/554/1 627/536/1 628/535/1
f 608/554/1 607/555/1 626/537/1 627/536/1
f 607/555/1 606/556/1 625/538/1 626/537/1
f 606/556/1 605/557/1 624/539/1 625/538/1
f 605/557/1 604/558/1 623/540/1 624/539/1
f 604/558/1 603/559/1 622/541/1 623/540/1
f 603/559/1 602/560/1 621/542/1 622/541/1
f 602/560/1 601/561/1 620/543/1 621/542/1
f 601/561/1 600/562/1 619/544/1 620/543/1
f 600/562/1 599/563/1 618/545/1 619/544/1
f 599/563/1 598/564/1 617/546/1 618/545/1
f 598/564/1 597/565/1 616/547/1 617/546/1
f 597/565/1 596/566/1 615/548/1 616/547/1
f 596/566/1 595/567/1 614/549/1 615/548/1
f 595/567/1 594/568/1 613/550/1 614/549/1
f 594/568/1 593/569/1 612/551/1 613/550/1
f 593/569/1 592/570/1 611/552/1 612/551/1
f 592/570/1 591/134/1 610/136/1 611/552/1
f 1/21/1 172/571/1 609/553/1 31/23/1
f 172/571/1 171/572/1 608/554/1 609/553/1
f 171/572/1 170/573/1 607/555/1 608/554/1
f 170/573/1 169/574/1 606/556/1 607/555/1
f 169/574/1 168/575/1 605/557/1 606/556/1
f 168/575/1 167/576/1 604/558/1 605/557/1
f 167/576/1 166/577/1 603/559/1 604/558/1
f 166/577/1 165/578/1 602/560/1 603/559/1
f 165/578/1 164/579/1 601/561/1 602/560/1
f 164/579/1 163/580/1 600/562/1 601/561/1
f 163/580/1 162/581/1 599/563/1 600/562/1
f 162/581/1 161/582/1 598/564/1 599/563/1
f 161/582/1 160/583/1 597/565/1 598/564/1
f 160/583/1 159/584/1 596/566/1 597/565/1
f 159/584/1 158/585/1 595/567/1 596/566/1
f 158/585/1 157/586/1 594/568/1 595/567/1
f 157/586/1 156/587/1 593/569/1 594/568/1
f 156/587/1 155/588/1 592/570/1 593/569/1
f 155/588/1 154/131/1 591/134/1 592/570/1
f 29/589/4 571/590/4 590/591/4 30/592/4
f 571/590/4 570/593/4 589/594/4 590/591/4
f 570/593/4 569/595/4 588/596/4 589/594/4
f 569/595/4 568/597/4 587/598/4 588/596/4
f 568/597/4 567/599/4 586/600/4 587/598/4
f 567/599/4 566/601/4 585/602/4 586/600/4
f 566/601/4 565/603/4 584/604/4 585/602/4
f 565/603/4 564/605/4 583/606/4 584/604/4
f 564/605/4 563/607/4 582/608/4 583/606/4
f 563/607/4 562/609/4 581/610/4 582/608/4
f 562/609/4 561/611/4 580/612/4 581/610/4
f 561/611/4 560/613/4 579/614/4 580/612/4
f 560/613/4 559/615/4 578/616/4 579/614/4
f 559/615/4 558/617/4 577/618/4 578/616/4
f 558/617/4 557/619/4 576/620/4 577/618/4
f 557/619/4 556/621/4 575/622/4 576/620/4
f 556/621/4 555/623/4 574/624/4 575/622/4
f 555/623/4 554/625/4 573/626/4 574/624/4
f 554/625/4 553/86/4 572/13/4 573/626/4
f 28/627/4 552/628/4 571/590/4 29/589/4
f 552/628/4 551/629/4 570/593/4 571/590/4
f 551/629/4 550/630/4 569/595/4 570/593/4
f 550/630/4 549/631/4 568/597/4 569/595/4
f 549/631/4 548/632/4 567/599/4 568/597/4
f 548/632/4 547/633/4 566/601/4 567/599/4
f 547/633/4 546/634/4 565/603/4 566/601/4
f 546/634/4 545/635/4 564/605/4 565/603/4
f 545/635/4 544/636/4 563/607/4 564/605/4
f 544/636/4 543/637/4 562/609/4 563/607/4
f 543/637/4 542/638/4 561/611/4 562/609/4
f 542/638/4 541/639/4 560/613/4 561/611/4
f 541/639/4 540/640/4 559/615/4 560/613/4
f 540/640/4 539/641/4 558/617/4 559/615/4
f 539/641/4 538/642/4 557/619/4 558/617/4
f 538/642/4 537/643/4 556/621/4 557/619/4
f 537/643/4 536/644/4 555/623/4 556/621/4
f 536/644/4 535/645/4 554/625/4 555/623/4
f 535/645/4 534/85/4 553/86/4 554/625/4
f 27/646/4 533/647/4 552/628/4 28/627/4
f 533/647/4 532/648/4 551/629/4 552/628/4
f 532/648/4 531/649/4 550/630/4 551/629/4
f 531/649/4 530/650/4 549/631/4 550/630/4
f 530/650/4 529/651/4 548/632/4 549/631/4
f 529/651/4 528/652/4 547/633/4 548/632/4
f 528/652/4 527/653/4 546/634/4 547/633/4
f 527/653/4 526/654/4 545/635/4 546/634/4
f 526/654/4 525/655/4 544/636/4 545/635/4
f 525/655/4 524/656/4 543/637/4 544/636/4
f 524/656/4 523/657/4 542/638/4 543/637/4
f 523/657/4 522/658/4 541/639/4 542/638/4
f 522/658/4 521/659/4 540/640/4 541/639/4
f 521/659/4 520/660/4 539/641/4 540/640/4
f 520/660/4 519/661/4 538/642/4 539/641/4
f 519/661/4 518/662/4 537/643/4 538/642/4
f 518/662/4 517/663/4 536/644/4 537/643/4
f 517/663/4 516/664/4 535/645/4 536/644/4
f 516/664/4 515/84/4 534/85/4 535/645/4
f 26/665/4 514/666/4 533/647/4 27/646/4
f 514/666/4 513/667/4 532/648/4 533/647/4
f 513/667/4 512/668/4 531/649/4 532/648/4
f 512/668/4 511/669/4 530/650/4 531/649/4
f 511/669/4 510/670/4 529/651/4 530/650/4
f 510/670/4 509/671/4 528/652/4 529/651/4
f 509/671/4 508/672/4 527/653/4 528/652/4
f 508/672/4 507/673/4 526/654/4 527/653/4
f 507/673/4 506/674/4 525/655/4 526/654/4
f 506/674/4 505/675/4 524/656/4 525/655/4
f 505/675/4 504/676/4 523/657/4 524/656/4
f 504/676/4 503/677/4 522/658/4 523/657/4
f 503/677/4 502/678/4 521/659/4 522/658/4
f 502/678/4 501/679/4 520/660/4 521/659/4
f 501/679/4 500/680/4 519/661/4 520/660/4
f 500/680/4 499/681/4 518/662/4 519/661/4
f 499/681/4 498/682/4 517/663/4 518/662/4
f 498/682/4 497/683/4 516/664/4 517/663/4
f 497/683/4 496/83/4 515/84/4 516/664/4
f 25/684/4 495/685/4 514/666/4 26/665/4
f 495/685/4 494/686/4 513/667/4 514/666/4
f 494/686/4 493/687/4 512/668/4 513/667/4
f 493/687/4 492/688/4 511/669/4 512/668/4
f 492/688/4 491/689/4 510/670/4 511/669/4
f 491/689/4 490/690/4 509/671/4 510/670/4
f 490/690/4 489/691/4 508/672/4 509/671/4
f 489/691/4 488/692/4 507/673/4 508/672/4
f 488/692/4 487/693/4 506/674/4 507/673/4
f 487/693/4 486/694/4 505/675/4 506/674/4
f 486/694/4 485/695/4 504/676/4 505/675/4
f 485/695/4 484/696/4 503/677/4 504/676/4
f 484/696/4 483/697/4 502/678/4 503/677/4
f 483/697/4 482/698/4 501/679/4 502/678/4
f 482/698/4 481/699/4 500/680/4 501/679/4
f 481/699/4 480/700/4 499/681/4 500/680/4
f 480/700/4 479/701/4 498/682/4 499/681/4
f 479/701/4 478/702/4 497/683/4 498/682/4
f 478/702/4 477/82/4 496/83/4 497/683/4
f 24/703/4 476/704/4 495/685/4 25/684/4
f 476/704/4 475/705/4 494/686/4 495/685/4
f 475/705/4 474/706/4 493/687/4 494/686/4
f 474/706/4 473/707/4 492/688/4 493/687/4
f 473/707/4 472/708/4 491/689/4 492/688/4
f 472/708/4 471/709/4 490/690/4 491/689/4
f 471/709/4 470/710/4 489/691/4 490/690/4
f 470/710/4 469/711/4 488/692/4 489/691/4
f 469/711/4 468/712/4 487/693/4 488/692/4
f 468/712/4 467/713/4 486/694/4 487/693/4
f 467/713/4 466/714/4 485/695/4 486/694/4
f 466/714/4 465/715/4 484/696/4 485/695/4
f 465/715/4 464/716/4 483/697/4 484/696/4
f 464/716/4 463/717/4 482/698/4 483/697/4
f 463/717/4 462/718/4 481/699/4 482/698/4
f 462/718/4 461/719/4 480/700/4 481/699/4
f 461/719/4 460/720/4 479/701/4 480/700/4
f 460/720/4 459/721/4 478/702/4 479/701/4
f 459/721/4 458/81/4 477/82/4 478/702/4
f 23/722/4 457/723/4 476/704/4 24/703/4
f 457/723/4 456/724/4 475/705/4 476/704/4
f 456/724/4 455/725/4 474/706/4 475/705/4
f 455/725/4 454/726/4 473/707/4 474/706/4
f 454/726/4 453/727/4 472/708/4 473/707/4
f 453/727/4 452/728/4 471/709/4 472/708/4
f 452/728/4 451/729/4 470/710/4 471/709/4
f 451/729/4 450/730/4 469/711/4 470/710/4
f 450/730/4 449/731/4 468/712/4 469/711/4
f 449/731/4 448/732/4 467/713/4 468/712/4
f 448/732/4 447/733/4 466/714/4 467/713/4
f 447/733/4 446/734/4 465/715/4 466/714/4
f 446/734/4 445/735/4 464/716/4 465/715/4
f 445/735/4 444/736/4 463/717/4 464/716/4
f 444/736/4 443/737/4 462/718/4 463/717/4
f 443/737/4 442/738/4 461/719/4 462/718/4
f 442/738/4 441/739/4 460/720/4 461/719/4
f 441/739/4 440/740/4 459/721/4 460/720/4
f 440/740/4 439/80/4 458/81/4 459/721/4
f 22/741/4 438/742/4 457/723/4 23/722/4
f 438/742/4 437/743/4 456/724/4 457/723/4
f 437/743/4 436/744/4 455/725/4 456/724/4
f 436/744/4 435/745/4 454/726/4 455/725/4
f 435/745/4 434/746/4 453/727/4 454/726/4
f 434/746/4 433/747/4 452/728/4 453/727/4
f 433/747/4 432/748/4 451/729/4 452/728/4
f 432/748/4 431/749/4 450/730/4 451/729/4
f 431/749/4 430/750/4 449/731/4 450/730/4
f 430/750/4 429/751/4 448/732/4 449/731/4
f 429/751/4 428/752/4 447/733/4 448/732/4
f 428/752/4 427/753/4 446/734/4 447/733/4
f 427/753/4 426/754/4 445/735/4 446/734/4
f 426/754/4 425/755/4 444/736/4 445/735/4
f 425/755/4 424/756/4 443/737/4 444/736/4
f 424/756/4 423/757/4 442/738/4 443/737/4
f 423/757/4 422/758/4 441/739/4 442/738/4
f 422/758/4 421/759/4 440/740/4 441/739/4
f 421/759/4 420/79/4 439/80/4 440/740/4
f 21/760/4 419/761/4 438/742/4 22/741/4
f 419/761/4 418/762/4 437/743/4 438/742/4
f 418/762/4 417/763/4 436/744/4 437/743/4
f 417/763/4 416/764/4 435/745/4 436/744/4
f 416/764/4 415/765/4 434/746/4 435/745/4
f 415/765/4 414/766/4 433/747/4 434/746/4
f 414/766/4 413/767/4 432/748/4 433/747/4
f 413/767/4 412/768/4 431/749/4 432/748/4
f 412/768/4 411/769/4 430/750/4 431/749/4
f 411/769/4 410/770/4 429/751/4 430/750/4
f 410/770/4 409/771/4 428/752/4 429/751/4
f 409/771/4 408/772/4 427/753/4 428/752/4
f 408/772/4 407/773/4 426/754/4 427/753/4
f 407/773/4 406/774/4 425/755/4 426/754/4
f 406/774/4 405/775/4 424/756/4 425/755/4
f 405/775/4 404/776/4 423/757/4 424/756/4
f 404/776/4 403/777/4 422/758/4 423/757/4
f 403/777/4 402/778/4 421/759/4 422/758/4
f 402/778/4 401/78/4 420/79/4 421/759/4
f 20/779/4 400/780/4 419/761/4 21/760/4
f 400/780/4 399/781/4 418/762/4 419/761/4
f 399/781/4 398/782/4 417/763/4 418/762/4
f 398/782/4 397/783/4 416/764/4 417/763/4
f 397/783/4 396/784/4 415/765/4 416/764/4
f 396/784/4 395/785/4 414/766/4 415/765/4
f 395/785/4 394/786/4 413/767/4 414/766/4
f 394/786/4 393/787/4 412/768/4 413/767/4
f 393/787/4 392/788/4 411/769/4 412/768/4
f 392/788/4 391/789/4 410/770/4 411/769/4
f 391/789/4 390/790/4 409/771/4 410/770/4
f 390/790/4 389/791/4 408/772/4 409/771/4
f 389/791/4 388/792/4 407/773/4 408/772/4
f 388/792/4 387/793/4 406/774/4 407/773/4
f 387/793/4 386/794/4 405/775/4 406/774/4
f 386/794/4 385/795/4 404/776/4 405/775/4
f 385/795/4 384/796/4 403/777/4 404/776/4
f 384/796/4 383/797/4 402/778/4 403/777/4
f 383/797/4 382/77/4 401/78/4 402/778/4
f 19/798/4 381/799/4 400/780/4 20/779/4
f 381/799/4 380/800/4 399/781/4 400/780/4
f 380/800/4 379/801/4 398/782/4 399/781/4
f 379/801/4 378/802/4 397/783/4 398/782/4
f 378/802/4 377/803/4 396/784/4 397/783/4
f 377/803/4 376/804/4 395/785/4 396/784/4
f 376/804/4 375/805/4 394/786/4 395/785/4
f 375/805/4 374/806/4 393/787/4 394/786/4
f 374/806/4 373/807/4 392/788/4 393/787/4
f 373/807/4 372/808/4 391/789/4 392/788/4
f 372/808/4 371/809/4 390/790/4 391/789/4
f 371/809/4 370/810/4 389/791/4 390/790/4
f 370/810/4 369/811/4 388/792/4 389/791/4
f 369/811/4 368/812/4 387/793/4 388/792/4
f 368/812/4 367/813/4 386/794/4 387/793/4
f 367/813/4 366/814/4 385/795/4 386/794/4
f 366/814/4 365/815/4 384/796/4 385/795/4
f 365/815/4 364/816/4 383/797/4 384/796/4
f 364/816/4 363/76/4 382/77/4 383/797/4
f 18/817/4 362/818/4 381/799/4 19/798/4
f 362/818/4 361/819/4 380/800/4 381/799/4
f 361/819/4 360/820/4 379/801/4 380/800/4
f 360/820/4 359/821/4 378/802/4 379/801/4
f 359/821/4 358/822/4 377/803/4 378/802/4
f 358/822/4 357/823/4 376/804/4 377/803/4
f 357/823/4 356/824/4 375/805/4 376/804/4
f 356/824/4 355/825/4 374/806/4 375/805/4
f 355/825/4 354/826/4 373/807/4 374/806/4
f 354/826/4 353/827/4 372/808/4 373/807/4
f 353/827/4 352/828/4 371/809/4 372/808/4
f 352/828/4 351/829/4 370/810/4 371/809/4
f 351/829/4 350/830/4 369/811/4 370/810/4
f 350/830/4 349/831/4 368/812/4 369/811/4
f 349/831/4 348/832/4 367/813/4 368/812/4
f 348/832/4 347/833/4 366/814/4 367/813/4
f 347/833/4 346/834/4 365/815/4 366/814/4
f 346/834/4 345/835/4 364/816/4 365/815/4
f 345/835/4 344/75/4 363/76/4 364/816/4
f 17/836/4 343/837/4 362/818/4 18/817/4
f 343/837/4 342/838/4 361/819/4 362/818/4
f 342/838/4 341/839/4 360/820/4 361/819/4
f 341/839/4 340/840/4 359/821/4 360/820/4
f 340/840/4 339/841/4 358/822/4 359/821/4
f 339/841/4 338/842/4 357/823/4 358/822/4
f 338/842/4 337/843/4 356/824/4 357/823/4
f 337/843/4 336/844/4 355/825/4 356/824/4
f 336/844/4 335/845/4 354/826/4 355/825/4
f 335/845/4 334/846/4 353/827/4 354/826/4
f 334/846/4 333/847/4 352/828/4 353/827/4
f 333/847/4 332/848/4 351/829/4 352/828/4
f 332/848/4 331/849/4 350/830/4 351/829/4
f 331/849/4 330/850/4 349/831/4 350/830/4
f 330/850/4 329/851/4 348/832/4 349/831/4
f 329/851/4 328/852/4 347/833/4 348/832/4
f 328/852/4 327/853/4 346/834/4 347/833/4
f 327/853/4 326/854/4 345/835/4 346/834/4
f 326/854/4 325/74/4 344/75/4 345/835/4
f 16/855/4 324/856/4 343/837/4 17/836/4
f 324/856/4 323/857/4 342/838/4 343/837/4
f 323/857/4 322/858/4 341/839/4 342/838/4
f 322/858/4 321/859/4 340/840/4 341/839/4
f 321/859/4 320/860/4 339/841/4 340/840/4
f 320/860/4 319/861/4 338/842/4 339/841/4
f 319/861/4 318/862/4 337/843/4 338/842/4
f 318/862/4 317/863/4 336/844/4 337/843/4
f 317/863/4 316/864/4 335/845/4 336/844/4
f 316/864/4 315/865/4 334/846/4 335/845/4
f 315/865/4 314/866/4 333/847/4 334/846/4
f 314/866/4 313/867/4 332/848/4 333/847/4
f 313/867/4 312/868/4 331/849/4 332/848/4
f 312/868/4 311/869/4 330/850/4 331/849/4
f 311/869/4 310/870/4 329/851/4 330/850/4
f 310/870/4 309/871/4 328/852/4 329/851/4
f 309/871/4 308/872/4 327/853/4 328/852/4
f 308/872/4 307/873/4 326/854/4 327/853/4
f 307/873/4 306/73/4 325/74/4 326/854/4
f 15/874/4 305/875/4 324/856/4 16/855/4
f 305/875/4 304/876/4 323/857/4 324/856/4
f 304/876/4 303/877/4 322/858/4 323/857/4
f 303/877/4 302/878/4 321/859/4 322/858/4
f 302/878/4 301/879/4 320/860/4 321/859/4
f 301/879/4 300/880/4 319/861/4 320/860/4
f 300/880/4 299/881/4 318/862/4 319/861/4
f 299/881/4 298/882/4 317/863/4 318/862/4
f 298/882/4 297/883/4 316/864/4 317/863/4
f 297/883/4 296/884/4 315/865/4 316/864/4
f 296/884/4 295/885/4 314/866/4 315/865/4
f 295/885/4 294/886/4 313/867/4 314/866/4
f 294/886/4 293/887/4 312/868/4 313/867/4
f 293/887/4 292/888/4 311/869/4 312/868/4
f 292/888/4 291/889/4 310/870/4 311/869/4
f 291/889/4 290/890/4 309/871/4 310/870/4
f 290/890/4 289/891/4 308/872/4 309/871/4
f 289/891/4 288/892/4 307/873/4 308/872/4
f 288/892/4 287/72/4 306/73/4 307/873/4
f 14/893/4 286/894/4 305/875/4 15/874/4
f 286/894/4 285/895/4 304/876/4 305/875/4
f 285/895/4 284/896/4 303/877/4 304/876/4
f 284/896/4 283/897/4 302/878/4 303/877/4
f 283/897/4 282/898/4 301/879/4 302/878/4
f 282/898/4 281/899/4 300/880/4 301/879/4
f 281/899/4 280/900/4 299/881/4 300/880/4
f 280/900/4 279/901/4 298/882/4 299/881/4
f 279/901/4 278/902/4 297/883/4 298/882/4
f 278/902/4 277/903/4 296/884/4 297/883/4
f 277/903/4 276/904/4 295/885/4 296/884/4
f 276/904/4 275/905/4 294/886/4 295/885/4
f 275/905/4 274/906/4 293/887/4 294/886/4
f 274/906/4 273/907/4 292/888/4 293/887/4
f 273/907/4 272/908/4 291/889/4 292/888/4
f 272/908/4 271/909/4 290/890/4 291/889/4
f 271/909/4 270/910/4 289/891/4 290/890/4
f 270/910/4 269/911/4 288/892/4 289/891/4
f 269/911/4 268/71/4 287/72/4 288/892/4
f 13/912/4 267/913/4 286/894/4 14/893/4
f 267/913/4 266/914/4 285/895/4 286/894/4
f 266/914/4 265/915/4 284/896/4 285/895/4
f 265/915/4 264/916/4 283/897/4 284/896/4
f 264/916/4 263/917/4 282/898/4 283/897/4
f 263/917/4 262/918/4 281/899/4 282/898/4
f 262/918/4 261/919/4 280/900/4 281/899/4
f 261/919/4 260/920/4 279/901/4 280/900/4
f 260/920/4 259/921/4 278/902/4 279/901/4
f 259/921/4 258/922/4 277/903/4 278/902/4
f 258/922/4 257/923/4 276/904/4 277/903/4
f 257/923/4 256/924/4 275/905/4 276/904/4
f 256/924/4 255/925/4 274/906/4 275/905/4
f 255/925/4 254/926/4 273/907/4 274/906/4
f 254/926/4 253/927/4 272/908/4 273/907/4
f 253/927/4 252/928/4 271/909/4 272/908/4
f 252/928/4 251/929/4 270/910/4 271/909/4
f 251/929/4 250/930/4 269/911/4 270/910/4
f 250/930/4 249/70/4 268/71/4 269/911/4
f 12/931/4 248/932/4 267/913/4 13/912/4
f 248/932/4 247/933/4 266/914/4 267/913/4
f 247/933/4 246/934/4 265/915/4 266/914/4
f 246/934/4 245/935/4 264/916/4 265/915/4
f 245/935/4 244/936/4 263/917/4 264/916/4
f 244/936/4 243/937/4 262/918/4 263/917/4
f 243/937/4 242/938/4 261/919/4 262/918/4
f 242/938/4 241/939/4 260/920/4 261/919/4
f 241/939/4 240/940/4 259/921/4 260/920/4
f 240/940/4 239/941/4 258/922/4 259/921/4
f 239/941/4 238/942/4 257/923/4 258/922/4
f 238/942/4 237/943/4 256/924/4 257/923/4
f 237/943/4 236/944/4 255/925/4 256/924/4
f 236/944/4 235/945/4 254/926/4 255/925/4
f 235/945/4 234/946/4 253/927/4 254/926/4
f 234/946/4 233/947/4 252/928/4 253/927/4
f 233/947/4 232/948/4 251/929/4 252/928/4
f 232/948/4 231/949/4 250/930/4 251/929/4
f 231/949/4 230/69/4 249/70/4 250/930/4
f 11/950/4 229/951/4 248/932/4 12/931/4
f 229/951/4 228/952/4 247/933/4 248/932/4
f 228/952/4 227/953/4 246/934/4 247/933/4
f 227/953/4 226/954/4 245/935/4 246/934/4
f 226/954/4 225/955/4 244/936/4 245/935/4
f 225/955/4 224/956/4 243/937/4 244/936/4
f 224/956/4 223/957/4 242/938/4 243/937/4
f 223/957/4 222/958/4 241/939/4 242/938/4
f 222/958/4 221/959/4 240/940/4 241/939/4
f 221/959/4 220/960/4 239/941/4 240/940/4
f 220/960/4 219/961/4 238/942/4 239/941/4
f 219/961/4 218/962/4 237/943/4 238/942/4
f 218/962/4 217/963/4 236/944/4 237/943/4
f 217/963/4 216/964/4 235/945/4 236/944/4
f 216/964/4 215/965/4 234/946/4 235/945/4
f 215/965/4 214/966/4 233/947/4 234/946/4
f 214/966/4 213/967/4 232/948/4 233/947/4
f 213/967/4 212/968/4 231/949/4 232/948/4
f 212/968/4 211/68/4 230/69/4 231/949/4
f 10/969/4 210/970/4 229/951/4 11/950/4
f 210/970/4 209/971/4 228/952/4 229/951/4
f 209/971/4 208/972/4 227/953/4 228/952/4
f 208/972/4 207/973/4 226/954/4 227/953/4
f 207/973/4 206/974/4 225/955/4 226/954/4
f 206/974/4 205/975/4 224/956/4 225/955/4
f 205/975/4 204/976/4 223/957/4 224/956/4
f 204/976/4 203/977/4 222/958/4 223/957/4
f 203/977/4 202/978/4 221/959/4 222/958/4
f 202/978/4 201/979/4 220/960/4 221/959/4
f 201/979/4 200/980/4 219/961/4 220/960/4
f 200/980/4 199/981/4 218/962/4 219/961/4
f 199/981/4 198/982/4 217/963/4 218/962/4
f 198/982/4 197/983/4 216/964/4 217/963/4
f 197/983/4 196/984/4 215/965/4 216/964/4
f 196/984/4 195/985/4 214/966/4 215/965/4
f 195/985/4 194/986/4 213/967/4 214/966/4
f 194/986/4 193/987/4 212/968/4 213/967/4
f 193/987/4 192/67/4 211/68/4 212/968/4
f 9/988/4 191/989/4 210/970/4 10/969/4
f 191/989/4 190/990/4 209/971/4 210/970/4
f 190/990/4 189/991/4 208/972/4 209/971/4
f 189/991/4 188/992/4 207/973/4 208/972/4
f 188/992/4 187/993/4 206/974/4 207/973/4
f 187/993/4 186/994/4 205/975/4 206/974/4
f 186/994/4 185/995/4 204/976/4 205/975/4
f 185/995/4 184/996/4 203/977/4 204/976/4
f 184/996/4 183/997/4 202/978/4 203/977/4
f 183/997/4 182/998/4 201/979/4 202/978/4
f 182/998/4 181/999/4 200/980/4 201/979/4
f 181/999/4 180/1000/4 199/981/4 200/980/4
f 180/1000/4 179/1001/4 198/982/4 199/981/4
f 179/1001/4 178/1002/4 197/983/4 198/982/4
f 178/1002/4 177/1003/4 196/984/4 197/983/4
f 177/1003/4 176/1004/4 195/985/4 196/984/4
f 176/1004/4 175/1005/4 194/986/4 195/985/4
f 175/1005/4 174/1006/4 193/987/4 194/986/4
f 174/1006/4 173/66/4 192/67/4 193/987/4
f 6/1007/4 115/1008/4 191/989/4 9/988/4
f 115/1008/4 114/1009/4 190/990/4 191/989/4
f 114/1009/4 113/1010/4 189/991/4 190/990/4
f 113/1010/4 112/1011/4 188/992/4 189/991/4
f 112/1011/4 111/1012/4 187/993/4 188/992/4
f 111/1012/4 110/1013/4 186/994/4 187/993/4
f 110/1013/4 109/1014/4 185/995/4 186/994/4
f 109/1014/4 108/1015/4 184/996/4 185/995/4
f 108/1015/4 107/1016/4 183/997/4 184/996/4
f 107/1016/4 106/1017/4 182/998/4 183/997/4
f 106/1017/4 105/1018/4 181/999/4 182/998/4
f 105/1018/4 104/1019/4 180/1000/4 181/999/4
f 104/1019/4 103/1020/4 179/1001/4 180/1000/4
f 103/1020/4 102/1021/4 178/1002/4 179/1001/4
f 102/1021/4 101/1022/4 177/1003/4 178/1002/4
f 101/1022/4 100/1023/4 176/1004/4 177/1003/4
f 100/1023/4 99/1024/4 175/1005/4 176/1004/4
f 99/1024/4 98/1025/4 174/1006/4 175/1005/4
f 98/1025/4 97/65/4 173/66/4 174/1006/4
f 6/12/6 5/11/6 154/1026/6 115/1027/6
f 115/1027/6 154/1026/6 155/1028/6 114/1029/6
f 114/1029/6 155/1028/6 156/1030/6 113/1031/6
f 113/1031/6 156/1030/6 157/1032/6 112/1033/6
f 112/1033/6 157/1032/6 158/1034/6 111/1035/6
f 111/1035/6 158/1034/6 159/1036/6 110/1037/6
f 110/1037/6 159/1036/6 160/1038/6 109/1039/6
f 109/1039/6 160/1038/6 161/1040/6 108/1041/6
f 108/1041/6 161/1040/6 162/1042/6 107/1043/6
f 107/1043/6 162/1042/6 163/1044/6 106/1045/6
f 106/1045/6 163/1044/6 164/1046/6 105/1047/6
f 105/1047/6 164/1046/6 165/1048/6 104/1049/6
f 104/1049/6 165/1048/6 166/1050/6 103/1051/6
f 103/1051/6 166/1050/6 167/1052/6 102/1053/6
f 102/1053/6 167/1052/6 168/1054/6 101/1055/6
f 101/1055/6 168/1054/6 169/1056/6 100/1057/6
f 100/1057/6 169/1056/6 170/1058/6 99/1059/6
f 99/1059/6 170/1058/6 171/1060/6 98/1061/6
f 98/1061/6 171/1060/6 172/20/6 97/19/6
f 30/592/4 590/591/4 135/1062/4 8/1063/4
f 590/591/4 589/594/4 136/1064/4 135/1062/4
f 589/594/4 588/596/4 137/1065/4 136/1064/4
f 588/596/4 587/598/4 138/1066/4 137/1065/4
f 587/598/4 586/600/4 139/1067/4 138/1066/4
f 586/600/4 585/602/4 140/1068/4 139/1067/4
f 585/602/4 584/604/4 141/1069/4 140/1068/4
f 584/604/4 583/606/4 142/1070/4 141/1069/4
f 583/606/4 582/608/4 143/1071/4 142/1070/4
f 582/608/4 581/610/4 144/1072/4 143/1071/4
f 581/610/4 580/612/4 145/1073/4 144/1072/4
f 580/612/4 579/614/4 146/1074/4 145/1073/4
f 579/614/4 578/616/4 147/1075/4 146/1074/4
f 578/616/4 577/618/4 148/1076/4 147/1075/4
f 577/618/4 576/620/4 149/1077/4 148/1076/4
f 576/620/4 575/622/4 150/1078/4 149/1077/4
f 575/622/4 574/624/4 151/1079/4 150/1078/4
f 574/624/4 573/626/4 152/1080/4 151/1079/4
f 573/626/4 572/13/4 153/16/4 152/1080/4
f 4/15/2 3/18/2 116/1081/2 153/1082/2
f 153/1082/2 116/1081/2 117/1083/2 152/1084/2
f 152/1084/2 117/1083/2 118/1085/2 151/1086/2
f 151/1086/2 118/1085/2 119/1087/2 150/1088/2
f 150/1088/2 119/1087/2 120/1089/2 149/1090/2
f 149/1090/2 120/1089/2 121/1091/2 148/1092/2
f 148/1092/2 121/1091/2 122/1093/2 147/1094/2
f 147/1094/2 122/1093/2 123/1095/2 146/1096/2
f 146/1096/2 123/1095/2 124/1097/2 145/1098/2
f 145/1098/2 124/1097/2 125/1099/2 144/1100/2
f 144/1100/2 125/1099/2 126/1101/2 143/1102/2
f 143/1102/2 126/1101/2 127/1103/2 142/1104/2
f 142/1104/2 127/1103/2 128/1105/2 141/1106/2
f 141/1106/2 128/1105/2 129/1107/2 140/1108/2
f 140/1108/2 129/1107/2 130/1109/2 139/1110/2
f 139/1110/2 130/1109/2 131/1111/2 138/1112/2
f 138/1112/2 131/1111/2 132/1113/2 137/1114/2
f 137/1114/2 132/1113/2 133/1115/2 136/1116/2
f 136/1116/2 133/1115/2 134/6/2 135/5/2
f 52/17/1 1008/176/1 116/1117/1 3/18/1
f 1008/176/1 1007/178/1 117/1118/1 116/1117/1
f 1007/178/1 1006/180/1 118/1119/1 117/1118/1
f 1006/180/1 1005/182/1 119/1120/1 118/1119/1
f 1005/182/1 1004/184/1 120/1121/1 119/1120/1
f 1004/184/1 1003/186/1 121/1122/1 120/1121/1
f 1003/186/1 1002/188/1 122/1123/1 121/1122/1
f 1002/188/1 1001/190/1 123/1124/1 122/1123/1
f 1001/190/1 1000/192/1 124/1125/1 123/1124/1
f 1000/192/1 999/194/1 125/1126/1 124/1125/1
f 999/194/1 998/196/1 126/1127/1 125/1126/1
f 998/196/1 997/198/1 127/1128/1 126/1127/1
f 997/198/1 996/200/1 128/1129/1 127/1128/1
f 996/200/1 995/202/1 129/1130/1 128/1129/1
f 995/202/1 994/204/1 130/1131/1 129/1130/1
f 994/204/1 993/206/1 131/1132/1 130/1131/1
f 993/206/1 992/208/1 132/1133/1 131/1132/1
f 992/208/1 991/210/1 133/1134/1 132/1133/1
f 991/210/1 990/1/1 134/4/1 133/1134/1
