# Blender 4.3.2
# www.blender.org
mtllib 球1_1.mtl
o 球体.012
v -5.711920 6.209850 -0.504789
v -5.625758 6.035626 -0.521596
v -5.610345 5.841164 -0.518930
v -5.630345 5.745598 -0.510305
v -5.668028 5.656068 -0.497198
v -5.790026 5.508517 -0.459708
v -5.852563 6.338538 -0.452249
v -5.771627 6.283254 -0.452858
v -5.702944 6.213345 -0.451193
v -5.649154 6.131498 -0.447318
v -5.612324 6.040858 -0.441383
v -5.593869 5.944908 -0.433615
v -5.594498 5.847335 -0.424313
v -5.614188 5.751889 -0.413834
v -5.652182 5.662239 -0.402581
v -5.707019 5.581828 -0.390986
v -5.776592 5.513749 -0.379495
v -5.858228 5.460615 -0.368550
v -5.948790 5.424470 -0.358571
v -6.044796 5.406703 -0.349942
v -6.142558 5.407997 -0.342994
v -5.852983 6.340896 -0.433277
v -5.772449 6.287879 -0.415643
v -5.704137 6.220060 -0.397166
v -5.650672 6.140044 -0.378555
v -5.614109 6.050907 -0.360526
v -5.595852 5.956074 -0.343772
v -5.596603 5.859189 -0.328936
v -5.616334 5.763976 -0.316588
v -5.654287 5.674093 -0.307204
v -5.709002 5.592995 -0.301143
v -5.778377 5.523798 -0.298639
v -5.859746 5.469162 -0.299787
v -5.949982 5.431185 -0.304545
v -6.045617 5.411329 -0.312728
v -6.142977 5.410355 -0.324023
v -5.856956 6.344294 -0.414883
v -5.780243 6.294544 -0.379563
v -5.715452 6.229736 -0.344786
v -5.665074 6.152360 -0.311888
v -5.631043 6.065389 -0.282133
v -5.614669 5.972165 -0.256666
v -5.616580 5.876271 -0.236465
v -5.636703 5.781393 -0.222306
v -5.674263 5.691175 -0.214733
v -5.727819 5.609086 -0.214037
v -5.795312 5.538280 -0.220246
v -5.874148 5.481477 -0.233120
v -5.961298 5.440862 -0.252164
v -6.053411 5.417994 -0.276648
v -6.146950 5.413753 -0.305629
v -5.864332 6.348601 -0.397775
v -5.794711 6.302993 -0.346003
v -5.736456 6.242002 -0.296064
v -5.691807 6.167972 -0.249877
v -5.662478 6.083746 -0.209217
v -5.649598 5.992563 -0.175646
v -5.653660 5.897925 -0.150454
v -5.674509 5.803471 -0.134610
v -5.711343 5.712830 -0.128722
v -5.762748 5.629484 -0.133017
v -5.826747 5.556637 -0.147329
v -5.900881 5.497089 -0.171109
v -5.982302 5.453128 -0.203443
v -6.067880 5.426443 -0.243088
v -6.154326 5.418060 -0.288520
v -5.874826 6.353652 -0.382608
v -5.815296 6.312901 -0.316253
v -5.766342 6.256387 -0.252874
v -5.729844 6.186279 -0.194907
v -5.707204 6.105274 -0.144579
v -5.699295 6.016483 -0.103823
v -5.706418 5.923319 -0.074208
v -5.728301 5.829362 -0.056870
v -5.764102 5.738223 -0.052476
v -5.812445 5.653404 -0.061195
v -5.871473 5.578165 -0.082691
v -5.938918 5.515397 -0.116139
v -6.012187 5.467512 -0.160253
v -6.088465 5.436351 -0.213338
v -6.164820 5.423111 -0.273354
v -5.942643 6.377072 -0.449389
v -5.888035 6.359252 -0.369967
v -5.841208 6.323888 -0.291457
v -5.803959 6.272336 -0.216876
v -5.777722 6.206580 -0.149089
v -5.763504 6.129145 -0.090703
v -5.761851 6.043007 -0.043960
v -5.772827 5.951476 -0.010657
v -5.796010 5.858071 0.007926
v -5.830511 5.766380 0.011075
v -5.875001 5.679927 -0.001331
v -5.927772 5.602036 -0.028815
v -5.986796 5.535697 -0.070321
v -6.049805 5.483462 -0.124254
v -6.114376 5.447338 -0.188542
v -6.178030 5.428712 -0.260713
v -5.903453 6.365188 -0.360337
v -5.871449 6.335530 -0.272567
v -5.847864 6.289239 -0.189452
v -5.833602 6.228092 -0.114185
v -5.829212 6.154441 -0.049660
v -5.834862 6.071114 0.001644
v -5.850335 5.981315 0.037756
v -5.875037 5.888494 0.057288
v -5.908019 5.796219 0.059488
v -5.948012 5.708035 0.044273
v -5.993480 5.627332 0.012228
v -6.042676 5.557210 -0.035417
v -6.093709 5.500364 -0.096830
v -6.144619 5.458980 -0.169652
v -6.193447 5.434647 -0.251083
v -5.920485 6.371230 -0.354088
v -5.904860 6.347382 -0.260309
v -5.896369 6.306444 -0.171656
v -5.895337 6.249990 -0.091536
v -5.901804 6.180191 -0.023027
v -5.915522 6.099726 0.031237
v -5.935963 6.011689 0.069172
v -5.962343 5.919463 0.089319
v -5.993647 5.826593 0.090904
v -6.028672 5.736647 0.073866
v -6.066072 5.653081 0.038861
v -6.104411 5.579108 -0.012768
v -6.142214 5.517570 -0.079035
v -6.178029 5.470831 -0.157394
v -6.210480 5.440689 -0.244834
v -5.938478 6.377146 -0.351461
v -5.940155 6.358986 -0.255155
v -5.947609 6.323291 -0.164173
v -5.960553 6.271433 -0.082012
v -5.978490 6.205404 -0.011828
v -6.000731 6.127741 0.043681
v -6.026422 6.041430 0.082382
v -6.054573 5.949787 0.102788
v -6.084105 5.856334 0.104114
v -6.113882 5.764662 0.086310
v -6.142759 5.678295 0.050060
v -6.169627 5.600550 -0.003244
v -6.193454 5.534417 -0.071552
v -6.213324 5.482436 -0.152240
v -6.228473 5.446605 -0.242206
v -5.956741 6.382709 -0.352555
v -5.975978 6.369898 -0.257302
v -5.999616 6.339133 -0.167290
v -6.026745 6.291595 -0.085979
v -6.056324 6.229113 -0.016493
v -6.087215 6.154085 0.038498
v -6.118233 6.069396 0.076880
v -6.148183 5.978301 0.097177
v -6.175916 5.884300 0.098612
v -6.200366 5.791006 0.081127
v -6.220593 5.702003 0.045395
v -6.235820 5.620713 -0.007211
v -6.245461 5.550258 -0.074669
v -6.249147 5.493348 -0.154387
v -6.246735 5.452168 -0.243301
v -5.974571 6.387704 -0.357330
v -6.010952 6.379698 -0.266668
v -6.050391 6.353360 -0.180887
v -6.091370 6.309703 -0.103285
v -6.132314 6.250405 -0.036842
v -6.171651 6.177744 0.015887
v -6.207869 6.094512 0.052876
v -6.239576 6.003910 0.072703
v -6.265553 5.909416 0.074608
v -6.284801 5.814665 0.058516
v -6.296583 5.723296 0.025045
v -6.300444 5.638821 -0.024517
v -6.296236 5.564486 -0.088266
v -6.284122 5.503147 -0.163753
v -6.264565 5.457163 -0.248076
v -5.991282 6.391941 -0.365601
v -6.043735 6.388009 -0.282893
v -6.097982 6.365426 -0.204442
v -6.151943 6.325060 -0.133264
v -6.203540 6.268463 -0.072094
v -6.250793 6.197809 -0.023283
v -6.291886 6.115813 0.011293
v -6.325239 6.025628 0.030306
v -6.349570 5.930717 0.033025
v -6.363944 5.834730 0.019346
v -6.367809 5.741354 -0.010207
v -6.361017 5.654178 -0.054496
v -6.343828 5.576551 -0.111821
v -6.316903 5.511458 -0.179977
v -6.281277 5.461401 -0.256347
v -6.006235 6.395257 -0.377051
v -6.073064 6.394512 -0.305353
v -6.140562 6.374867 -0.237049
v -6.206136 6.337077 -0.174765
v -6.267265 6.282592 -0.120895
v -6.321601 6.213509 -0.077507
v -6.367055 6.132481 -0.046271
v -6.401880 6.042621 -0.028386
v -6.424738 5.947384 -0.024539
v -6.434751 5.850430 -0.034878
v -6.431534 5.755483 -0.059007
v -6.415210 5.666194 -0.095997
v -6.386407 5.585993 -0.144428
v -6.346232 5.517962 -0.202438
v -6.296229 5.464715 -0.267797
v -6.018852 6.397523 -0.391240
v -6.097814 6.398957 -0.333186
v -6.176494 6.381320 -0.277456
v -6.251868 6.345290 -0.226193
v -6.321040 6.292251 -0.181367
v -6.381352 6.224241 -0.144701
v -6.430487 6.143873 -0.117603
v -6.466554 6.054237 -0.101116
v -6.488170 5.958777 -0.095871
v -6.494503 5.861162 -0.102072
v -6.485309 5.765141 -0.119480
v -6.460942 5.674407 -0.147425
v -6.422339 5.592446 -0.184835
v -6.370982 5.522407 -0.230270
v -6.308846 5.466982 -0.281986
v -6.028650 6.398653 -0.407623
v -6.117033 6.401174 -0.365321
v -6.204395 6.384539 -0.324109
v -6.287380 6.349386 -0.285571
v -6.362798 6.297067 -0.251189
v -6.427752 6.229592 -0.222282
v -6.479743 6.149554 -0.199963
v -6.516777 6.060029 -0.185089
v -6.537427 5.964458 -0.178231
v -6.540902 5.866513 -0.179653
v -6.527067 5.769958 -0.189301
v -6.496455 5.678503 -0.206803
v -6.450241 5.595664 -0.231488
v -6.390202 5.524623 -0.262405
v -6.318644 5.468112 -0.298368
v -6.035252 6.398603 -0.425569
v -6.129983 6.401076 -0.400524
v -6.223196 6.384397 -0.375216
v -6.311309 6.349205 -0.350618
v -6.390935 6.296855 -0.327676
v -6.459015 6.229356 -0.307270
v -6.512933 6.149304 -0.290186
v -6.550616 6.059774 -0.277079
v -6.570617 5.964208 -0.268454
v -6.572165 5.866277 -0.264641
v -6.555204 5.769746 -0.265788
v -6.520383 5.678323 -0.271850
v -6.469041 5.595522 -0.282595
v -6.403152 5.524526 -0.297608
v -6.325246 5.468062 -0.316315
v -6.038404 6.397376 -0.444390
v -6.136166 6.398669 -0.437442
v -6.232172 6.380902 -0.428813
v -6.322733 6.344757 -0.418834
v -6.404369 6.291624 -0.407889
v -6.473943 6.223544 -0.396398
v -6.528780 6.143134 -0.384804
v -6.566773 6.053483 -0.373551
v -6.586463 5.958037 -0.363072
v -6.587093 5.860465 -0.353769
v -6.568638 5.764514 -0.346001
v -6.531808 5.673874 -0.340066
v -6.478017 5.592027 -0.336191
v -6.409335 5.522119 -0.334527
v -6.328398 5.466835 -0.335135
v -6.037985 6.395018 -0.463361
v -6.135345 6.394043 -0.474656
v -6.230979 6.374187 -0.482839
v -6.321216 6.336211 -0.487597
v -6.402585 6.281574 -0.488745
v -6.471960 6.212378 -0.486241
v -6.526674 6.131279 -0.480180
v -6.564627 6.041397 -0.470796
v -6.584358 5.946183 -0.458448
v -6.585110 5.849298 -0.443612
v -6.566853 5.754465 -0.426858
v -6.530290 5.665328 -0.408829
v -6.476825 5.585312 -0.390218
v -6.408513 5.517493 -0.371741
v -6.327979 5.464477 -0.354107
v -6.034011 6.391620 -0.481755
v -6.127550 6.387378 -0.510736
v -6.219664 6.364511 -0.535220
v -6.306813 6.323895 -0.554264
v -6.385649 6.267092 -0.567138
v -6.453142 6.196286 -0.573347
v -6.506698 6.114197 -0.572651
v -6.544259 6.023979 -0.565078
v -6.564382 5.929101 -0.550919
v -6.566292 5.833207 -0.530718
v -6.549918 5.739983 -0.505251
v -6.515888 5.653012 -0.475496
v -6.465509 5.575636 -0.442598
v -6.400719 5.510828 -0.407821
v -6.324006 5.461079 -0.372501
v -6.026636 6.387312 -0.498864
v -6.113082 6.378929 -0.544296
v -6.198660 6.352244 -0.583941
v -6.280080 6.308283 -0.616275
v -6.354215 6.248735 -0.640055
v -6.418214 6.175889 -0.654367
v -6.469618 6.092543 -0.658662
v -6.506453 6.001901 -0.652774
v -6.527302 5.907447 -0.636930
v -6.531364 5.812809 -0.611738
v -6.518483 5.721626 -0.578167
v -6.489155 5.637401 -0.537507
v -6.444505 5.563370 -0.491320
v -6.386251 5.502379 -0.441381
v -6.316630 5.456771 -0.389609
v -6.238318 5.428300 -0.337995
v -6.016141 6.382261 -0.514030
v -6.092497 6.369021 -0.574046
v -6.168775 6.337860 -0.627131
v -6.242044 6.289975 -0.671245
v -6.309488 6.227207 -0.704693
v -6.368517 6.151968 -0.726189
v -6.416860 6.067149 -0.734908
v -6.452661 5.976010 -0.730514
v -6.474544 5.882053 -0.713176
v -6.481667 5.788889 -0.683560
v -6.473757 5.700098 -0.642805
v -6.451118 5.619093 -0.592477
v -6.414620 5.548985 -0.534510
v -6.365665 5.492471 -0.471131
v -6.306136 5.451720 -0.404776
v -6.002932 6.376660 -0.526671
v -6.066586 6.358035 -0.598842
v -6.131157 6.321910 -0.663130
v -6.194166 6.269675 -0.717063
v -6.253190 6.203337 -0.758569
v -6.305961 6.125444 -0.786053
v -6.350451 6.038992 -0.798459
v -6.384951 5.947301 -0.795310
v -6.408134 5.853896 -0.776727
v -6.419111 5.762365 -0.743424
v -6.417458 5.676228 -0.696681
v -6.403240 5.598793 -0.638295
v -6.377002 5.533036 -0.570508
v -6.339754 5.481484 -0.495927
v -6.292926 5.446120 -0.417417
v -5.987514 6.370725 -0.536301
v -6.036343 6.346392 -0.617732
v -6.087252 6.305008 -0.690554
v -6.138286 6.248162 -0.751967
v -6.187481 6.178041 -0.799612
v -6.232950 6.097337 -0.831657
v -6.272943 6.009153 -0.846872
v -6.305924 5.916878 -0.844671
v -6.330626 5.824057 -0.825140
v -6.346100 5.734258 -0.789028
v -6.351750 5.650931 -0.737724
v -6.347360 5.577280 -0.673199
v -6.333097 5.516133 -0.597932
v -6.309512 5.469842 -0.514817
v -6.277509 5.440184 -0.427047
v -5.970482 6.364684 -0.542550
v -6.002933 6.334541 -0.629990
v -6.038748 6.287803 -0.708349
v -6.076551 6.226264 -0.774616
v -6.114889 6.152291 -0.826244
v -6.152290 6.068726 -0.861250
v -6.187315 5.978779 -0.878288
v -6.218618 5.885909 -0.876702
v -6.244998 5.793684 -0.856556
v -6.265440 5.705647 -0.818621
v -6.279158 5.625182 -0.764357
v -6.285625 5.555382 -0.695848
v -6.284593 5.498928 -0.615728
v -6.276101 5.457991 -0.527074
v -6.260477 5.434143 -0.433295
v -5.952489 6.358768 -0.545178
v -5.967638 6.322937 -0.635144
v -5.987507 6.270956 -0.715832
v -6.011334 6.204822 -0.784140
v -6.038203 6.127078 -0.837444
v -6.067080 6.040710 -0.873694
v -6.096857 5.949038 -0.891498
v -6.126389 5.855585 -0.890172
v -6.154540 5.763942 -0.869766
v -6.180230 5.677631 -0.831065
v -6.202471 5.599968 -0.775556
v -6.220408 5.533939 -0.705372
v -6.233353 5.482081 -0.623211
v -6.240807 5.446386 -0.532229
v -6.242483 5.428226 -0.435923
v -5.934227 6.353205 -0.544083
v -5.931815 6.312025 -0.632997
v -5.935501 6.255114 -0.712715
v -5.945142 6.184659 -0.780173
v -5.960369 6.103369 -0.832779
v -5.980596 6.014367 -0.868511
v -6.005045 5.921072 -0.885996
v -6.032778 5.827071 -0.884561
v -6.062729 5.735976 -0.864264
v -6.093746 5.651287 -0.825882
v -6.124637 5.576260 -0.770891
v -6.154216 5.513777 -0.701405
v -6.181346 5.466239 -0.620094
v -6.204983 5.435474 -0.530082
v -6.224221 5.422664 -0.434829
v -5.916397 6.348209 -0.539308
v -5.896840 6.302225 -0.623631
v -5.884726 6.240887 -0.699118
v -5.880517 6.166552 -0.762867
v -5.884378 6.082077 -0.812429
v -5.896160 5.990707 -0.845900
v -5.915409 5.895956 -0.861992
v -5.941386 5.801463 -0.860087
v -5.973093 5.710860 -0.840260
v -6.009310 5.627628 -0.803271
v -6.048647 5.554967 -0.750542
v -6.089592 5.495669 -0.684099
v -6.130571 5.452012 -0.606497
v -6.170009 5.425674 -0.520716
v -6.206391 5.417668 -0.430054
v -5.899685 6.343972 -0.531037
v -5.864058 6.293914 -0.607407
v -5.837134 6.228821 -0.675563
v -5.819945 6.151195 -0.732888
v -5.813152 6.064019 -0.777177
v -5.817018 5.970643 -0.806729
v -5.831392 5.874655 -0.820409
v -5.855723 5.779745 -0.817690
v -5.889075 5.689559 -0.798677
v -5.930168 5.607563 -0.764100
v -5.977421 5.536910 -0.715289
v -6.029019 5.480312 -0.654120
v -6.082979 5.439946 -0.582942
v -6.137227 5.417363 -0.504491
v -6.189679 5.413431 -0.421783
v -5.884733 6.340657 -0.519587
v -5.834729 6.287411 -0.584946
v -5.794554 6.219380 -0.642956
v -5.765751 6.139178 -0.691387
v -5.749428 6.049889 -0.728377
v -5.746211 5.954943 -0.752506
v -5.756223 5.857988 -0.762845
v -5.779082 5.762751 -0.758998
v -5.813907 5.672892 -0.741113
v -5.859361 5.591864 -0.709877
v -5.913696 5.522780 -0.666489
v -5.974825 5.468296 -0.612619
v -6.040400 5.430505 -0.550335
v -6.107898 5.410860 -0.482031
v -6.174727 5.410116 -0.410333
v -5.872115 6.338390 -0.505398
v -5.809979 6.282965 -0.557114
v -5.758623 6.212926 -0.602549
v -5.720019 6.130965 -0.639959
v -5.695653 6.040231 -0.667904
v -5.686459 5.944211 -0.685312
v -5.692792 5.846595 -0.691513
v -5.714407 5.751135 -0.686268
v -5.750475 5.661499 -0.669780
v -5.799609 5.581132 -0.642683
v -5.859921 5.513122 -0.606017
v -5.929094 5.460082 -0.561191
v -6.004468 5.424052 -0.509928
v -6.083148 5.406415 -0.454198
v -6.162110 5.407849 -0.396144
v -5.862318 6.337261 -0.489016
v -5.790760 6.280749 -0.524979
v -5.730721 6.209708 -0.555896
v -5.684507 6.126869 -0.580581
v -5.653895 6.035415 -0.598083
v -5.640060 5.938860 -0.607730
v -5.643535 5.840915 -0.609153
v -5.664186 5.745343 -0.602295
v -5.701218 5.655818 -0.587421
v -5.753210 5.575781 -0.565102
v -5.818163 5.508306 -0.536195
v -5.893581 5.455986 -0.501813
v -5.976566 5.420834 -0.463275
v -6.063929 5.404198 -0.422063
v -6.152312 5.406720 -0.379761
v -5.855716 6.337310 -0.471069
v -5.777810 6.280846 -0.489776
v -5.660579 6.127049 -0.515534
v -5.608796 5.939095 -0.522743
v -5.721946 5.576016 -0.480114
v -5.869653 5.456167 -0.436766
v -5.957766 5.420975 -0.412168
v -6.050979 5.404296 -0.386860
v -6.145710 5.406769 -0.361815
vn 0.9653 -0.2153 -0.1476
vn 0.3869 0.9137 -0.1244
vn -0.2016 -0.9746 0.0973
vn 0.9076 -0.4005 -0.1259
vn 0.5572 0.8173 -0.1466
vn 0.8154 -0.5704 -0.0994
vn 0.7057 0.6895 -0.1632
vn 0.6919 -0.7187 -0.0690
vn 0.8268 0.5352 -0.1734
vn 0.5417 -0.8398 -0.0360
vn 0.9158 0.3605 -0.1769
vn 0.3705 -0.9288 -0.0015
vn 0.9696 0.1724 -0.1736
vn 0.1847 -0.9822 0.0331
vn 0.9863 -0.0220 -0.1637
vn -0.0085 -0.9978 0.0665
vn 0.1914 -0.9735 0.1252
vn 0.9997 -0.0043 0.0226
vn -0.0044 -0.9924 0.1232
vn 0.9793 -0.1970 0.0461
vn 0.3883 0.9155 -0.1052
vn -0.2002 -0.9728 0.1165
vn 0.9216 -0.3821 0.0678
vn 0.5613 0.8227 -0.0899
vn 0.8288 -0.5527 0.0870
vn 0.7124 0.6982 -0.0711
vn 0.7043 -0.7024 0.1028
vn 0.8357 0.5469 -0.0495
vn 0.5527 -0.8255 0.1148
vn 0.9267 0.3748 -0.0261
vn 0.3795 -0.9171 0.1224
vn 0.9820 0.1887 -0.0018
vn 0.6843 -0.6762 0.2728
vn 0.8213 0.5658 0.0729
vn 0.5351 -0.8025 0.2639
vn 0.9092 0.3978 0.1229
vn 0.3651 -0.8982 0.2448
vn 0.9621 0.2149 0.1681
vn 0.1807 -0.9595 0.2163
vn 0.9781 0.0241 0.2068
vn -0.0110 -0.9837 0.1794
vn 0.9568 -0.1675 0.2376
vn 0.3861 0.9184 -0.0863
vn -0.2024 -0.9699 0.1354
vn 0.8991 -0.3526 0.2594
vn 0.5547 0.8314 -0.0338
vn 0.8072 -0.5243 0.2712
vn 0.7017 0.7122 0.0200
vn -0.0280 -0.9722 0.2327
vn 0.8986 -0.1280 0.4196
vn 0.3803 0.9223 -0.0683
vn -0.2082 -0.9660 0.1535
vn 0.8409 -0.3131 0.4414
vn 0.5376 0.8429 0.0196
vn 0.7512 -0.4863 0.4463
vn 0.6740 0.7310 0.1065
vn 0.6327 -0.6412 0.4342
vn 0.7841 0.5910 0.1893
vn 0.4899 -0.7718 0.4055
vn 0.8639 0.4285 0.2646
vn 0.3279 -0.8730 0.3611
vn 0.9104 0.2499 0.3296
vn 0.1530 -0.9407 0.3028
vn 0.9221 0.0621 0.3819
vn 0.7256 0.6217 0.2950
vn 0.4186 -0.7344 0.5342
vn 0.7926 0.4659 0.3933
vn 0.2694 -0.8423 0.4669
vn 0.8292 0.2925 0.4763
vn 0.1095 -0.9179 0.3815
vn 0.8340 0.1082 0.5410
vn -0.0548 -0.9581 0.2811
vn 0.8070 -0.0800 0.5851
vn 0.3712 0.9271 -0.0519
vn -0.2172 -0.9612 0.1698
vn 0.7493 -0.2651 0.6068
vn 0.5108 0.8570 0.0680
vn 0.6631 -0.4402 0.6054
vn 0.6305 0.7538 0.1852
vn 0.5515 -0.5986 0.5810
vn 0.6855 -0.0254 0.7276
vn 0.3592 0.9325 -0.0378
vn -0.2293 -0.9558 0.1839
vn 0.6278 -0.2105 0.7493
vn 0.4752 0.8730 0.1098
vn 0.5462 -0.3877 0.7425
vn 0.5727 0.7798 0.2530
vn 0.4437 -0.5502 0.7074
vn 0.6479 0.6566 0.3861
vn 0.3240 -0.6919 0.6452
vn 0.6981 0.5084 0.5042
vn 0.1917 -0.8074 0.5580
vn 0.7214 0.3409 0.6028
vn 0.0517 -0.8919 0.4492
vn 0.7171 0.1607 0.6782
vn -0.0904 -0.9421 0.3229
vn 0.2098 -0.6459 0.7340
vn 0.5839 0.5544 0.5931
vn 0.0979 -0.7696 0.6310
vn 0.5912 0.3934 0.7041
vn -0.0180 -0.8638 0.5035
vn 0.5760 0.2176 0.7880
vn -0.1334 -0.9248 0.3563
vn 0.5388 0.0337 0.8418
vn 0.3447 0.9383 -0.0265
vn -0.2438 -0.9500 0.1952
vn 0.4811 -0.1514 0.8635
vn 0.4322 0.8903 0.1432
vn 0.4051 -0.3308 0.8524
vn 0.5029 0.8079 0.3072
vn 0.3135 -0.4977 0.8087
vn 0.5541 0.6944 0.4591
vn 0.3282 0.9444 -0.0184
vn -0.2602 -0.9439 0.2033
vn 0.3148 -0.0900 0.9449
vn 0.3835 0.9083 0.1671
vn 0.2451 -0.2717 0.9307
vn 0.4238 0.8371 0.3459
vn 0.1659 -0.4433 0.8809
vn 0.4478 0.7336 0.5112
vn 0.0804 -0.5981 0.7973
vn 0.4544 0.6022 0.6564
vn -0.0085 -0.7303 0.6830
vn 0.4437 0.4479 0.7763
vn -0.0971 -0.8346 0.5422
vn 0.4160 0.2767 0.8663
vn -0.1822 -0.9068 0.3802
vn 0.3724 0.0951 0.9232
vn 0.3147 0.6499 0.6918
vn -0.1232 -0.6911 0.7121
vn 0.2844 0.5022 0.8166
vn -0.1825 -0.8055 0.5638
vn 0.2433 0.3356 0.9100
vn -0.2348 -0.8888 0.3935
vn 0.1929 0.1564 0.9687
vn 0.3105 0.9505 -0.0139
vn -0.2780 -0.9378 0.2078
vn 0.1352 -0.0287 0.9904
vn 0.3309 0.9263 0.1804
vn 0.0724 -0.2128 0.9744
vn 0.3385 0.8662 0.3676
vn 0.0067 -0.3889 0.9213
vn 0.3330 0.7728 0.5402
vn -0.0594 -0.5504 0.8328
vn -0.0506 0.0302 0.9983
vn 0.2764 0.9435 0.1827
vn -0.1064 -0.1562 0.9820
vn 0.2501 0.8942 0.3713
vn -0.1582 -0.3367 0.9282
vn 0.2142 0.8104 0.5453
vn -0.2040 -0.5047 0.8389
vn 0.1701 0.6957 0.6979
vn -0.2420 -0.6535 0.7172
vn 0.1195 0.5544 0.8236
vn -0.2708 -0.7775 0.5676
vn 0.0645 0.3922 0.9176
vn -0.2892 -0.8716 0.3958
vn 0.0070 0.2153 0.9765
vn 0.2921 0.9563 -0.0131
vn -0.2964 -0.9320 0.2086
vn -0.3603 -0.6189 0.6979
vn -0.0446 0.6025 0.7969
vn -0.3588 -0.7518 0.5533
vn -0.1135 0.4443 0.8887
vn -0.3434 -0.8557 0.3870
vn -0.1780 0.2694 0.9464
vn 0.2738 0.9617 -0.0161
vn -0.3147 -0.9267 0.2056
vn -0.2356 0.0843 0.9682
vn 0.2222 0.9594 0.1739
vn -0.2844 -0.1041 0.9530
vn 0.1622 0.9199 0.3570
vn -0.3223 -0.2887 0.9015
vn 0.0959 0.8450 0.5260
vn -0.3480 -0.4625 0.8155
vn 0.0261 0.7378 0.6745
vn -0.4547 -0.0586 0.8887
vn 0.0780 0.9424 0.3252
vn -0.4794 -0.2467 0.8422
vn -0.0173 0.8753 0.4833
vn -0.4858 -0.4257 0.7634
vn -0.1117 0.7746 0.6225
vn -0.4735 -0.5887 0.6552
vn -0.2017 0.6444 0.7376
vn -0.4430 -0.7293 0.5215
vn -0.2838 0.4898 0.8243
vn -0.3953 -0.8419 0.3674
vn -0.3550 0.3167 0.8796
vn 0.2563 0.9663 -0.0227
vn -0.3322 -0.9220 0.1990
vn -0.4127 0.1316 0.9013
vn 0.1704 0.9732 0.1543
vn -0.5202 -0.7109 0.4734
vn -0.4399 0.5271 0.7271
vn -0.4428 -0.8305 0.3378
vn -0.5173 0.3554 0.7785
vn 0.2402 0.9702 -0.0327
vn -0.3483 -0.9181 0.1890
vn -0.5750 0.1703 0.8002
vn 0.1228 0.9846 0.1247
vn -0.6108 -0.0213 0.7915
vn 0.0008 0.9608 0.2771
vn -0.6234 -0.2124 0.7525
vn -0.1210 0.9000 0.4187
vn -0.6121 -0.3956 0.6847
vn -0.2380 0.8047 0.5438
vn -0.5773 -0.5639 0.5905
vn -0.3457 0.6788 0.6479
vn -0.0664 0.9744 0.2147
vn -0.7487 -0.1870 0.6359
vn -0.2114 0.9183 0.3346
vn -0.7221 -0.3733 0.5825
vn -0.3480 0.8270 0.4415
vn -0.6676 -0.5456 0.5065
vn -0.4710 0.7042 0.5313
vn -0.5873 -0.6973 0.4109
vn -0.5759 0.5546 0.6007
vn -0.4842 -0.8221 0.2993
vn -0.6587 0.3841 0.6470
vn 0.2262 0.9730 -0.0457
vn -0.3623 -0.9153 0.1760
vn -0.7163 0.1989 0.6688
vn 0.0814 0.9929 0.0862
vn -0.7468 0.0062 0.6651
vn -0.6864 0.5713 0.4499
vn -0.5179 -0.8170 0.2534
vn -0.7736 0.4015 0.4903
vn 0.2148 0.9747 -0.0613
vn -0.3736 -0.9136 0.1605
vn -0.8312 0.2164 0.5121
vn 0.0477 0.9980 0.0403
vn -0.8573 0.0229 0.5143
vn -0.1210 0.9827 0.1402
vn -0.8507 -0.1715 0.4969
vn -0.2848 0.9295 0.2345
vn -0.8115 -0.3598 0.4605
vn -0.4374 0.8406 0.3196
vn -0.7411 -0.5345 0.4063
vn -0.5730 0.7196 0.3923
vn -0.6420 -0.6890 0.3364
vn -0.9252 -0.1666 0.3408
vn -0.3386 0.9330 0.1220
vn -0.8769 -0.3554 0.3236
vn -0.5028 0.8449 0.1826
vn -0.7948 -0.5310 0.2939
vn -0.6475 0.7245 0.2362
vn -0.6819 -0.6863 0.2528
vn -0.7673 0.5767 0.2807
vn -0.5425 -0.8154 0.2018
vn -0.8576 0.4070 0.3144
vn 0.2065 0.9753 -0.0787
vn -0.3820 -0.9130 0.1430
vn -0.9153 0.2219 0.3361
vn 0.0231 0.9997 -0.0113
vn -0.9382 0.0283 0.3450
vn -0.1610 0.9853 0.0565
vn -0.5572 -0.8173 0.1466
vn -0.9076 0.4005 0.1259
vn 0.2016 0.9746 -0.0973
vn -0.3869 -0.9137 0.1244
vn -0.9653 0.2153 0.1476
vn 0.0085 0.9978 -0.0665
vn -0.9863 0.0220 0.1637
vn -0.1847 0.9822 -0.0331
vn -0.9696 -0.1724 0.1736
vn -0.3705 0.9288 0.0015
vn -0.9158 -0.3605 0.1769
vn -0.5417 0.8398 0.0360
vn -0.8268 -0.5352 0.1734
vn -0.6919 0.7187 0.0690
vn -0.7057 -0.6895 0.1632
vn -0.8154 0.5704 0.0994
vn -0.3795 0.9171 -0.1224
vn -0.9267 -0.3748 0.0261
vn -0.5527 0.8255 -0.1148
vn -0.8357 -0.5469 0.0495
vn -0.7043 0.7024 -0.1028
vn -0.7124 -0.6982 0.0711
vn -0.8288 0.5527 -0.0870
vn -0.5613 -0.8227 0.0899
vn -0.9216 0.3821 -0.0678
vn 0.2002 0.9728 -0.1165
vn -0.3883 -0.9155 0.1052
vn -0.9793 0.1970 -0.0461
vn 0.0044 0.9924 -0.1232
vn -0.9997 0.0043 -0.0226
vn -0.1914 0.9735 -0.1252
vn -0.9820 -0.1887 0.0018
vn -0.8991 0.3526 -0.2594
vn 0.2024 0.9699 -0.1354
vn -0.3861 -0.9184 0.0863
vn -0.9568 0.1675 -0.2376
vn 0.0110 0.9837 -0.1794
vn -0.9781 -0.0241 -0.2068
vn -0.1807 0.9595 -0.2163
vn -0.9621 -0.2149 -0.1681
vn -0.3651 0.8982 -0.2448
vn -0.9092 -0.3978 -0.1229
vn -0.5351 0.8025 -0.2639
vn -0.8213 -0.5658 -0.0729
vn -0.6843 0.6762 -0.2728
vn -0.7017 -0.7122 -0.0200
vn -0.8072 0.5243 -0.2712
vn -0.5547 -0.8314 0.0338
vn -0.8639 -0.4285 -0.2646
vn -0.4899 0.7718 -0.4055
vn -0.7841 -0.5910 -0.1893
vn -0.6327 0.6412 -0.4342
vn -0.6740 -0.7310 -0.1065
vn -0.7512 0.4863 -0.4463
vn -0.5376 -0.8429 -0.0196
vn -0.8409 0.3131 -0.4414
vn 0.2082 0.9660 -0.1535
vn -0.3803 -0.9223 0.0682
vn -0.8986 0.1280 -0.4196
vn 0.0280 0.9722 -0.2327
vn -0.9221 -0.0621 -0.3819
vn -0.1530 0.9407 -0.3028
vn -0.9104 -0.2499 -0.3296
vn -0.3279 0.8730 -0.3611
vn -0.3712 -0.9271 0.0519
vn -0.8070 0.0800 -0.5851
vn 0.0548 0.9581 -0.2811
vn -0.8340 -0.1082 -0.5410
vn -0.1095 0.9179 -0.3815
vn -0.8292 -0.2925 -0.4763
vn -0.2694 0.8423 -0.4669
vn -0.7926 -0.4659 -0.3933
vn -0.4186 0.7344 -0.5342
vn -0.7256 -0.6217 -0.2950
vn -0.5515 0.5986 -0.5810
vn -0.6305 -0.7538 -0.1852
vn -0.6631 0.4402 -0.6054
vn -0.5108 -0.8570 -0.0680
vn -0.7493 0.2651 -0.6068
vn 0.2172 0.9612 -0.1698
vn -0.6479 -0.6566 -0.3861
vn -0.4437 0.5502 -0.7074
vn -0.5727 -0.7798 -0.2530
vn -0.5462 0.3877 -0.7425
vn -0.4752 -0.8730 -0.1098
vn -0.6278 0.2105 -0.7493
vn 0.2293 0.9558 -0.1839
vn -0.3592 -0.9325 0.0378
vn -0.6855 0.0254 -0.7276
vn 0.0904 0.9421 -0.3229
vn -0.7171 -0.1607 -0.6782
vn -0.0517 0.8919 -0.4492
vn -0.7214 -0.3409 -0.6028
vn -0.1917 0.8074 -0.5580
vn -0.6981 -0.5084 -0.5042
vn -0.3240 0.6919 -0.6452
vn 0.1334 0.9248 -0.3563
vn -0.5760 -0.2176 -0.7880
vn 0.0180 0.8638 -0.5035
vn -0.5912 -0.3934 -0.7041
vn -0.0979 0.7696 -0.6310
vn -0.5839 -0.5544 -0.5931
vn -0.2098 0.6459 -0.7340
vn -0.5541 -0.6944 -0.4591
vn -0.3135 0.4977 -0.8087
vn -0.5029 -0.8079 -0.3072
vn -0.4051 0.3308 -0.8524
vn -0.4322 -0.8903 -0.1432
vn -0.4811 0.1514 -0.8635
vn 0.2438 0.9500 -0.1952
vn -0.3447 -0.9383 0.0265
vn -0.5388 -0.0337 -0.8418
vn -0.1659 0.4433 -0.8809
vn -0.4238 -0.8371 -0.3459
vn -0.2451 0.2717 -0.9307
vn -0.3835 -0.9083 -0.1671
vn -0.3148 0.0900 -0.9449
vn 0.2602 0.9439 -0.2033
vn -0.3282 -0.9444 0.0184
vn -0.3724 -0.0951 -0.9232
vn 0.1822 0.9068 -0.3802
vn -0.4160 -0.2767 -0.8663
vn 0.0971 0.8346 -0.5422
vn -0.4437 -0.4479 -0.7763
vn 0.0085 0.7303 -0.6830
vn -0.4544 -0.6022 -0.6564
vn -0.0804 0.5981 -0.7973
vn -0.4478 -0.7336 -0.5112
vn -0.2433 -0.3356 -0.9100
vn 0.1825 0.8055 -0.5638
vn -0.2844 -0.5022 -0.8166
vn 0.1232 0.6911 -0.7121
vn -0.3147 -0.6499 -0.6918
vn 0.0594 0.5504 -0.8328
vn -0.3330 -0.7728 -0.5402
vn -0.0067 0.3889 -0.9213
vn -0.3385 -0.8662 -0.3676
vn -0.0724 0.2127 -0.9744
vn -0.3309 -0.9263 -0.1804
vn -0.1352 0.0287 -0.9904
vn 0.2780 0.9378 -0.2078
vn -0.3105 -0.9505 0.0139
vn -0.1929 -0.1564 -0.9687
vn 0.2348 0.8888 -0.3935
vn -0.2501 -0.8942 -0.3713
vn 0.1064 0.1561 -0.9820
vn -0.2764 -0.9435 -0.1827
vn 0.0506 -0.0302 -0.9983
vn 0.2964 0.9320 -0.2086
vn -0.2921 -0.9563 0.0131
vn -0.0070 -0.2153 -0.9765
vn 0.2892 0.8716 -0.3958
vn -0.0645 -0.3922 -0.9176
vn 0.2708 0.7775 -0.5676
vn -0.1195 -0.5544 -0.8236
vn 0.2420 0.6535 -0.7172
vn -0.1701 -0.6957 -0.6979
vn 0.2040 0.5047 -0.8389
vn -0.2142 -0.8104 -0.5453
vn 0.1582 0.3367 -0.9282
vn 0.3588 0.7518 -0.5533
vn 0.0446 -0.6025 -0.7969
vn 0.3603 0.6189 -0.6979
vn -0.0261 -0.7378 -0.6745
vn 0.3480 0.4625 -0.8155
vn -0.0959 -0.8450 -0.5260
vn 0.3223 0.2887 -0.9015
vn -0.1622 -0.9199 -0.3570
vn 0.2844 0.1041 -0.9530
vn -0.2222 -0.9594 -0.1739
vn 0.2356 -0.0843 -0.9682
vn 0.3147 0.9267 -0.2056
vn -0.2738 -0.9617 0.0161
vn 0.1780 -0.2694 -0.9464
vn 0.3434 0.8557 -0.3870
vn 0.1135 -0.4443 -0.8887
vn 0.4547 0.0586 -0.8887
vn -0.1704 -0.9732 -0.1543
vn 0.4127 -0.1316 -0.9013
vn 0.3322 0.9220 -0.1990
vn -0.2563 -0.9663 0.0227
vn 0.3550 -0.3167 -0.8796
vn 0.3953 0.8419 -0.3674
vn 0.2838 -0.4898 -0.8243
vn 0.4430 0.7293 -0.5215
vn 0.2017 -0.6444 -0.7376
vn 0.4735 0.5887 -0.6552
vn 0.1117 -0.7746 -0.6225
vn 0.4858 0.4257 -0.7634
vn 0.0173 -0.8753 -0.4833
vn 0.4794 0.2467 -0.8422
vn -0.0780 -0.9424 -0.3252
vn 0.3457 -0.6788 -0.6479
vn 0.5773 0.5639 -0.5905
vn 0.2380 -0.8047 -0.5438
vn 0.6121 0.3956 -0.6847
vn 0.1210 -0.9000 -0.4187
vn 0.6234 0.2124 -0.7525
vn -0.0008 -0.9608 -0.2771
vn 0.6108 0.0213 -0.7915
vn -0.1228 -0.9846 -0.1247
vn 0.5750 -0.1703 -0.8002
vn 0.3483 0.9181 -0.1890
vn -0.2402 -0.9702 0.0327
vn 0.5173 -0.3554 -0.7785
vn 0.4428 0.8305 -0.3378
vn 0.4399 -0.5271 -0.7271
vn 0.5202 0.7109 -0.4734
vn -0.0814 -0.9929 -0.0862
vn 0.7163 -0.1989 -0.6688
vn 0.3623 0.9153 -0.1760
vn -0.2262 -0.9730 0.0457
vn 0.6587 -0.3840 -0.6470
vn 0.4842 0.8221 -0.2993
vn 0.5759 -0.5546 -0.6007
vn 0.5873 0.6973 -0.4109
vn 0.4710 -0.7042 -0.5313
vn 0.6676 0.5456 -0.5065
vn 0.3480 -0.8270 -0.4415
vn 0.7221 0.3733 -0.5825
vn 0.2114 -0.9183 -0.3346
vn 0.7487 0.1870 -0.6359
vn 0.0664 -0.9744 -0.2147
vn 0.7468 -0.0062 -0.6651
vn 0.4374 -0.8406 -0.3196
vn 0.8115 0.3598 -0.4605
vn 0.2848 -0.9295 -0.2345
vn 0.8507 0.1715 -0.4969
vn 0.1210 -0.9827 -0.1402
vn 0.8573 -0.0229 -0.5143
vn -0.0477 -0.9980 -0.0403
vn 0.8312 -0.2164 -0.5121
vn 0.3736 0.9136 -0.1604
vn -0.2148 -0.9747 0.0613
vn 0.7736 -0.4015 -0.4903
vn 0.5179 0.8170 -0.2534
vn 0.6864 -0.5713 -0.4499
vn 0.6420 0.6890 -0.3364
vn 0.5730 -0.7196 -0.3923
vn 0.7411 0.5345 -0.4063
vn 0.3820 0.9130 -0.1430
vn -0.2065 -0.9753 0.0787
vn 0.8576 -0.4070 -0.3144
vn 0.5425 0.8154 -0.2018
vn 0.7673 -0.5767 -0.2807
vn 0.6819 0.6863 -0.2528
vn 0.6475 -0.7245 -0.2362
vn 0.7948 0.5310 -0.2939
vn 0.5028 -0.8449 -0.1826
vn 0.8769 0.3554 -0.3236
vn 0.3386 -0.9330 -0.1220
vn 0.9252 0.1666 -0.3408
vn 0.1610 -0.9853 -0.0565
vn 0.9382 -0.0283 -0.3450
vn -0.0231 -0.9997 0.0113
vn 0.9153 -0.2219 -0.3361
vt 0.750000 0.500000
vt 0.750000 0.562500
vt 0.718750 0.562500
vt 0.718750 0.500000
vt 0.750000 0.937500
vt 0.734375 1.000000
vt 0.718750 0.937500
vt 0.734375 0.000000
vt 0.750000 0.062500
vt 0.718750 0.062500
vt 0.750000 0.437500
vt 0.718750 0.437500
vt 0.750000 0.875000
vt 0.718750 0.875000
vt 0.750000 0.375000
vt 0.718750 0.375000
vt 0.750000 0.812500
vt 0.718750 0.812500
vt 0.750000 0.312500
vt 0.718750 0.312500
vt 0.750000 0.750000
vt 0.718750 0.750000
vt 0.750000 0.250000
vt 0.718750 0.250000
vt 0.750000 0.687500
vt 0.718750 0.687500
vt 0.750000 0.187500
vt 0.718750 0.187500
vt 0.750000 0.625000
vt 0.718750 0.625000
vt 0.750000 0.125000
vt 0.718750 0.125000
vt 0.687500 0.187500
vt 0.687500 0.125000
vt 0.687500 0.625000
vt 0.687500 0.562500
vt 0.687500 0.062500
vt 0.687500 0.500000
vt 0.703125 1.000000
vt 0.687500 0.937500
vt 0.703125 0.000000
vt 0.687500 0.437500
vt 0.687500 0.875000
vt 0.687500 0.375000
vt 0.687500 0.812500
vt 0.687500 0.312500
vt 0.687500 0.750000
vt 0.687500 0.250000
vt 0.687500 0.687500
vt 0.656250 0.375000
vt 0.656250 0.312500
vt 0.656250 0.812500
vt 0.656250 0.750000
vt 0.656250 0.250000
vt 0.656250 0.687500
vt 0.656250 0.187500
vt 0.656250 0.625000
vt 0.656250 0.125000
vt 0.656250 0.562500
vt 0.656250 0.062500
vt 0.656250 0.500000
vt 0.671875 1.000000
vt 0.656250 0.937500
vt 0.671875 0.000000
vt 0.656250 0.437500
vt 0.656250 0.875000
vt 0.625000 0.125000
vt 0.625000 0.062500
vt 0.625000 0.562500
vt 0.625000 0.500000
vt 0.640625 1.000000
vt 0.625000 0.937500
vt 0.640625 0.000000
vt 0.625000 0.437500
vt 0.625000 0.875000
vt 0.625000 0.375000
vt 0.625000 0.812500
vt 0.625000 0.312500
vt 0.625000 0.750000
vt 0.625000 0.250000
vt 0.625000 0.687500
vt 0.625000 0.187500
vt 0.625000 0.625000
vt 0.593750 0.812500
vt 0.593750 0.750000
vt 0.593750 0.312500
vt 0.593750 0.250000
vt 0.593750 0.687500
vt 0.593750 0.187500
vt 0.593750 0.625000
vt 0.593750 0.125000
vt 0.593750 0.562500
vt 0.593750 0.062500
vt 0.593750 0.500000
vt 0.609375 1.000000
vt 0.593750 0.937500
vt 0.609375 0.000000
vt 0.593750 0.437500
vt 0.593750 0.875000
vt 0.593750 0.375000
vt 0.562500 0.562500
vt 0.562500 0.500000
vt 0.578125 1.000000
vt 0.562500 0.937500
vt 0.578125 0.000000
vt 0.562500 0.062500
vt 0.562500 0.437500
vt 0.562500 0.875000
vt 0.562500 0.375000
vt 0.562500 0.812500
vt 0.562500 0.312500
vt 0.562500 0.750000
vt 0.562500 0.250000
vt 0.562500 0.687500
vt 0.562500 0.187500
vt 0.562500 0.625000
vt 0.562500 0.125000
vt 0.531250 0.312500
vt 0.531250 0.250000
vt 0.531250 0.750000
vt 0.531250 0.687500
vt 0.531250 0.187500
vt 0.531250 0.625000
vt 0.531250 0.125000
vt 0.531250 0.562500
vt 0.531250 0.062500
vt 0.531250 0.500000
vt 0.546875 1.000000
vt 0.531250 0.937500
vt 0.546875 0.000000
vt 0.531250 0.437500
vt 0.531250 0.875000
vt 0.531250 0.375000
vt 0.531250 0.812500
vt 0.515625 1.000000
vt 0.500000 0.937500
vt 0.515625 0.000000
vt 0.500000 0.062500
vt 0.500000 0.500000
vt 0.500000 0.437500
vt 0.500000 0.875000
vt 0.500000 0.375000
vt 0.500000 0.812500
vt 0.500000 0.312500
vt 0.500000 0.750000
vt 0.500000 0.250000
vt 0.500000 0.687500
vt 0.500000 0.187500
vt 0.500000 0.625000
vt 0.500000 0.125000
vt 0.500000 0.562500
vt 0.468750 0.750000
vt 0.468750 0.687500
vt 0.468750 0.250000
vt 0.468750 0.187500
vt 0.468750 0.625000
vt 0.468750 0.125000
vt 0.468750 0.562500
vt 0.468750 0.062500
vt 0.468750 0.500000
vt 0.484375 1.000000
vt 0.468750 0.937500
vt 0.484375 0.000000
vt 0.468750 0.437500
vt 0.468750 0.875000
vt 0.468750 0.375000
vt 0.468750 0.812500
vt 0.468750 0.312500
vt 0.437500 0.500000
vt 0.437500 0.437500
vt 0.437500 0.937500
vt 0.437500 0.875000
vt 0.437500 0.375000
vt 0.437500 0.812500
vt 0.437500 0.312500
vt 0.437500 0.750000
vt 0.437500 0.250000
vt 0.437500 0.687500
vt 0.437500 0.187500
vt 0.437500 0.625000
vt 0.437500 0.125000
vt 0.437500 0.562500
vt 0.437500 0.062500
vt 0.453125 1.000000
vt 0.453125 0.000000
vt 0.406250 0.250000
vt 0.406250 0.187500
vt 0.406250 0.687500
vt 0.406250 0.625000
vt 0.406250 0.125000
vt 0.406250 0.562500
vt 0.406250 0.062500
vt 0.406250 0.500000
vt 0.421875 1.000000
vt 0.406250 0.937500
vt 0.421875 0.000000
vt 0.406250 0.437500
vt 0.406250 0.875000
vt 0.406250 0.375000
vt 0.406250 0.812500
vt 0.406250 0.312500
vt 0.406250 0.750000
vt 0.375000 0.437500
vt 0.375000 0.375000
vt 0.375000 0.875000
vt 0.375000 0.812500
vt 0.375000 0.312500
vt 0.375000 0.750000
vt 0.375000 0.250000
vt 0.375000 0.687500
vt 0.375000 0.187500
vt 0.375000 0.625000
vt 0.375000 0.125000
vt 0.375000 0.562500
vt 0.375000 0.062500
vt 0.375000 0.500000
vt 0.390625 1.000000
vt 0.375000 0.937500
vt 0.390625 0.000000
vt 0.343750 0.187500
vt 0.343750 0.125000
vt 0.343750 0.625000
vt 0.343750 0.562500
vt 0.343750 0.062500
vt 0.343750 0.500000
vt 0.359375 1.000000
vt 0.343750 0.937500
vt 0.359375 0.000000
vt 0.343750 0.437500
vt 0.343750 0.875000
vt 0.343750 0.375000
vt 0.343750 0.812500
vt 0.343750 0.312500
vt 0.343750 0.750000
vt 0.343750 0.250000
vt 0.343750 0.687500
vt 0.312500 0.875000
vt 0.312500 0.812500
vt 0.312500 0.375000
vt 0.312500 0.312500
vt 0.312500 0.750000
vt 0.312500 0.250000
vt 0.312500 0.687500
vt 0.312500 0.187500
vt 0.312500 0.625000
vt 0.312500 0.125000
vt 0.312500 0.562500
vt 0.312500 0.062500
vt 0.312500 0.500000
vt 0.328125 1.000000
vt 0.312500 0.937500
vt 0.328125 0.000000
vt 0.312500 0.437500
vt 0.281250 0.625000
vt 0.281250 0.562500
vt 0.281250 0.125000
vt 0.281250 0.062500
vt 0.281250 0.500000
vt 0.296875 1.000000
vt 0.281250 0.937500
vt 0.296875 0.000000
vt 0.281250 0.437500
vt 0.281250 0.875000
vt 0.281250 0.375000
vt 0.281250 0.812500
vt 0.281250 0.312500
vt 0.281250 0.750000
vt 0.281250 0.250000
vt 0.281250 0.687500
vt 0.281250 0.187500
vt 0.250000 0.375000
vt 0.250000 0.312500
vt 0.250000 0.812500
vt 0.250000 0.750000
vt 0.250000 0.250000
vt 0.250000 0.687500
vt 0.250000 0.187500
vt 0.250000 0.625000
vt 0.250000 0.125000
vt 0.250000 0.562500
vt 0.250000 0.062500
vt 0.250000 0.500000
vt 0.265625 1.000000
vt 0.250000 0.937500
vt 0.265625 0.000000
vt 0.250000 0.437500
vt 0.250000 0.875000
vt 0.218750 0.125000
vt 0.218750 0.062500
vt 0.218750 0.562500
vt 0.218750 0.500000
vt 0.234375 1.000000
vt 0.218750 0.937500
vt 0.234375 0.000000
vt 0.218750 0.437500
vt 0.218750 0.875000
vt 0.218750 0.375000
vt 0.218750 0.812500
vt 0.218750 0.312500
vt 0.218750 0.750000
vt 0.218750 0.250000
vt 0.218750 0.687500
vt 0.218750 0.187500
vt 0.218750 0.625000
vt 0.187500 0.812500
vt 0.187500 0.750000
vt 0.187500 0.312500
vt 0.187500 0.250000
vt 0.187500 0.687500
vt 0.187500 0.187500
vt 0.187500 0.625000
vt 0.187500 0.125000
vt 0.187500 0.562500
vt 0.187500 0.062500
vt 0.187500 0.500000
vt 0.203125 1.000000
vt 0.187500 0.937500
vt 0.203125 0.000000
vt 0.187500 0.437500
vt 0.187500 0.875000
vt 0.187500 0.375000
vt 0.156250 0.562500
vt 0.156250 0.500000
vt 0.171875 1.000000
vt 0.156250 0.937500
vt 0.171875 0.000000
vt 0.156250 0.062500
vt 0.156250 0.437500
vt 0.156250 0.875000
vt 0.156250 0.375000
vt 0.156250 0.812500
vt 0.156250 0.312500
vt 0.156250 0.750000
vt 0.156250 0.250000
vt 0.156250 0.687500
vt 0.156250 0.187500
vt 0.156250 0.625000
vt 0.156250 0.125000
vt 0.125000 0.312500
vt 0.125000 0.250000
vt 0.125000 0.750000
vt 0.125000 0.687500
vt 0.125000 0.187500
vt 0.125000 0.625000
vt 0.125000 0.125000
vt 0.125000 0.562500
vt 0.125000 0.062500
vt 0.125000 0.500000
vt 0.140625 1.000000
vt 0.125000 0.937500
vt 0.140625 0.000000
vt 0.125000 0.437500
vt 0.125000 0.875000
vt 0.125000 0.375000
vt 0.125000 0.812500
vt 0.109375 0.000000
vt 0.093750 0.062500
vt 0.093750 0.500000
vt 0.093750 0.437500
vt 0.093750 0.937500
vt 0.093750 0.875000
vt 0.093750 0.375000
vt 0.093750 0.812500
vt 0.093750 0.312500
vt 0.093750 0.750000
vt 0.093750 0.250000
vt 0.093750 0.687500
vt 0.093750 0.187500
vt 0.093750 0.625000
vt 0.093750 0.125000
vt 0.093750 0.562500
vt 0.109375 1.000000
vt 0.062500 0.250000
vt 0.062500 0.187500
vt 0.062500 0.687500
vt 0.062500 0.625000
vt 0.062500 0.125000
vt 0.062500 0.562500
vt 0.062500 0.062500
vt 0.062500 0.500000
vt 0.078125 1.000000
vt 0.062500 0.937500
vt 0.078125 0.000000
vt 0.062500 0.437500
vt 0.062500 0.875000
vt 0.062500 0.375000
vt 0.062500 0.812500
vt 0.062500 0.312500
vt 0.062500 0.750000
vt 0.031250 0.937500
vt 0.031250 0.875000
vt 0.031250 0.437500
vt 0.031250 0.375000
vt 0.031250 0.812500
vt 0.031250 0.312500
vt 0.031250 0.750000
vt 0.031250 0.250000
vt 0.031250 0.687500
vt 0.031250 0.187500
vt 0.031250 0.625000
vt 0.031250 0.125000
vt 0.031250 0.562500
vt 0.031250 0.062500
vt 0.031250 0.500000
vt 0.046875 1.000000
vt 0.046875 0.000000
vt 0.000000 0.687500
vt 0.000000 0.625000
vt 0.000000 0.187500
vt 0.000000 0.125000
vt 0.000000 0.562500
vt 0.000000 0.062500
vt 0.000000 0.500000
vt 0.015625 1.000000
vt 0.000000 0.937500
vt 0.015625 0.000000
vt 0.000000 0.437500
vt 0.000000 0.875000
vt 0.000000 0.375000
vt 0.000000 0.812500
vt 0.000000 0.312500
vt 0.000000 0.750000
vt 0.000000 0.250000
vt 1.000000 0.375000
vt 1.000000 0.437500
vt 0.968750 0.437500
vt 0.968750 0.375000
vt 1.000000 0.812500
vt 1.000000 0.875000
vt 0.968750 0.875000
vt 0.968750 0.812500
vt 1.000000 0.312500
vt 0.968750 0.312500
vt 1.000000 0.750000
vt 0.968750 0.750000
vt 1.000000 0.250000
vt 0.968750 0.250000
vt 1.000000 0.687500
vt 0.968750 0.687500
vt 1.000000 0.187500
vt 0.968750 0.187500
vt 1.000000 0.625000
vt 0.968750 0.625000
vt 1.000000 0.125000
vt 0.968750 0.125000
vt 1.000000 0.562500
vt 0.968750 0.562500
vt 1.000000 0.062500
vt 0.968750 0.062500
vt 1.000000 0.500000
vt 0.968750 0.500000
vt 1.000000 0.937500
vt 0.984375 1.000000
vt 0.968750 0.937500
vt 0.984375 0.000000
vt 0.937500 0.187500
vt 0.937500 0.125000
vt 0.937500 0.625000
vt 0.937500 0.562500
vt 0.937500 0.062500
vt 0.937500 0.500000
vt 0.953125 1.000000
vt 0.937500 0.937500
vt 0.953125 0.000000
vt 0.937500 0.437500
vt 0.937500 0.875000
vt 0.937500 0.375000
vt 0.937500 0.812500
vt 0.937500 0.312500
vt 0.937500 0.750000
vt 0.937500 0.250000
vt 0.937500 0.687500
vt 0.906250 0.875000
vt 0.906250 0.812500
vt 0.906250 0.375000
vt 0.906250 0.312500
vt 0.906250 0.750000
vt 0.906250 0.250000
vt 0.906250 0.687500
vt 0.906250 0.187500
vt 0.906250 0.625000
vt 0.906250 0.125000
vt 0.906250 0.562500
vt 0.906250 0.062500
vt 0.906250 0.500000
vt 0.921875 1.000000
vt 0.906250 0.937500
vt 0.921875 0.000000
vt 0.906250 0.437500
vt 0.875000 0.625000
vt 0.875000 0.562500
vt 0.875000 0.125000
vt 0.875000 0.062500
vt 0.875000 0.500000
vt 0.890625 1.000000
vt 0.875000 0.937500
vt 0.890625 0.000000
vt 0.875000 0.437500
vt 0.875000 0.875000
vt 0.875000 0.375000
vt 0.875000 0.812500
vt 0.875000 0.312500
vt 0.875000 0.750000
vt 0.875000 0.250000
vt 0.875000 0.687500
vt 0.875000 0.187500
vt 0.843750 0.375000
vt 0.843750 0.312500
vt 0.843750 0.812500
vt 0.843750 0.750000
vt 0.843750 0.250000
vt 0.843750 0.687500
vt 0.843750 0.187500
vt 0.843750 0.625000
vt 0.843750 0.125000
vt 0.843750 0.562500
vt 0.843750 0.062500
vt 0.843750 0.500000
vt 0.859375 1.000000
vt 0.843750 0.937500
vt 0.859375 0.000000
vt 0.843750 0.437500
vt 0.843750 0.875000
vt 0.812500 0.125000
vt 0.812500 0.062500
vt 0.812500 0.562500
vt 0.812500 0.500000
vt 0.828125 1.000000
vt 0.812500 0.937500
vt 0.828125 0.000000
vt 0.812500 0.437500
vt 0.812500 0.875000
vt 0.812500 0.375000
vt 0.812500 0.812500
vt 0.812500 0.312500
vt 0.812500 0.750000
vt 0.812500 0.250000
vt 0.812500 0.687500
vt 0.812500 0.187500
vt 0.812500 0.625000
vt 0.781250 0.312500
vt 0.781250 0.250000
vt 0.781250 0.750000
vt 0.781250 0.687500
vt 0.781250 0.187500
vt 0.781250 0.625000
vt 0.781250 0.125000
vt 0.781250 0.562500
vt 0.781250 0.062500
vt 0.781250 0.500000
vt 0.796875 1.000000
vt 0.781250 0.937500
vt 0.796875 0.000000
vt 0.781250 0.437500
vt 0.781250 0.875000
vt 0.781250 0.375000
vt 0.781250 0.812500
vt 0.765625 1.000000
vt 0.765625 0.000000
s 0
f 4/1/1 3/2/1 13/3/1 14/4/1
f 474/5/2 82/6/2 7/7/2
f 308/8/3 482/9/3 21/10/3
f 5/11/4 4/1/4 14/4/4 15/12/4
f 475/13/5 474/5/5 7/7/5 8/14/5
f 478/15/6 5/11/6 15/12/6 16/16/6
f 1/17/7 475/13/7 8/14/7 9/18/7
f 6/19/8 478/15/8 16/16/8 17/20/8
f 476/21/9 1/17/9 9/18/9 10/22/9
f 479/23/10 6/19/10 17/20/10 18/24/10
f 2/25/11 476/21/11 10/22/11 11/26/11
f 480/27/12 479/23/12 18/24/12 19/28/12
f 477/29/13 2/25/13 11/26/13 12/30/13
f 481/31/14 480/27/14 19/28/14 20/32/14
f 3/2/15 477/29/15 12/30/15 13/3/15
f 482/9/16 481/31/16 20/32/16 21/10/16
f 20/32/17 19/28/17 34/33/17 35/34/17
f 13/3/18 12/30/18 27/35/18 28/36/18
f 21/10/19 20/32/19 35/34/19 36/37/19
f 14/4/20 13/3/20 28/36/20 29/38/20
f 7/7/21 82/39/21 22/40/21
f 308/41/22 21/10/22 36/37/22
f 15/12/23 14/4/23 29/38/23 30/42/23
f 8/14/24 7/7/24 22/40/24 23/43/24
f 16/16/25 15/12/25 30/42/25 31/44/25
f 9/18/26 8/14/26 23/43/26 24/45/26
f 17/20/27 16/16/27 31/44/27 32/46/27
f 10/22/28 9/18/28 24/45/28 25/47/28
f 18/24/29 17/20/29 32/46/29 33/48/29
f 11/26/30 10/22/30 25/47/30 26/49/30
f 19/28/31 18/24/31 33/48/31 34/33/31
f 12/30/32 11/26/32 26/49/32 27/35/32
f 32/46/33 31/44/33 46/50/33 47/51/33
f 25/47/34 24/45/34 39/52/34 40/53/34
f 33/48/35 32/46/35 47/51/35 48/54/35
f 26/49/36 25/47/36 40/53/36 41/55/36
f 34/33/37 33/48/37 48/54/37 49/56/37
f 27/35/38 26/49/38 41/55/38 42/57/38
f 35/34/39 34/33/39 49/56/39 50/58/39
f 28/36/40 27/35/40 42/57/40 43/59/40
f 36/37/41 35/34/41 50/58/41 51/60/41
f 29/38/42 28/36/42 43/59/42 44/61/42
f 22/40/43 82/62/43 37/63/43
f 308/64/44 36/37/44 51/60/44
f 30/42/45 29/38/45 44/61/45 45/65/45
f 23/43/46 22/40/46 37/63/46 38/66/46
f 31/44/47 30/42/47 45/65/47 46/50/47
f 24/45/48 23/43/48 38/66/48 39/52/48
f 51/60/49 50/58/49 65/67/49 66/68/49
f 44/61/50 43/59/50 58/69/50 59/70/50
f 37/63/51 82/71/51 52/72/51
f 308/73/52 51/60/52 66/68/52
f 45/65/53 44/61/53 59/70/53 60/74/53
f 38/66/54 37/63/54 52/72/54 53/75/54
f 46/50/55 45/65/55 60/74/55 61/76/55
f 39/52/56 38/66/56 53/75/56 54/77/56
f 47/51/57 46/50/57 61/76/57 62/78/57
f 40/53/58 39/52/58 54/77/58 55/79/58
f 48/54/59 47/51/59 62/78/59 63/80/59
f 41/55/60 40/53/60 55/79/60 56/81/60
f 49/56/61 48/54/61 63/80/61 64/82/61
f 42/57/62 41/55/62 56/81/62 57/83/62
f 50/58/63 49/56/63 64/82/63 65/67/63
f 43/59/64 42/57/64 57/83/64 58/69/64
f 55/79/65 54/77/65 69/84/65 70/85/65
f 63/80/66 62/78/66 77/86/66 78/87/66
f 56/81/67 55/79/67 70/85/67 71/88/67
f 64/82/68 63/80/68 78/87/68 79/89/68
f 57/83/69 56/81/69 71/88/69 72/90/69
f 65/67/70 64/82/70 79/89/70 80/91/70
f 58/69/71 57/83/71 72/90/71 73/92/71
f 66/68/72 65/67/72 80/91/72 81/93/72
f 59/70/73 58/69/73 73/92/73 74/94/73
f 52/72/74 82/95/74 67/96/74
f 308/97/75 66/68/75 81/93/75
f 60/74/76 59/70/76 74/94/76 75/98/76
f 53/75/77 52/72/77 67/96/77 68/99/77
f 61/76/78 60/74/78 75/98/78 76/100/78
f 54/77/79 53/75/79 68/99/79 69/84/79
f 62/78/80 61/76/80 76/100/80 77/86/80
f 74/94/81 73/92/81 89/101/81 90/102/81
f 67/96/82 82/103/82 83/104/82
f 308/105/83 81/93/83 97/106/83
f 75/98/84 74/94/84 90/102/84 91/107/84
f 68/99/85 67/96/85 83/104/85 84/108/85
f 76/100/86 75/98/86 91/107/86 92/109/86
f 69/84/87 68/99/87 84/108/87 85/110/87
f 77/86/88 76/100/88 92/109/88 93/111/88
f 70/85/89 69/84/89 85/110/89 86/112/89
f 78/87/90 77/86/90 93/111/90 94/113/90
f 71/88/91 70/85/91 86/112/91 87/114/91
f 79/89/92 78/87/92 94/113/92 95/115/92
f 72/90/93 71/88/93 87/114/93 88/116/93
f 80/91/94 79/89/94 95/115/94 96/117/94
f 73/92/95 72/90/95 88/116/95 89/101/95
f 81/93/96 80/91/96 96/117/96 97/106/96
f 94/113/97 93/111/97 108/118/97 109/119/97
f 87/114/98 86/112/98 101/120/98 102/121/98
f 95/115/99 94/113/99 109/119/99 110/122/99
f 88/116/100 87/114/100 102/121/100 103/123/100
f 96/117/101 95/115/101 110/122/101 111/124/101
f 89/101/102 88/116/102 103/123/102 104/125/102
f 97/106/103 96/117/103 111/124/103 112/126/103
f 90/102/104 89/101/104 104/125/104 105/127/104
f 83/104/105 82/128/105 98/129/105
f 308/130/106 97/106/106 112/126/106
f 91/107/107 90/102/107 105/127/107 106/131/107
f 84/108/108 83/104/108 98/129/108 99/132/108
f 92/109/109 91/107/109 106/131/109 107/133/109
f 85/110/110 84/108/110 99/132/110 100/134/110
f 93/111/111 92/109/111 107/133/111 108/118/111
f 86/112/112 85/110/112 100/134/112 101/120/112
f 98/129/113 82/135/113 113/136/113
f 308/137/114 112/126/114 127/138/114
f 106/131/115 105/127/115 120/139/115 121/140/115
f 99/132/116 98/129/116 113/136/116 114/141/116
f 107/133/117 106/131/117 121/140/117 122/142/117
f 100/134/118 99/132/118 114/141/118 115/143/118
f 108/118/119 107/133/119 122/142/119 123/144/119
f 101/120/120 100/134/120 115/143/120 116/145/120
f 109/119/121 108/118/121 123/144/121 124/146/121
f 102/121/122 101/120/122 116/145/122 117/147/122
f 110/122/123 109/119/123 124/146/123 125/148/123
f 103/123/124 102/121/124 117/147/124 118/149/124
f 111/124/125 110/122/125 125/148/125 126/150/125
f 104/125/126 103/123/126 118/149/126 119/151/126
f 112/126/127 111/124/127 126/150/127 127/138/127
f 105/127/128 104/125/128 119/151/128 120/139/128
f 117/147/129 116/145/129 131/152/129 132/153/129
f 125/148/130 124/146/130 139/154/130 140/155/130
f 118/149/131 117/147/131 132/153/131 133/156/131
f 126/150/132 125/148/132 140/155/132 141/157/132
f 119/151/133 118/149/133 133/156/133 134/158/133
f 127/138/134 126/150/134 141/157/134 142/159/134
f 120/139/135 119/151/135 134/158/135 135/160/135
f 113/136/136 82/161/136 128/162/136
f 308/163/137 127/138/137 142/159/137
f 121/140/138 120/139/138 135/160/138 136/164/138
f 114/141/139 113/136/139 128/162/139 129/165/139
f 122/142/140 121/140/140 136/164/140 137/166/140
f 115/143/141 114/141/141 129/165/141 130/167/141
f 123/144/142 122/142/142 137/166/142 138/168/142
f 116/145/143 115/143/143 130/167/143 131/152/143
f 124/146/144 123/144/144 138/168/144 139/154/144
f 136/164/145 135/160/145 150/169/145 151/170/145
f 129/165/146 128/162/146 143/171/146 144/172/146
f 137/166/147 136/164/147 151/170/147 152/173/147
f 130/167/148 129/165/148 144/172/148 145/174/148
f 138/168/149 137/166/149 152/173/149 153/175/149
f 131/152/150 130/167/150 145/174/150 146/176/150
f 139/154/151 138/168/151 153/175/151 154/177/151
f 132/153/152 131/152/152 146/176/152 147/178/152
f 140/155/153 139/154/153 154/177/153 155/179/153
f 133/156/154 132/153/154 147/178/154 148/180/154
f 141/157/155 140/155/155 155/179/155 156/181/155
f 134/158/156 133/156/156 148/180/156 149/182/156
f 142/159/157 141/157/157 156/181/157 157/183/157
f 135/160/158 134/158/158 149/182/158 150/169/158
f 128/162/159 82/184/159 143/171/159
f 308/185/160 142/159/160 157/183/160
f 155/179/161 154/177/161 169/186/161 170/187/161
f 148/180/162 147/178/162 162/188/162 163/189/162
f 156/181/163 155/179/163 170/187/163 171/190/163
f 149/182/164 148/180/164 163/189/164 164/191/164
f 157/183/165 156/181/165 171/190/165 172/192/165
f 150/169/166 149/182/166 164/191/166 165/193/166
f 143/171/167 82/194/167 158/195/167
f 308/196/168 157/183/168 172/192/168
f 151/170/169 150/169/169 165/193/169 166/197/169
f 144/172/170 143/171/170 158/195/170 159/198/170
f 152/173/171 151/170/171 166/197/171 167/199/171
f 145/174/172 144/172/172 159/198/172 160/200/172
f 153/175/173 152/173/173 167/199/173 168/201/173
f 146/176/174 145/174/174 160/200/174 161/202/174
f 154/177/175 153/175/175 168/201/175 169/186/175
f 147/178/176 146/176/176 161/202/176 162/188/176
f 167/199/177 166/197/177 181/203/177 182/204/177
f 160/200/178 159/198/178 174/205/178 175/206/178
f 168/201/179 167/199/179 182/204/179 183/207/179
f 161/202/180 160/200/180 175/206/180 176/208/180
f 169/186/181 168/201/181 183/207/181 184/209/181
f 162/188/182 161/202/182 176/208/182 177/210/182
f 170/187/183 169/186/183 184/209/183 185/211/183
f 163/189/184 162/188/184 177/210/184 178/212/184
f 171/190/185 170/187/185 185/211/185 186/213/185
f 164/191/186 163/189/186 178/212/186 179/214/186
f 172/192/187 171/190/187 186/213/187 187/215/187
f 165/193/188 164/191/188 179/214/188 180/216/188
f 158/195/189 82/217/189 173/218/189
f 308/219/190 172/192/190 187/215/190
f 166/197/191 165/193/191 180/216/191 181/203/191
f 159/198/192 158/195/192 173/218/192 174/205/192
f 186/213/193 185/211/193 200/220/193 201/221/193
f 179/214/194 178/212/194 193/222/194 194/223/194
f 187/215/195 186/213/195 201/221/195 202/224/195
f 180/216/196 179/214/196 194/223/196 195/225/196
f 173/218/197 82/226/197 188/227/197
f 308/228/198 187/215/198 202/224/198
f 181/203/199 180/216/199 195/225/199 196/229/199
f 174/205/200 173/218/200 188/227/200 189/230/200
f 182/204/201 181/203/201 196/229/201 197/231/201
f 175/206/202 174/205/202 189/230/202 190/232/202
f 183/207/203 182/204/203 197/231/203 198/233/203
f 176/208/204 175/206/204 190/232/204 191/234/204
f 184/209/205 183/207/205 198/233/205 199/235/205
f 177/210/206 176/208/206 191/234/206 192/236/206
f 185/211/207 184/209/207 199/235/207 200/220/207
f 178/212/208 177/210/208 192/236/208 193/222/208
f 190/232/209 189/230/209 204/237/209 205/238/209
f 198/233/210 197/231/210 212/239/210 213/240/210
f 191/234/211 190/232/211 205/238/211 206/241/211
f 199/235/212 198/233/212 213/240/212 214/242/212
f 192/236/213 191/234/213 206/241/213 207/243/213
f 200/220/214 199/235/214 214/242/214 215/244/214
f 193/222/215 192/236/215 207/243/215 208/245/215
f 201/221/216 200/220/216 215/244/216 216/246/216
f 194/223/217 193/222/217 208/245/217 209/247/217
f 202/224/218 201/221/218 216/246/218 217/248/218
f 195/225/219 194/223/219 209/247/219 210/249/219
f 188/227/220 82/250/220 203/251/220
f 308/252/221 202/224/221 217/248/221
f 196/229/222 195/225/222 210/249/222 211/253/222
f 189/230/223 188/227/223 203/251/223 204/237/223
f 197/231/224 196/229/224 211/253/224 212/239/224
f 209/247/225 208/245/225 223/254/225 224/255/225
f 217/248/226 216/246/226 231/256/226 232/257/226
f 210/249/227 209/247/227 224/255/227 225/258/227
f 203/251/228 82/259/228 218/260/228
f 308/261/229 217/248/229 232/257/229
f 211/253/230 210/249/230 225/258/230 226/262/230
f 204/237/231 203/251/231 218/260/231 219/263/231
f 212/239/232 211/253/232 226/262/232 227/264/232
f 205/238/233 204/237/233 219/263/233 220/265/233
f 213/240/234 212/239/234 227/264/234 228/266/234
f 206/241/235 205/238/235 220/265/235 221/267/235
f 214/242/236 213/240/236 228/266/236 229/268/236
f 207/243/237 206/241/237 221/267/237 222/269/237
f 215/244/238 214/242/238 229/268/238 230/270/238
f 208/245/239 207/243/239 222/269/239 223/254/239
f 216/246/240 215/244/240 230/270/240 231/256/240
f 228/266/241 227/264/241 242/271/241 243/272/241
f 221/267/242 220/265/242 235/273/242 236/274/242
f 229/268/243 228/266/243 243/272/243 244/275/243
f 222/269/244 221/267/244 236/274/244 237/276/244
f 230/270/245 229/268/245 244/275/245 245/277/245
f 223/254/246 222/269/246 237/276/246 238/278/246
f 231/256/247 230/270/247 245/277/247 246/279/247
f 224/255/248 223/254/248 238/278/248 239/280/248
f 232/257/249 231/256/249 246/279/249 247/281/249
f 225/258/250 224/255/250 239/280/250 240/282/250
f 218/260/251 82/283/251 233/284/251
f 308/285/252 232/257/252 247/281/252
f 226/262/253 225/258/253 240/282/253 241/286/253
f 219/263/254 218/260/254 233/284/254 234/287/254
f 227/264/255 226/262/255 241/286/255 242/271/255
f 220/265/256 219/263/256 234/287/256 235/273/256
f 247/281/257 246/279/257 261/288/257 262/289/257
f 240/282/258 239/280/258 254/290/258 255/291/258
f 233/284/259 82/292/259 248/293/259
f 308/294/260 247/281/260 262/289/260
f 241/286/261 240/282/261 255/291/261 256/295/261
f 234/287/262 233/284/262 248/293/262 249/296/262
f 242/271/263 241/286/263 256/295/263 257/297/263
f 235/273/264 234/287/264 249/296/264 250/298/264
f 243/272/265 242/271/265 257/297/265 258/299/265
f 236/274/266 235/273/266 250/298/266 251/300/266
f 244/275/267 243/272/267 258/299/267 259/301/267
f 237/276/268 236/274/268 251/300/268 252/302/268
f 245/277/269 244/275/269 259/301/269 260/303/269
f 238/278/270 237/276/270 252/302/270 253/304/270
f 246/279/271 245/277/271 260/303/271 261/288/271
f 239/280/272 238/278/272 253/304/272 254/290/272
f 251/300/273 250/298/273 265/305/273 266/306/273
f 259/301/274 258/299/274 273/307/274 274/308/274
f 252/302/275 251/300/275 266/306/275 267/309/275
f 260/303/276 259/301/276 274/308/276 275/310/276
f 253/304/277 252/302/277 267/309/277 268/311/277
f 261/288/278 260/303/278 275/310/278 276/312/278
f 254/290/279 253/304/279 268/311/279 269/313/279
f 262/289/280 261/288/280 276/312/280 277/314/280
f 255/291/281 254/290/281 269/313/281 270/315/281
f 248/293/282 82/316/282 263/317/282
f 308/318/283 262/289/283 277/314/283
f 256/295/284 255/291/284 270/315/284 271/319/284
f 249/296/285 248/293/285 263/317/285 264/320/285
f 257/297/286 256/295/286 271/319/286 272/321/286
f 250/298/287 249/296/287 264/320/287 265/305/287
f 258/299/288 257/297/288 272/321/288 273/307/288
f 270/315/289 269/313/289 284/322/289 285/323/289
f 263/317/290 82/324/290 278/325/290
f 308/326/291 277/314/291 292/327/291
f 271/319/292 270/315/292 285/323/292 286/328/292
f 264/320/293 263/317/293 278/325/293 279/329/293
f 272/321/294 271/319/294 286/328/294 287/330/294
f 265/305/295 264/320/295 279/329/295 280/331/295
f 273/307/296 272/321/296 287/330/296 288/332/296
f 266/306/297 265/305/297 280/331/297 281/333/297
f 274/308/298 273/307/298 288/332/298 289/334/298
f 267/309/299 266/306/299 281/333/299 282/335/299
f 275/310/300 274/308/300 289/334/300 290/336/300
f 268/311/301 267/309/301 282/335/301 283/337/301
f 276/312/302 275/310/302 290/336/302 291/338/302
f 269/313/303 268/311/303 283/337/303 284/322/303
f 277/314/304 276/312/304 291/338/304 292/327/304
f 289/334/305 288/332/305 303/339/305 304/340/305
f 282/335/306 281/333/306 296/341/306 297/342/306
f 290/336/307 289/334/307 304/340/307 305/343/307
f 283/337/308 282/335/308 297/342/308 298/344/308
f 291/338/309 290/336/309 305/343/309 306/345/309
f 284/322/310 283/337/310 298/344/310 299/346/310
f 292/327/311 291/338/311 306/345/311 307/347/311
f 285/323/312 284/322/312 299/346/312 300/348/312
f 278/325/313 82/349/313 293/350/313
f 308/351/314 292/327/314 307/347/314
f 286/328/315 285/323/315 300/348/315 301/352/315
f 279/329/316 278/325/316 293/350/316 294/353/316
f 287/330/317 286/328/317 301/352/317 302/354/317
f 280/331/318 279/329/318 294/353/318 295/355/318
f 288/332/319 287/330/319 302/354/319 303/339/319
f 281/333/320 280/331/320 295/355/320 296/341/320
f 308/356/321 307/347/321 323/357/321
f 301/352/322 300/348/322 316/358/322 317/359/322
f 294/353/323 293/350/323 309/360/323 310/361/323
f 302/354/324 301/352/324 317/359/324 318/362/324
f 295/355/325 294/353/325 310/361/325 311/363/325
f 303/339/326 302/354/326 318/362/326 319/364/326
f 296/341/327 295/355/327 311/363/327 312/365/327
f 304/340/328 303/339/328 319/364/328 320/366/328
f 297/342/329 296/341/329 312/365/329 313/367/329
f 305/343/330 304/340/330 320/366/330 321/368/330
f 298/344/331 297/342/331 313/367/331 314/369/331
f 306/345/332 305/343/332 321/368/332 322/370/332
f 299/346/333 298/344/333 314/369/333 315/371/333
f 307/347/334 306/345/334 322/370/334 323/357/334
f 300/348/335 299/346/335 315/371/335 316/358/335
f 293/350/336 82/372/336 309/360/336
f 321/368/337 320/366/337 335/373/337 336/374/337
f 314/369/338 313/367/338 328/375/338 329/376/338
f 322/370/339 321/368/339 336/374/339 337/377/339
f 315/371/340 314/369/340 329/376/340 330/378/340
f 323/357/341 322/370/341 337/377/341 338/379/341
f 316/358/342 315/371/342 330/378/342 331/380/342
f 309/360/343 82/381/343 324/382/343
f 308/383/344 323/357/344 338/379/344
f 317/359/345 316/358/345 331/380/345 332/384/345
f 310/361/346 309/360/346 324/382/346 325/385/346
f 318/362/347 317/359/347 332/384/347 333/386/347
f 311/363/348 310/361/348 325/385/348 326/387/348
f 319/364/349 318/362/349 333/386/349 334/388/349
f 312/365/350 311/363/350 326/387/350 327/389/350
f 320/366/351 319/364/351 334/388/351 335/373/351
f 313/367/352 312/365/352 327/389/352 328/375/352
f 325/385/353 324/382/353 339/390/353 340/391/353
f 333/386/354 332/384/354 347/392/354 348/393/354
f 326/387/355 325/385/355 340/391/355 341/394/355
f 334/388/356 333/386/356 348/393/356 349/395/356
f 327/389/357 326/387/357 341/394/357 342/396/357
f 335/373/358 334/388/358 349/395/358 350/397/358
f 328/375/359 327/389/359 342/396/359 343/398/359
f 336/374/360 335/373/360 350/397/360 351/399/360
f 329/376/361 328/375/361 343/398/361 344/400/361
f 337/377/362 336/374/362 351/399/362 352/401/362
f 330/378/363 329/376/363 344/400/363 345/402/363
f 338/379/364 337/377/364 352/401/364 353/403/364
f 331/380/365 330/378/365 345/402/365 346/404/365
f 324/382/366 82/405/366 339/390/366
f 308/406/367 338/379/367 353/403/367
f 332/384/368 331/380/368 346/404/368 347/392/368
f 344/400/369 343/398/369 358/407/369 359/408/369
f 352/401/370 351/399/370 366/409/370 367/410/370
f 345/402/371 344/400/371 359/408/371 360/411/371
f 353/403/372 352/401/372 367/410/372 368/412/372
f 346/404/373 345/402/373 360/411/373 361/413/373
f 339/390/374 82/414/374 354/415/374
f 308/416/375 353/403/375 368/412/375
f 347/392/376 346/404/376 361/413/376 362/417/376
f 340/391/377 339/390/377 354/415/377 355/418/377
f 348/393/378 347/392/378 362/417/378 363/419/378
f 341/394/379 340/391/379 355/418/379 356/420/379
f 349/395/380 348/393/380 363/419/380 364/421/380
f 342/396/381 341/394/381 356/420/381 357/422/381
f 350/397/382 349/395/382 364/421/382 365/423/382
f 343/398/383 342/396/383 357/422/383 358/407/383
f 351/399/384 350/397/384 365/423/384 366/409/384
f 363/424/385 362/425/385 377/426/385 378/427/385
f 356/428/386 355/429/386 370/430/386 371/431/386
f 364/432/387 363/424/387 378/427/387 379/433/387
f 357/434/388 356/428/388 371/431/388 372/435/388
f 365/436/389 364/432/389 379/433/389 380/437/389
f 358/438/390 357/434/390 372/435/390 373/439/390
f 366/440/391 365/436/391 380/437/391 381/441/391
f 359/442/392 358/438/392 373/439/392 374/443/392
f 367/444/393 366/440/393 381/441/393 382/445/393
f 360/446/394 359/442/394 374/443/394 375/447/394
f 368/448/395 367/444/395 382/445/395 383/449/395
f 361/450/396 360/446/396 375/447/396 376/451/396
f 354/452/397 82/453/397 369/454/397
f 308/455/398 368/448/398 383/449/398
f 362/425/399 361/450/399 376/451/399 377/426/399
f 355/429/400 354/452/400 369/454/400 370/430/400
f 382/445/401 381/441/401 396/456/401 397/457/401
f 375/447/402 374/443/402 389/458/402 390/459/402
f 383/449/403 382/445/403 397/457/403 398/460/403
f 376/451/404 375/447/404 390/459/404 391/461/404
f 369/454/405 82/462/405 384/463/405
f 308/464/406 383/449/406 398/460/406
f 377/426/407 376/451/407 391/461/407 392/465/407
f 370/430/408 369/454/408 384/463/408 385/466/408
f 378/427/409 377/426/409 392/465/409 393/467/409
f 371/431/410 370/430/410 385/466/410 386/468/410
f 379/433/411 378/427/411 393/467/411 394/469/411
f 372/435/412 371/431/412 386/468/412 387/470/412
f 380/437/413 379/433/413 394/469/413 395/471/413
f 373/439/414 372/435/414 387/470/414 388/472/414
f 381/441/415 380/437/415 395/471/415 396/456/415
f 374/443/416 373/439/416 388/472/416 389/458/416
f 386/468/417 385/466/417 400/473/417 401/474/417
f 394/469/418 393/467/418 408/475/418 409/476/418
f 387/470/419 386/468/419 401/474/419 402/477/419
f 395/471/420 394/469/420 409/476/420 410/478/420
f 388/472/421 387/470/421 402/477/421 403/479/421
f 396/456/422 395/471/422 410/478/422 411/480/422
f 389/458/423 388/472/423 403/479/423 404/481/423
f 397/457/424 396/456/424 411/480/424 412/482/424
f 390/459/425 389/458/425 404/481/425 405/483/425
f 398/460/426 397/457/426 412/482/426 413/484/426
f 391/461/427 390/459/427 405/483/427 406/485/427
f 384/463/428 82/486/428 399/487/428
f 308/488/429 398/460/429 413/484/429
f 392/465/430 391/461/430 406/485/430 407/489/430
f 385/466/431 384/463/431 399/487/431 400/473/431
f 393/467/432 392/465/432 407/489/432 408/475/432
f 405/483/433 404/481/433 419/490/433 420/491/433
f 413/484/434 412/482/434 427/492/434 428/493/434
f 406/485/435 405/483/435 420/491/435 421/494/435
f 399/487/436 82/495/436 414/496/436
f 308/497/437 413/484/437 428/493/437
f 407/489/438 406/485/438 421/494/438 422/498/438
f 400/473/439 399/487/439 414/496/439 415/499/439
f 408/475/440 407/489/440 422/498/440 423/500/440
f 401/474/441 400/473/441 415/499/441 416/501/441
f 409/476/442 408/475/442 423/500/442 424/502/442
f 402/477/443 401/474/443 416/501/443 417/503/443
f 410/478/444 409/476/444 424/502/444 425/504/444
f 403/479/445 402/477/445 417/503/445 418/505/445
f 411/480/446 410/478/446 425/504/446 426/506/446
f 404/481/447 403/479/447 418/505/447 419/490/447
f 412/482/448 411/480/448 426/506/448 427/492/448
f 424/502/449 423/500/449 438/507/449 439/508/449
f 417/503/450 416/501/450 431/509/450 432/510/450
f 425/504/451 424/502/451 439/508/451 440/511/451
f 418/505/452 417/503/452 432/510/452 433/512/452
f 426/506/453 425/504/453 440/511/453 441/513/453
f 419/490/454 418/505/454 433/512/454 434/514/454
f 427/492/455 426/506/455 441/513/455 442/515/455
f 420/491/456 419/490/456 434/514/456 435/516/456
f 428/493/457 427/492/457 442/515/457 443/517/457
f 421/494/458 420/491/458 435/516/458 436/518/458
f 414/496/459 82/519/459 429/520/459
f 308/521/460 428/493/460 443/517/460
f 422/498/461 421/494/461 436/518/461 437/522/461
f 415/499/462 414/496/462 429/520/462 430/523/462
f 423/500/463 422/498/463 437/522/463 438/507/463
f 416/501/464 415/499/464 430/523/464 431/509/464
f 443/517/465 442/515/465 457/524/465 458/525/465
f 436/518/466 435/516/466 450/526/466 451/527/466
f 429/520/467 82/528/467 444/529/467
f 308/530/468 443/517/468 458/525/468
f 437/522/469 436/518/469 451/527/469 452/531/469
f 430/523/470 429/520/470 444/529/470 445/532/470
f 438/507/471 437/522/471 452/531/471 453/533/471
f 431/509/472 430/523/472 445/532/472 446/534/472
f 439/508/473 438/507/473 453/533/473 454/535/473
f 432/510/474 431/509/474 446/534/474 447/536/474
f 440/511/475 439/508/475 454/535/475 455/537/475
f 433/512/476 432/510/476 447/536/476 448/538/476
f 441/513/477 440/511/477 455/537/477 456/539/477
f 434/514/478 433/512/478 448/538/478 449/540/478
f 442/515/479 441/513/479 456/539/479 457/524/479
f 435/516/480 434/514/480 449/540/480 450/526/480
f 455/537/481 454/535/481 469/541/481 470/542/481
f 448/538/482 447/536/482 462/543/482 463/544/482
f 456/539/483 455/537/483 470/542/483 471/545/483
f 449/540/484 448/538/484 463/544/484 464/546/484
f 457/524/485 456/539/485 471/545/485 472/547/485
f 450/526/486 449/540/486 464/546/486 465/548/486
f 458/525/487 457/524/487 472/547/487 473/549/487
f 451/527/488 450/526/488 465/548/488 466/550/488
f 444/529/489 82/551/489 459/552/489
f 308/553/490 458/525/490 473/549/490
f 452/531/491 451/527/491 466/550/491 467/554/491
f 445/532/492 444/529/492 459/552/492 460/555/492
f 453/533/493 452/531/493 467/554/493 468/556/493
f 446/534/494 445/532/494 460/555/494 461/557/494
f 454/535/495 453/533/495 468/556/495 469/541/495
f 447/536/496 446/534/496 461/557/496 462/543/496
f 459/552/497 82/558/497 474/5/497
f 308/559/498 473/549/498 482/9/498
f 467/554/499 466/550/499 4/1/499 5/11/499
f 460/555/500 459/552/500 474/5/500 475/13/500
f 468/556/501 467/554/501 5/11/501 478/15/501
f 461/557/502 460/555/502 475/13/502 1/17/502
f 469/541/503 468/556/503 478/15/503 6/19/503
f 462/543/504 461/557/504 1/17/504 476/21/504
f 470/542/505 469/541/505 6/19/505 479/23/505
f 463/544/506 462/543/506 476/21/506 2/25/506
f 471/545/507 470/542/507 479/23/507 480/27/507
f 464/546/508 463/544/508 2/25/508 477/29/508
f 472/547/509 471/545/509 480/27/509 481/31/509
f 465/548/510 464/546/510 477/29/510 3/2/510
f 473/549/511 472/547/511 481/31/511 482/9/511
f 466/550/512 465/548/512 3/2/512 4/1/512
